<?xml version="1.0" encoding="UTF-8" standalone="no"?>
<!DOCTYPE svg PUBLIC "-//W3C//DTD SVG 1.1//EN"
 "http://www.w3.org/Graphics/SVG/1.1/DTD/svg11.dtd">
<!-- Generated by graphviz version 2.43.20190912.0211 (20190912.0211)
 -->
<!-- Title: Graphical Class Hierarchy Pages: 1 -->
<svg width="170pt" height="104pt"
 viewBox="0.00 0.00 170.00 104.00" xmlns="http://www.w3.org/2000/svg" xmlns:xlink="http://www.w3.org/1999/xlink">
<g id="graph0" class="graph" transform="scale(1 1) rotate(0) translate(4 100)">
<title>Graphical Class Hierarchy</title>
<!-- Node0 -->
<g id="node1" class="node">
<title>Node0</title>
<g id="a_node1"><a xlink:href="classCard.html" target="_top" xlink:title="Abstract class to save and handle registered users information and their cards.">
<polygon fill="none" stroke="black" points="0,-38.5 0,-57.5 39,-57.5 39,-38.5 0,-38.5"/>
<text text-anchor="middle" x="19.5" y="-45.5" font-family="Helvetica,sans-Serif" font-size="10.00">Card</text>
</a>
</g>
</g>
<!-- Node1 -->
<g id="node2" class="node">
<title>Node1</title>
<g id="a_node2"><a xlink:href="classIndividualCard.html" target="_top" xlink:title="Saves and handles a normal user&#39;s card and information.">
<polygon fill="none" stroke="black" points="75,-76.5 75,-95.5 162,-95.5 162,-76.5 75,-76.5"/>
<text text-anchor="middle" x="118.5" y="-83.5" font-family="Helvetica,sans-Serif" font-size="10.00">IndividualCard</text>
</a>
</g>
</g>
<!-- Node0&#45;&gt;Node1 -->
<g id="edge1" class="edge">
<title>Node0&#45;&gt;Node1</title>
<path fill="none" stroke="midnightblue" d="M48.82,-59.1C62.82,-64.58 79.54,-71.13 92.98,-76.39"/>
<polygon fill="midnightblue" stroke="midnightblue" points="49.79,-55.72 39.2,-55.33 47.24,-62.23 49.79,-55.72"/>
</g>
<!-- Node2 -->
<g id="node3" class="node">
<title>Node2</title>
<g id="a_node3"><a xlink:href="classSilverCard.html" target="_top" xlink:title="Saves and handles a senior user&#39;s card and information.">
<polygon fill="none" stroke="black" points="85,-38.5 85,-57.5 152,-57.5 152,-38.5 85,-38.5"/>
<text text-anchor="middle" x="118.5" y="-45.5" font-family="Helvetica,sans-Serif" font-size="10.00">SilverCard</text>
</a>
</g>
</g>
<!-- Node0&#45;&gt;Node2 -->
<g id="edge2" class="edge">
<title>Node0&#45;&gt;Node2</title>
<path fill="none" stroke="midnightblue" d="M49.27,-48C60.41,-48 73.22,-48 84.71,-48"/>
<polygon fill="midnightblue" stroke="midnightblue" points="49.2,-44.5 39.2,-48 49.2,-51.5 49.2,-44.5"/>
</g>
<!-- Node3 -->
<g id="node4" class="node">
<title>Node3</title>
<g id="a_node4"><a xlink:href="classUniCard.html" target="_top" xlink:title="Saves and handles a university student&#39;s card and information.">
<polygon fill="none" stroke="black" points="90.5,-0.5 90.5,-19.5 146.5,-19.5 146.5,-0.5 90.5,-0.5"/>
<text text-anchor="middle" x="118.5" y="-7.5" font-family="Helvetica,sans-Serif" font-size="10.00">UniCard</text>
</a>
</g>
</g>
<!-- Node0&#45;&gt;Node3 -->
<g id="edge3" class="edge">
<title>Node0&#45;&gt;Node3</title>
<path fill="none" stroke="midnightblue" d="M48.82,-36.9C62.82,-31.42 79.54,-24.87 92.98,-19.61"/>
<polygon fill="midnightblue" stroke="midnightblue" points="47.24,-33.77 39.2,-40.67 49.79,-40.28 47.24,-33.77"/>
</g>
</g>
</svg>
