<?xml version="1.0" encoding="UTF-8" standalone="no"?>
<!DOCTYPE svg PUBLIC "-//W3C//DTD SVG 1.1//EN"
 "http://www.w3.org/Graphics/SVG/1.1/DTD/svg11.dtd">
<!-- Generated by graphviz version 2.42.3 (0)
 -->
<!-- Title: MenuFilter&lt; Arg &gt; Pages: 1 -->
<svg width="296pt" height="474pt"
 viewBox="0.00 0.00 296.00 474.00" xmlns="http://www.w3.org/2000/svg" xmlns:xlink="http://www.w3.org/1999/xlink">
<g id="graph0" class="graph" transform="scale(1 1) rotate(0) translate(4 470)">
<title>MenuFilter&lt; Arg &gt;</title>
<!-- Node1 -->
<g id="node1" class="node">
<title>Node1</title>
<g id="a_node1"><a xlink:title="Abstract class used for specifying menus that modify an argument (by using different filters)">
<polygon fill="#bfbfbf" stroke="black" points="89,-226.5 89,-327.5 196,-327.5 196,-226.5 89,-226.5"/>
<text text-anchor="middle" x="142.5" y="-315.5" font-family="Helvetica,sans-Serif" font-size="10.00">MenuFilter&lt; Arg &gt;</text>
<polyline fill="none" stroke="black" points="89,-308.5 196,-308.5 "/>
<text text-anchor="middle" x="142.5" y="-296.5" font-family="Helvetica,sans-Serif" font-size="10.00"> </text>
<polyline fill="none" stroke="black" points="89,-289.5 196,-289.5 "/>
<text text-anchor="start" x="97" y="-277.5" font-family="Helvetica,sans-Serif" font-size="10.00">+ MenuFilter()</text>
<text text-anchor="start" x="97" y="-266.5" font-family="Helvetica,sans-Serif" font-size="10.00">+ ~MenuFilter()</text>
<text text-anchor="start" x="97" y="-255.5" font-family="Helvetica,sans-Serif" font-size="10.00">+ MenuFilter()</text>
<text text-anchor="start" x="97" y="-244.5" font-family="Helvetica,sans-Serif" font-size="10.00">+ show()</text>
<text text-anchor="start" x="97" y="-233.5" font-family="Helvetica,sans-Serif" font-size="10.00">+ show()</text>
</a>
</g>
</g>
<!-- Node3 -->
<g id="node3" class="node">
<title>Node3</title>
<g id="a_node3"><a xlink:href="classMenuOptionsFilter.html" target="_top" xlink:title="Menu that controls MenuSelectFilter and other MenuOptionsFilter.">
<polygon fill="none" stroke="black" points="0,-0.5 0,-189.5 133,-189.5 133,-0.5 0,-0.5"/>
<text text-anchor="start" x="8" y="-177.5" font-family="Helvetica,sans-Serif" font-size="10.00">MenuOptionsFilter&lt;</text>
<text text-anchor="middle" x="66.5" y="-166.5" font-family="Helvetica,sans-Serif" font-size="10.00"> Arg &gt;</text>
<polyline fill="none" stroke="black" points="0,-159.5 133,-159.5 "/>
<text text-anchor="start" x="8" y="-147.5" font-family="Helvetica,sans-Serif" font-size="10.00">&#45; argument</text>
<text text-anchor="start" x="8" y="-136.5" font-family="Helvetica,sans-Serif" font-size="10.00">&#45; start_func</text>
<text text-anchor="start" x="8" y="-125.5" font-family="Helvetica,sans-Serif" font-size="10.00">&#45; exit_func</text>
<text text-anchor="start" x="8" y="-114.5" font-family="Helvetica,sans-Serif" font-size="10.00">&#45; options</text>
<text text-anchor="start" x="8" y="-103.5" font-family="Helvetica,sans-Serif" font-size="10.00">&#45; options_backup</text>
<text text-anchor="start" x="8" y="-92.5" font-family="Helvetica,sans-Serif" font-size="10.00">&#45; select_one_menu</text>
<text text-anchor="start" x="8" y="-81.5" font-family="Helvetica,sans-Serif" font-size="10.00">&#45; repeat_menus_vec</text>
<polyline fill="none" stroke="black" points="0,-74.5 133,-74.5 "/>
<text text-anchor="start" x="8" y="-62.5" font-family="Helvetica,sans-Serif" font-size="10.00">+ MenuOptionsFilter()</text>
<text text-anchor="start" x="8" y="-51.5" font-family="Helvetica,sans-Serif" font-size="10.00">+ ~MenuOptionsFilter()</text>
<text text-anchor="start" x="8" y="-40.5" font-family="Helvetica,sans-Serif" font-size="10.00">+ MenuOptionsFilter()</text>
<text text-anchor="start" x="8" y="-29.5" font-family="Helvetica,sans-Serif" font-size="10.00">+ getMessage()</text>
<text text-anchor="start" x="8" y="-18.5" font-family="Helvetica,sans-Serif" font-size="10.00">+ show()</text>
<text text-anchor="start" x="8" y="-7.5" font-family="Helvetica,sans-Serif" font-size="10.00">+ show()</text>
</a>
</g>
</g>
<!-- Node1&#45;&gt;Node3 -->
<g id="edge2" class="edge">
<title>Node1&#45;&gt;Node3</title>
<path fill="none" stroke="midnightblue" d="M117.59,-217C113.88,-208.22 109.98,-198.99 106.06,-189.7"/>
<polygon fill="none" stroke="midnightblue" points="114.42,-218.49 121.53,-226.34 120.87,-215.76 114.42,-218.49"/>
</g>
<!-- Node4 -->
<g id="node4" class="node">
<title>Node4</title>
<g id="a_node4"><a xlink:href="classMenuSelectFilter.html" target="_top" xlink:title="Wrapper to function that modifies an argument.">
<polygon fill="none" stroke="black" points="151,-50 151,-140 288,-140 288,-50 151,-50"/>
<text text-anchor="middle" x="219.5" y="-128" font-family="Helvetica,sans-Serif" font-size="10.00">MenuSelectFilter&lt; Arg &gt;</text>
<polyline fill="none" stroke="black" points="151,-121 288,-121 "/>
<text text-anchor="start" x="159" y="-109" font-family="Helvetica,sans-Serif" font-size="10.00">&#45; func</text>
<polyline fill="none" stroke="black" points="151,-102 288,-102 "/>
<text text-anchor="start" x="159" y="-90" font-family="Helvetica,sans-Serif" font-size="10.00">+ MenuSelectFilter()</text>
<text text-anchor="start" x="159" y="-79" font-family="Helvetica,sans-Serif" font-size="10.00">+ ~MenuSelectFilter()</text>
<text text-anchor="start" x="159" y="-68" font-family="Helvetica,sans-Serif" font-size="10.00">+ MenuSelectFilter()</text>
<text text-anchor="start" x="159" y="-57" font-family="Helvetica,sans-Serif" font-size="10.00">+ show()</text>
</a>
</g>
</g>
<!-- Node1&#45;&gt;Node4 -->
<g id="edge3" class="edge">
<title>Node1&#45;&gt;Node4</title>
<path fill="none" stroke="midnightblue" d="M167.75,-216.96C178.44,-191.99 190.67,-163.4 200.56,-140.28"/>
<polygon fill="none" stroke="midnightblue" points="164.46,-215.77 163.74,-226.34 170.9,-218.52 164.46,-215.77"/>
</g>
<!-- Node2 -->
<g id="node2" class="node">
<title>Node2</title>
<g id="a_node2"><a xlink:href="classMenu.html" target="_top" xlink:title="Absract class for menus that don&#39;t modify arguments.">
<polygon fill="none" stroke="black" points="106,-364.5 106,-465.5 179,-465.5 179,-364.5 106,-364.5"/>
<text text-anchor="middle" x="142.5" y="-453.5" font-family="Helvetica,sans-Serif" font-size="10.00">Menu</text>
<polyline fill="none" stroke="black" points="106,-446.5 179,-446.5 "/>
<text text-anchor="start" x="114" y="-434.5" font-family="Helvetica,sans-Serif" font-size="10.00"># title</text>
<polyline fill="none" stroke="black" points="106,-427.5 179,-427.5 "/>
<text text-anchor="start" x="114" y="-415.5" font-family="Helvetica,sans-Serif" font-size="10.00">+ Menu()</text>
<text text-anchor="start" x="114" y="-404.5" font-family="Helvetica,sans-Serif" font-size="10.00">+ ~Menu()</text>
<text text-anchor="start" x="114" y="-393.5" font-family="Helvetica,sans-Serif" font-size="10.00">+ Menu()</text>
<text text-anchor="start" x="114" y="-382.5" font-family="Helvetica,sans-Serif" font-size="10.00">+ getTitle()</text>
<text text-anchor="start" x="114" y="-371.5" font-family="Helvetica,sans-Serif" font-size="10.00">+ show()</text>
</a>
</g>
</g>
<!-- Node2&#45;&gt;Node1 -->
<g id="edge1" class="edge">
<title>Node2&#45;&gt;Node1</title>
<path fill="none" stroke="midnightblue" d="M142.5,-354C142.5,-345.27 142.5,-336.36 142.5,-327.86"/>
<polygon fill="none" stroke="midnightblue" points="139,-354.13 142.5,-364.13 146,-354.13 139,-354.13"/>
</g>
</g>
</svg>
