<?xml version="1.0" encoding="UTF-8" standalone="no"?>
<!DOCTYPE svg PUBLIC "-//W3C//DTD SVG 1.1//EN"
 "http://www.w3.org/Graphics/SVG/1.1/DTD/svg11.dtd">
<!-- Generated by graphviz version 2.42.3 (0)
 -->
<!-- Title: MenuOptionsFilter&lt; Arg &gt; Pages: 1 -->
<svg width="141pt" height="474pt"
 viewBox="0.00 0.00 141.00 474.00" xmlns="http://www.w3.org/2000/svg" xmlns:xlink="http://www.w3.org/1999/xlink">
<g id="graph0" class="graph" transform="scale(1 1) rotate(0) translate(4 470)">
<title>MenuOptionsFilter&lt; Arg &gt;</title>
<!-- Node1 -->
<g id="node1" class="node">
<title>Node1</title>
<g id="a_node1"><a xlink:title="Menu that controls MenuSelectFilter and other MenuOptionsFilter.">
<polygon fill="#bfbfbf" stroke="black" points="0,-0.5 0,-189.5 133,-189.5 133,-0.5 0,-0.5"/>
<text text-anchor="start" x="8" y="-177.5" font-family="Helvetica,sans-Serif" font-size="10.00">MenuOptionsFilter&lt;</text>
<text text-anchor="middle" x="66.5" y="-166.5" font-family="Helvetica,sans-Serif" font-size="10.00"> Arg &gt;</text>
<polyline fill="none" stroke="black" points="0,-159.5 133,-159.5 "/>
<text text-anchor="start" x="8" y="-147.5" font-family="Helvetica,sans-Serif" font-size="10.00">&#45; argument</text>
<text text-anchor="start" x="8" y="-136.5" font-family="Helvetica,sans-Serif" font-size="10.00">&#45; start_func</text>
<text text-anchor="start" x="8" y="-125.5" font-family="Helvetica,sans-Serif" font-size="10.00">&#45; exit_func</text>
<text text-anchor="start" x="8" y="-114.5" font-family="Helvetica,sans-Serif" font-size="10.00">&#45; options</text>
<text text-anchor="start" x="8" y="-103.5" font-family="Helvetica,sans-Serif" font-size="10.00">&#45; options_backup</text>
<text text-anchor="start" x="8" y="-92.5" font-family="Helvetica,sans-Serif" font-size="10.00">&#45; select_one_menu</text>
<text text-anchor="start" x="8" y="-81.5" font-family="Helvetica,sans-Serif" font-size="10.00">&#45; repeat_menus_vec</text>
<polyline fill="none" stroke="black" points="0,-74.5 133,-74.5 "/>
<text text-anchor="start" x="8" y="-62.5" font-family="Helvetica,sans-Serif" font-size="10.00">+ MenuOptionsFilter()</text>
<text text-anchor="start" x="8" y="-51.5" font-family="Helvetica,sans-Serif" font-size="10.00">+ ~MenuOptionsFilter()</text>
<text text-anchor="start" x="8" y="-40.5" font-family="Helvetica,sans-Serif" font-size="10.00">+ MenuOptionsFilter()</text>
<text text-anchor="start" x="8" y="-29.5" font-family="Helvetica,sans-Serif" font-size="10.00">+ getMessage()</text>
<text text-anchor="start" x="8" y="-18.5" font-family="Helvetica,sans-Serif" font-size="10.00">+ show()</text>
<text text-anchor="start" x="8" y="-7.5" font-family="Helvetica,sans-Serif" font-size="10.00">+ show()</text>
</a>
</g>
</g>
<!-- Node2 -->
<g id="node2" class="node">
<title>Node2</title>
<g id="a_node2"><a xlink:href="classMenuFilter.html" target="_top" xlink:title="Abstract class used for specifying menus that modify an argument (by using different filters)">
<polygon fill="none" stroke="black" points="13,-226.5 13,-327.5 120,-327.5 120,-226.5 13,-226.5"/>
<text text-anchor="middle" x="66.5" y="-315.5" font-family="Helvetica,sans-Serif" font-size="10.00">MenuFilter&lt; Arg &gt;</text>
<polyline fill="none" stroke="black" points="13,-308.5 120,-308.5 "/>
<text text-anchor="middle" x="66.5" y="-296.5" font-family="Helvetica,sans-Serif" font-size="10.00"> </text>
<polyline fill="none" stroke="black" points="13,-289.5 120,-289.5 "/>
<text text-anchor="start" x="21" y="-277.5" font-family="Helvetica,sans-Serif" font-size="10.00">+ MenuFilter()</text>
<text text-anchor="start" x="21" y="-266.5" font-family="Helvetica,sans-Serif" font-size="10.00">+ ~MenuFilter()</text>
<text text-anchor="start" x="21" y="-255.5" font-family="Helvetica,sans-Serif" font-size="10.00">+ MenuFilter()</text>
<text text-anchor="start" x="21" y="-244.5" font-family="Helvetica,sans-Serif" font-size="10.00">+ show()</text>
<text text-anchor="start" x="21" y="-233.5" font-family="Helvetica,sans-Serif" font-size="10.00">+ show()</text>
</a>
</g>
</g>
<!-- Node2&#45;&gt;Node1 -->
<g id="edge1" class="edge">
<title>Node2&#45;&gt;Node1</title>
<path fill="none" stroke="midnightblue" d="M66.5,-216.16C66.5,-207.63 66.5,-198.69 66.5,-189.7"/>
<polygon fill="none" stroke="midnightblue" points="63,-216.34 66.5,-226.34 70,-216.34 63,-216.34"/>
</g>
<!-- Node3 -->
<g id="node3" class="node">
<title>Node3</title>
<g id="a_node3"><a xlink:href="classMenu.html" target="_top" xlink:title="Absract class for menus that don&#39;t modify arguments.">
<polygon fill="none" stroke="black" points="30,-364.5 30,-465.5 103,-465.5 103,-364.5 30,-364.5"/>
<text text-anchor="middle" x="66.5" y="-453.5" font-family="Helvetica,sans-Serif" font-size="10.00">Menu</text>
<polyline fill="none" stroke="black" points="30,-446.5 103,-446.5 "/>
<text text-anchor="start" x="38" y="-434.5" font-family="Helvetica,sans-Serif" font-size="10.00"># title</text>
<polyline fill="none" stroke="black" points="30,-427.5 103,-427.5 "/>
<text text-anchor="start" x="38" y="-415.5" font-family="Helvetica,sans-Serif" font-size="10.00">+ Menu()</text>
<text text-anchor="start" x="38" y="-404.5" font-family="Helvetica,sans-Serif" font-size="10.00">+ ~Menu()</text>
<text text-anchor="start" x="38" y="-393.5" font-family="Helvetica,sans-Serif" font-size="10.00">+ Menu()</text>
<text text-anchor="start" x="38" y="-382.5" font-family="Helvetica,sans-Serif" font-size="10.00">+ getTitle()</text>
<text text-anchor="start" x="38" y="-371.5" font-family="Helvetica,sans-Serif" font-size="10.00">+ show()</text>
</a>
</g>
</g>
<!-- Node3&#45;&gt;Node2 -->
<g id="edge2" class="edge">
<title>Node3&#45;&gt;Node2</title>
<path fill="none" stroke="midnightblue" d="M66.5,-354C66.5,-345.27 66.5,-336.36 66.5,-327.86"/>
<polygon fill="none" stroke="midnightblue" points="63,-354.13 66.5,-364.13 70,-354.13 63,-354.13"/>
</g>
</g>
</svg>
