<?xml version="1.0" encoding="UTF-8" standalone="no"?>
<!DOCTYPE svg PUBLIC "-//W3C//DTD SVG 1.1//EN"
 "http://www.w3.org/Graphics/SVG/1.1/DTD/svg11.dtd">
<!-- Generated by graphviz version 2.42.3 (0)
 -->
<!-- Title: Graphical Class Hierarchy Pages: 1 -->
<svg width="285pt" height="370pt"
 viewBox="0.00 0.00 285.00 370.00" xmlns="http://www.w3.org/2000/svg" xmlns:xlink="http://www.w3.org/1999/xlink">
<g id="graph0" class="graph" transform="scale(1 1) rotate(0) translate(4 366)">
<title>Graphical Class Hierarchy</title>
<!-- Node5 -->
<g id="node1" class="node">
<title>Node5</title>
<g id="a_node1"><a xlink:title=" ">
<polygon fill="none" stroke="#bfbfbf" points="0,-171.5 0,-190.5 83,-190.5 83,-171.5 0,-171.5"/>
<text text-anchor="middle" x="41.5" y="-178.5" font-family="Helvetica,sans-Serif" font-size="10.00">runtime_error</text>
</a>
</g>
</g>
<!-- Node0 -->
<g id="node2" class="node">
<title>Node0</title>
<g id="a_node2"><a xlink:href="classCardExpired.html" target="_top" xlink:title="Thrown when a user attempts to use the benefits of his Card while it is expired.">
<polygon fill="none" stroke="black" points="160,-342.5 160,-361.5 236,-361.5 236,-342.5 160,-342.5"/>
<text text-anchor="middle" x="198" y="-349.5" font-family="Helvetica,sans-Serif" font-size="10.00">CardExpired</text>
</a>
</g>
</g>
<!-- Node5&#45;&gt;Node0 -->
<g id="edge1" class="edge">
<title>Node5&#45;&gt;Node0</title>
<path fill="none" stroke="midnightblue" d="M46.76,-200.7C54.88,-233.39 75.77,-298.63 119,-333 130.56,-342.19 145.92,-347.03 159.96,-349.54"/>
<polygon fill="midnightblue" stroke="midnightblue" points="50.08,-199.55 44.4,-190.6 43.27,-201.14 50.08,-199.55"/>
</g>
<!-- Node7 -->
<g id="node3" class="node">
<title>Node7</title>
<g id="a_node3"><a xlink:href="classFileNotFound.html" target="_top" xlink:title="Thrown when a file was not found.">
<polygon fill="none" stroke="black" points="158,-304.5 158,-323.5 238,-323.5 238,-304.5 158,-304.5"/>
<text text-anchor="middle" x="198" y="-311.5" font-family="Helvetica,sans-Serif" font-size="10.00">FileNotFound</text>
</a>
</g>
</g>
<!-- Node5&#45;&gt;Node7 -->
<g id="edge2" class="edge">
<title>Node5&#45;&gt;Node7</title>
<path fill="none" stroke="midnightblue" d="M50.04,-200.12C61.17,-225.77 84.47,-270.9 119,-295 130.31,-302.9 144.54,-307.53 157.74,-310.24"/>
<polygon fill="midnightblue" stroke="midnightblue" points="53.21,-198.62 46.14,-190.73 46.74,-201.31 53.21,-198.62"/>
</g>
<!-- Node8 -->
<g id="node4" class="node">
<title>Node8</title>
<g id="a_node4"><a xlink:href="classFileReadingFailed.html" target="_top" xlink:title="Thrown when there was a reading failure from a file.">
<polygon fill="none" stroke="black" points="147,-266.5 147,-285.5 249,-285.5 249,-266.5 147,-266.5"/>
<text text-anchor="middle" x="198" y="-273.5" font-family="Helvetica,sans-Serif" font-size="10.00">FileReadingFailed</text>
</a>
</g>
</g>
<!-- Node5&#45;&gt;Node8 -->
<g id="edge3" class="edge">
<title>Node5&#45;&gt;Node8</title>
<path fill="none" stroke="midnightblue" d="M55.66,-198.84C69.49,-216.3 92.85,-242.35 119,-257 127.51,-261.77 137.2,-265.35 146.79,-268.03"/>
<polygon fill="midnightblue" stroke="midnightblue" points="58.19,-196.4 49.33,-190.6 52.64,-200.66 58.19,-196.4"/>
</g>
<!-- Node9 -->
<g id="node5" class="node">
<title>Node9</title>
<g id="a_node5"><a xlink:href="classInvalidObject.html" target="_top" xlink:title="Thrown when the instance of an Object is malformed.">
<polygon fill="none" stroke="black" points="157.5,-228.5 157.5,-247.5 238.5,-247.5 238.5,-228.5 157.5,-228.5"/>
<text text-anchor="middle" x="198" y="-235.5" font-family="Helvetica,sans-Serif" font-size="10.00">InvalidObject</text>
</a>
</g>
</g>
<!-- Node5&#45;&gt;Node9 -->
<g id="edge4" class="edge">
<title>Node5&#45;&gt;Node9</title>
<path fill="none" stroke="midnightblue" d="M67.95,-195.43C82.54,-203.24 101.4,-212.58 119,-219 131.18,-223.44 144.8,-227.17 157.21,-230.11"/>
<polygon fill="midnightblue" stroke="midnightblue" points="69.49,-192.28 59.04,-190.56 66.14,-198.42 69.49,-192.28"/>
</g>
<!-- Node10 -->
<g id="node6" class="node">
<title>Node10</title>
<g id="a_node6"><a xlink:href="classMenuExitWithNoFunctionCall.html" target="_top" xlink:title="Thrown when the called menu has no function to call.">
<polygon fill="none" stroke="black" points="119,-190.5 119,-209.5 277,-209.5 277,-190.5 119,-190.5"/>
<text text-anchor="middle" x="198" y="-197.5" font-family="Helvetica,sans-Serif" font-size="10.00">MenuExitWithNoFunctionCall</text>
</a>
</g>
</g>
<!-- Node5&#45;&gt;Node10 -->
<g id="edge5" class="edge">
<title>Node5&#45;&gt;Node10</title>
<path fill="none" stroke="midnightblue" d="M93.17,-187.23C101.65,-188.27 110.63,-189.38 119.6,-190.48"/>
<polygon fill="midnightblue" stroke="midnightblue" points="93.45,-183.74 83.09,-185.99 92.59,-190.69 93.45,-183.74"/>
</g>
<!-- Node11 -->
<g id="node7" class="node">
<title>Node11</title>
<g id="a_node7"><a xlink:href="classMenuForceExit.html" target="_top" xlink:title="Thrown by a menu to forcefully kill itself.">
<polygon fill="none" stroke="black" points="153.5,-152.5 153.5,-171.5 242.5,-171.5 242.5,-152.5 153.5,-152.5"/>
<text text-anchor="middle" x="198" y="-159.5" font-family="Helvetica,sans-Serif" font-size="10.00">MenuForceExit</text>
</a>
</g>
</g>
<!-- Node5&#45;&gt;Node11 -->
<g id="edge6" class="edge">
<title>Node5&#45;&gt;Node11</title>
<path fill="none" stroke="midnightblue" d="M93.03,-174.79C112.53,-172.39 134.64,-169.67 153.43,-167.36"/>
<polygon fill="midnightblue" stroke="midnightblue" points="92.59,-171.31 83.09,-176.01 93.45,-178.26 92.59,-171.31"/>
</g>
<!-- Node12 -->
<g id="node8" class="node">
<title>Node12</title>
<g id="a_node8"><a xlink:href="classNoSuchObject.html" target="_top" xlink:title="Thrown when the Object we&#39;re attempting to find can&#39;t be found anywhere.">
<polygon fill="none" stroke="black" points="155.5,-114.5 155.5,-133.5 240.5,-133.5 240.5,-114.5 155.5,-114.5"/>
<text text-anchor="middle" x="198" y="-121.5" font-family="Helvetica,sans-Serif" font-size="10.00">NoSuchObject</text>
</a>
</g>
</g>
<!-- Node5&#45;&gt;Node12 -->
<g id="edge7" class="edge">
<title>Node5&#45;&gt;Node12</title>
<path fill="none" stroke="midnightblue" d="M67.95,-166.57C82.54,-158.76 101.4,-149.42 119,-143 130.52,-138.79 143.34,-135.24 155.2,-132.37"/>
<polygon fill="midnightblue" stroke="midnightblue" points="66.14,-163.58 59.04,-171.44 69.49,-169.72 66.14,-163.58"/>
</g>
<!-- Node13 -->
<g id="node9" class="node">
<title>Node13</title>
<g id="a_node9"><a xlink:href="classObjectAlreadyExists.html" target="_top" xlink:title="Thrown when attempting to instantiate a duplicate of an Object that can&#39;t have duplicates.">
<polygon fill="none" stroke="black" points="140.5,-76.5 140.5,-95.5 255.5,-95.5 255.5,-76.5 140.5,-76.5"/>
<text text-anchor="middle" x="198" y="-83.5" font-family="Helvetica,sans-Serif" font-size="10.00">ObjectAlreadyExists</text>
</a>
</g>
</g>
<!-- Node5&#45;&gt;Node13 -->
<g id="edge8" class="edge">
<title>Node5&#45;&gt;Node13</title>
<path fill="none" stroke="midnightblue" d="M55.66,-163.16C69.49,-145.7 92.85,-119.65 119,-105 125.93,-101.12 133.64,-98.02 141.44,-95.56"/>
<polygon fill="midnightblue" stroke="midnightblue" points="52.64,-161.34 49.33,-171.4 58.19,-165.6 52.64,-161.34"/>
</g>
<!-- Node14 -->
<g id="node10" class="node">
<title>Node14</title>
<g id="a_node10"><a xlink:href="classTooEarlyToRenewCard.html" target="_top" xlink:title="Thrown when a user attemps to renew a card too early.">
<polygon fill="none" stroke="black" points="136,-38.5 136,-57.5 260,-57.5 260,-38.5 136,-38.5"/>
<text text-anchor="middle" x="198" y="-45.5" font-family="Helvetica,sans-Serif" font-size="10.00">TooEarlyToRenewCard</text>
</a>
</g>
</g>
<!-- Node5&#45;&gt;Node14 -->
<g id="edge9" class="edge">
<title>Node5&#45;&gt;Node14</title>
<path fill="none" stroke="midnightblue" d="M50.04,-161.88C61.17,-136.23 84.47,-91.1 119,-67 124.6,-63.09 130.91,-59.98 137.46,-57.51"/>
<polygon fill="midnightblue" stroke="midnightblue" points="46.74,-160.69 46.14,-171.27 53.21,-163.38 46.74,-160.69"/>
</g>
<!-- Node15 -->
<g id="node11" class="node">
<title>Node15</title>
<g id="a_node11"><a xlink:href="classUserInputReadingFailure.html" target="_top" xlink:title="Thrown when there was a user input (usually through std::cin) failure.">
<polygon fill="none" stroke="black" points="130,-0.5 130,-19.5 266,-19.5 266,-0.5 130,-0.5"/>
<text text-anchor="middle" x="198" y="-7.5" font-family="Helvetica,sans-Serif" font-size="10.00">UserInputReadingFailure</text>
</a>
</g>
</g>
<!-- Node5&#45;&gt;Node15 -->
<g id="edge10" class="edge">
<title>Node5&#45;&gt;Node15</title>
<path fill="none" stroke="midnightblue" d="M46.76,-161.3C54.88,-128.61 75.77,-63.37 119,-29 123.8,-25.18 129.25,-22.12 135,-19.66"/>
<polygon fill="midnightblue" stroke="midnightblue" points="43.27,-160.86 44.4,-171.4 50.08,-162.45 43.27,-160.86"/>
</g>
</g>
</svg>
