<?xml version="1.0" encoding="UTF-8" standalone="no"?>
<!DOCTYPE svg PUBLIC "-//W3C//DTD SVG 1.1//EN"
 "http://www.w3.org/Graphics/SVG/1.1/DTD/svg11.dtd">
<!-- Generated by graphviz version 2.43.20190912.0211 (20190912.0211)
 -->
<!-- Title: /home/joao/Documents/UniStuff/2_1things/AEDA/FEUP&#45;AEDA&#45;Proj1/include/address.h Pages: 1 -->
<svg width="508pt" height="417pt"
 viewBox="0.00 0.00 508.14 417.00" xmlns="http://www.w3.org/2000/svg" xmlns:xlink="http://www.w3.org/1999/xlink">
<g id="graph0" class="graph" transform="scale(1 1) rotate(0) translate(4 413)">
<title>/home/joao/Documents/UniStuff/2_1things/AEDA/FEUP&#45;AEDA&#45;Proj1/include/address.h</title>
<!-- Node1 -->
<g id="node1" class="node">
<title>Node1</title>
<g id="a_node1"><a xlink:title=" ">
<polygon fill="#bfbfbf" stroke="black" points="241,-356.5 241,-408.5 384,-408.5 384,-356.5 241,-356.5"/>
<text text-anchor="start" x="249" y="-396.5" font-family="Helvetica,sans-Serif" font-size="10.00">/home/joao/Documents</text>
<text text-anchor="start" x="249" y="-385.5" font-family="Helvetica,sans-Serif" font-size="10.00">/UniStuff/2_1things/AEDA</text>
<text text-anchor="start" x="249" y="-374.5" font-family="Helvetica,sans-Serif" font-size="10.00">/FEUP&#45;AEDA&#45;Proj1/include</text>
<text text-anchor="middle" x="312.5" y="-363.5" font-family="Helvetica,sans-Serif" font-size="10.00">/address.h</text>
</a>
</g>
</g>
<!-- Node2 -->
<g id="node2" class="node">
<title>Node2</title>
<g id="a_node2"><a xlink:href="cards_8h.html" target="_top" xlink:title=" ">
<polygon fill="none" stroke="black" points="0,-178.5 0,-230.5 143,-230.5 143,-178.5 0,-178.5"/>
<text text-anchor="start" x="8" y="-218.5" font-family="Helvetica,sans-Serif" font-size="10.00">/home/joao/Documents</text>
<text text-anchor="start" x="8" y="-207.5" font-family="Helvetica,sans-Serif" font-size="10.00">/UniStuff/2_1things/AEDA</text>
<text text-anchor="start" x="8" y="-196.5" font-family="Helvetica,sans-Serif" font-size="10.00">/FEUP&#45;AEDA&#45;Proj1/include</text>
<text text-anchor="middle" x="71.5" y="-185.5" font-family="Helvetica,sans-Serif" font-size="10.00">/cards.h</text>
</a>
</g>
</g>
<!-- Node1&#45;&gt;Node2 -->
<g id="edge1" class="edge">
<title>Node1&#45;&gt;Node2</title>
<path fill="none" stroke="midnightblue" d="M270.13,-350.56C223.47,-316.48 149.33,-262.34 106.05,-230.73"/>
<polygon fill="midnightblue" stroke="midnightblue" points="268.09,-353.4 278.23,-356.47 272.21,-347.75 268.09,-353.4"/>
</g>
<!-- Node3 -->
<g id="node3" class="node">
<title>Node3</title>
<g id="a_node3"><a xlink:href="filter_8h.html" target="_top" xlink:title=" ">
<polygon fill="none" stroke="black" points="322,-89.5 322,-141.5 465,-141.5 465,-89.5 322,-89.5"/>
<text text-anchor="start" x="330" y="-129.5" font-family="Helvetica,sans-Serif" font-size="10.00">/home/joao/Documents</text>
<text text-anchor="start" x="330" y="-118.5" font-family="Helvetica,sans-Serif" font-size="10.00">/UniStuff/2_1things/AEDA</text>
<text text-anchor="start" x="330" y="-107.5" font-family="Helvetica,sans-Serif" font-size="10.00">/FEUP&#45;AEDA&#45;Proj1/include</text>
<text text-anchor="middle" x="393.5" y="-96.5" font-family="Helvetica,sans-Serif" font-size="10.00">/filter.h</text>
</a>
</g>
</g>
<!-- Node1&#45;&gt;Node3 -->
<g id="edge13" class="edge">
<title>Node1&#45;&gt;Node3</title>
<path fill="none" stroke="midnightblue" d="M394.2,-374.59C430.5,-366.98 470.03,-351.43 492.5,-320 501.06,-308.03 504.27,-200.79 491.5,-178 482.96,-162.76 468.9,-150.77 454.07,-141.59"/>
<polygon fill="midnightblue" stroke="midnightblue" points="393.22,-371.22 384.06,-376.54 394.54,-378.09 393.22,-371.22"/>
</g>
<!-- Node6 -->
<g id="node6" class="node">
<title>Node6</title>
<g id="a_node6"><a xlink:href="enterprise_8h.html" target="_top" xlink:title=" ">
<polygon fill="none" stroke="black" points="322,-178.5 322,-230.5 465,-230.5 465,-178.5 322,-178.5"/>
<text text-anchor="start" x="330" y="-218.5" font-family="Helvetica,sans-Serif" font-size="10.00">/home/joao/Documents</text>
<text text-anchor="start" x="330" y="-207.5" font-family="Helvetica,sans-Serif" font-size="10.00">/UniStuff/2_1things/AEDA</text>
<text text-anchor="start" x="330" y="-196.5" font-family="Helvetica,sans-Serif" font-size="10.00">/FEUP&#45;AEDA&#45;Proj1/include</text>
<text text-anchor="middle" x="393.5" y="-185.5" font-family="Helvetica,sans-Serif" font-size="10.00">/enterprise.h</text>
</a>
</g>
</g>
<!-- Node1&#45;&gt;Node6 -->
<g id="edge7" class="edge">
<title>Node1&#45;&gt;Node6</title>
<path fill="none" stroke="midnightblue" d="M312.78,-346.18C314.28,-322.6 318.83,-291.53 331.5,-267 338.6,-253.26 349.88,-240.71 360.89,-230.58"/>
<polygon fill="midnightblue" stroke="midnightblue" points="309.28,-346.29 312.3,-356.44 316.27,-346.62 309.28,-346.29"/>
</g>
<!-- Node7 -->
<g id="node7" class="node">
<title>Node7</title>
<g id="a_node7"><a xlink:href="event_8h.html" target="_top" xlink:title=" ">
<polygon fill="none" stroke="black" points="341,-267.5 341,-319.5 484,-319.5 484,-267.5 341,-267.5"/>
<text text-anchor="start" x="349" y="-307.5" font-family="Helvetica,sans-Serif" font-size="10.00">/home/joao/Documents</text>
<text text-anchor="start" x="349" y="-296.5" font-family="Helvetica,sans-Serif" font-size="10.00">/UniStuff/2_1things/AEDA</text>
<text text-anchor="start" x="349" y="-285.5" font-family="Helvetica,sans-Serif" font-size="10.00">/FEUP&#45;AEDA&#45;Proj1/include</text>
<text text-anchor="middle" x="412.5" y="-274.5" font-family="Helvetica,sans-Serif" font-size="10.00">/event.h</text>
</a>
</g>
</g>
<!-- Node1&#45;&gt;Node7 -->
<g id="edge10" class="edge">
<title>Node1&#45;&gt;Node7</title>
<path fill="none" stroke="midnightblue" d="M349.11,-349.65C360.49,-339.75 372.87,-328.98 383.64,-319.61"/>
<polygon fill="midnightblue" stroke="midnightblue" points="346.67,-347.13 341.42,-356.34 351.27,-352.41 346.67,-347.13"/>
</g>
<!-- Node8 -->
<g id="node8" class="node">
<title>Node8</title>
<g id="a_node8"><a xlink:href="museum_8h.html" target="_top" xlink:title=" ">
<polygon fill="none" stroke="black" points="161,-178.5 161,-230.5 304,-230.5 304,-178.5 161,-178.5"/>
<text text-anchor="start" x="169" y="-218.5" font-family="Helvetica,sans-Serif" font-size="10.00">/home/joao/Documents</text>
<text text-anchor="start" x="169" y="-207.5" font-family="Helvetica,sans-Serif" font-size="10.00">/UniStuff/2_1things/AEDA</text>
<text text-anchor="start" x="169" y="-196.5" font-family="Helvetica,sans-Serif" font-size="10.00">/FEUP&#45;AEDA&#45;Proj1/include</text>
<text text-anchor="middle" x="232.5" y="-185.5" font-family="Helvetica,sans-Serif" font-size="10.00">/museum.h</text>
</a>
</g>
</g>
<!-- Node1&#45;&gt;Node8 -->
<g id="edge14" class="edge">
<title>Node1&#45;&gt;Node8</title>
<path fill="none" stroke="midnightblue" d="M296.88,-347.13C281.33,-312.92 257.83,-261.23 243.94,-230.67"/>
<polygon fill="midnightblue" stroke="midnightblue" points="293.71,-348.63 301.04,-356.28 300.09,-345.73 293.71,-348.63"/>
</g>
<!-- Node2&#45;&gt;Node3 -->
<g id="edge2" class="edge">
<title>Node2&#45;&gt;Node3</title>
<path fill="none" stroke="midnightblue" d="M153.22,-177.63C224.04,-159 244.73,-160.21 312.5,-142 315.49,-141.2 318.53,-140.35 321.6,-139.48"/>
<polygon fill="midnightblue" stroke="midnightblue" points="152.13,-174.3 143.37,-180.26 153.93,-181.06 152.13,-174.3"/>
</g>
<!-- Node4 -->
<g id="node4" class="node">
<title>Node4</title>
<g id="a_node4"><a xlink:href="interfaces_8h.html" target="_top" xlink:title=" ">
<polygon fill="none" stroke="black" points="161,-0.5 161,-52.5 304,-52.5 304,-0.5 161,-0.5"/>
<text text-anchor="start" x="169" y="-40.5" font-family="Helvetica,sans-Serif" font-size="10.00">/home/joao/Documents</text>
<text text-anchor="start" x="169" y="-29.5" font-family="Helvetica,sans-Serif" font-size="10.00">/UniStuff/2_1things/AEDA</text>
<text text-anchor="start" x="169" y="-18.5" font-family="Helvetica,sans-Serif" font-size="10.00">/FEUP&#45;AEDA&#45;Proj1/include</text>
<text text-anchor="middle" x="232.5" y="-7.5" font-family="Helvetica,sans-Serif" font-size="10.00">/interfaces.h</text>
</a>
</g>
</g>
<!-- Node2&#45;&gt;Node4 -->
<g id="edge4" class="edge">
<title>Node2&#45;&gt;Node4</title>
<path fill="none" stroke="midnightblue" d="M91.37,-169.41C106.22,-145.47 127.96,-113.49 151.5,-89 164.23,-75.76 179.98,-63.13 194.2,-52.8"/>
<polygon fill="midnightblue" stroke="midnightblue" points="88.25,-167.79 86.02,-178.15 94.22,-171.44 88.25,-167.79"/>
</g>
<!-- Node5 -->
<g id="node5" class="node">
<title>Node5</title>
<g id="a_node5"><a xlink:href="museum__network_8h.html" target="_top" xlink:title=" ">
<polygon fill="none" stroke="black" points="161,-89.5 161,-141.5 304,-141.5 304,-89.5 161,-89.5"/>
<text text-anchor="start" x="169" y="-129.5" font-family="Helvetica,sans-Serif" font-size="10.00">/home/joao/Documents</text>
<text text-anchor="start" x="169" y="-118.5" font-family="Helvetica,sans-Serif" font-size="10.00">/UniStuff/2_1things/AEDA</text>
<text text-anchor="start" x="169" y="-107.5" font-family="Helvetica,sans-Serif" font-size="10.00">/FEUP&#45;AEDA&#45;Proj1/include</text>
<text text-anchor="middle" x="232.5" y="-96.5" font-family="Helvetica,sans-Serif" font-size="10.00">/museum_network.h</text>
</a>
</g>
</g>
<!-- Node2&#45;&gt;Node5 -->
<g id="edge5" class="edge">
<title>Node2&#45;&gt;Node5</title>
<path fill="none" stroke="midnightblue" d="M127.03,-173.49C146.26,-163.1 167.61,-151.57 186.04,-141.61"/>
<polygon fill="midnightblue" stroke="midnightblue" points="125.2,-170.5 118.07,-178.34 128.53,-176.66 125.2,-170.5"/>
</g>
<!-- Node3&#45;&gt;Node4 -->
<g id="edge3" class="edge">
<title>Node3&#45;&gt;Node4</title>
<path fill="none" stroke="midnightblue" d="M337.97,-84.49C318.74,-74.1 297.39,-62.57 278.96,-52.61"/>
<polygon fill="midnightblue" stroke="midnightblue" points="336.47,-87.66 346.93,-89.34 339.8,-81.5 336.47,-87.66"/>
</g>
<!-- Node5&#45;&gt;Node4 -->
<g id="edge6" class="edge">
<title>Node5&#45;&gt;Node4</title>
<path fill="none" stroke="midnightblue" d="M232.5,-79.19C232.5,-70.28 232.5,-60.9 232.5,-52.61"/>
<polygon fill="midnightblue" stroke="midnightblue" points="229,-79.34 232.5,-89.34 236,-79.34 229,-79.34"/>
</g>
<!-- Node6&#45;&gt;Node3 -->
<g id="edge8" class="edge">
<title>Node6&#45;&gt;Node3</title>
<path fill="none" stroke="midnightblue" d="M393.5,-168.19C393.5,-159.28 393.5,-149.9 393.5,-141.61"/>
<polygon fill="midnightblue" stroke="midnightblue" points="390,-168.34 393.5,-178.34 397,-168.34 390,-168.34"/>
</g>
<!-- Node6&#45;&gt;Node5 -->
<g id="edge9" class="edge">
<title>Node6&#45;&gt;Node5</title>
<path fill="none" stroke="midnightblue" d="M337.97,-173.49C318.74,-163.1 297.39,-151.57 278.96,-141.61"/>
<polygon fill="midnightblue" stroke="midnightblue" points="336.47,-176.66 346.93,-178.34 339.8,-170.5 336.47,-176.66"/>
</g>
<!-- Node7&#45;&gt;Node3 -->
<g id="edge12" class="edge">
<title>Node7&#45;&gt;Node3</title>
<path fill="none" stroke="midnightblue" d="M453.69,-260.16C461.75,-251.62 469.07,-241.75 473.5,-231 482.47,-209.22 483.91,-199.13 473.5,-178 466.3,-163.38 453.77,-151.27 440.74,-141.77"/>
<polygon fill="midnightblue" stroke="midnightblue" points="451.11,-257.79 446.47,-267.31 456.04,-262.76 451.11,-257.79"/>
</g>
<!-- Node7&#45;&gt;Node6 -->
<g id="edge11" class="edge">
<title>Node7&#45;&gt;Node6</title>
<path fill="none" stroke="midnightblue" d="M404.85,-257.48C402.89,-248.49 400.81,-238.99 398.98,-230.61"/>
<polygon fill="midnightblue" stroke="midnightblue" points="401.45,-258.31 407,-267.34 408.29,-256.82 401.45,-258.31"/>
</g>
<!-- Node8&#45;&gt;Node3 -->
<g id="edge15" class="edge">
<title>Node8&#45;&gt;Node3</title>
<path fill="none" stroke="midnightblue" d="M288.03,-173.49C307.26,-163.1 328.61,-151.57 347.04,-141.61"/>
<polygon fill="midnightblue" stroke="midnightblue" points="286.2,-170.5 279.07,-178.34 289.53,-176.66 286.2,-170.5"/>
</g>
<!-- Node8&#45;&gt;Node5 -->
<g id="edge16" class="edge">
<title>Node8&#45;&gt;Node5</title>
<path fill="none" stroke="midnightblue" d="M232.5,-168.19C232.5,-159.28 232.5,-149.9 232.5,-141.61"/>
<polygon fill="midnightblue" stroke="midnightblue" points="229,-168.34 232.5,-178.34 236,-168.34 229,-168.34"/>
</g>
</g>
</svg>
