<?xml version="1.0" encoding="UTF-8" standalone="no"?>
<!DOCTYPE svg PUBLIC "-//W3C//DTD SVG 1.1//EN"
 "http://www.w3.org/Graphics/SVG/1.1/DTD/svg11.dtd">
<!-- Generated by graphviz version 2.43.20190912.0211 (20190912.0211)
 -->
<!-- Title: /home/joao/Documents/UniStuff/2_1things/AEDA/FEUP&#45;AEDA&#45;Proj1/include/cards.h Pages: 1 -->
<svg width="618pt" height="173pt"
 viewBox="0.00 0.00 617.50 173.00" xmlns="http://www.w3.org/2000/svg" xmlns:xlink="http://www.w3.org/1999/xlink">
<g id="graph0" class="graph" transform="scale(1 1) rotate(0) translate(4 169)">
<title>/home/joao/Documents/UniStuff/2_1things/AEDA/FEUP&#45;AEDA&#45;Proj1/include/cards.h</title>
<!-- Node1 -->
<g id="node1" class="node">
<title>Node1</title>
<g id="a_node1"><a xlink:title=" ">
<polygon fill="#bfbfbf" stroke="black" points="193.5,-112.5 193.5,-164.5 336.5,-164.5 336.5,-112.5 193.5,-112.5"/>
<text text-anchor="start" x="201.5" y="-152.5" font-family="Helvetica,sans-Serif" font-size="10.00">/home/joao/Documents</text>
<text text-anchor="start" x="201.5" y="-141.5" font-family="Helvetica,sans-Serif" font-size="10.00">/UniStuff/2_1things/AEDA</text>
<text text-anchor="start" x="201.5" y="-130.5" font-family="Helvetica,sans-Serif" font-size="10.00">/FEUP&#45;AEDA&#45;Proj1/include</text>
<text text-anchor="middle" x="265" y="-119.5" font-family="Helvetica,sans-Serif" font-size="10.00">/cards.h</text>
</a>
</g>
</g>
<!-- Node2 -->
<g id="node2" class="node">
<title>Node2</title>
<g id="a_node2"><a xlink:title=" ">
<polygon fill="none" stroke="#bfbfbf" points="62.5,-0.5 62.5,-19.5 117.5,-19.5 117.5,-0.5 62.5,-0.5"/>
<text text-anchor="middle" x="90" y="-7.5" font-family="Helvetica,sans-Serif" font-size="10.00">fstream</text>
</a>
</g>
</g>
<!-- Node1&#45;&gt;Node2 -->
<g id="edge1" class="edge">
<title>Node1&#45;&gt;Node2</title>
<path fill="none" stroke="midnightblue" d="M193.27,-125.66C139.92,-115.22 73.59,-98.21 57,-76 45.48,-60.58 59.3,-40.53 72.42,-26.8"/>
<polygon fill="midnightblue" stroke="midnightblue" points="75.16,-29.02 79.87,-19.53 70.27,-24.01 75.16,-29.02"/>
</g>
<!-- Node3 -->
<g id="node3" class="node">
<title>Node3</title>
<g id="a_node3"><a xlink:title=" ">
<polygon fill="none" stroke="#bfbfbf" points="136,-0.5 136,-19.5 196,-19.5 196,-0.5 136,-0.5"/>
<text text-anchor="middle" x="166" y="-7.5" font-family="Helvetica,sans-Serif" font-size="10.00">iostream</text>
</a>
</g>
</g>
<!-- Node1&#45;&gt;Node3 -->
<g id="edge2" class="edge">
<title>Node1&#45;&gt;Node3</title>
<path fill="none" stroke="midnightblue" d="M247.12,-112.14C235.45,-95.86 219.7,-74.39 205,-56 197.25,-46.31 188.2,-35.82 180.77,-27.4"/>
<polygon fill="midnightblue" stroke="midnightblue" points="183.25,-24.93 173.98,-19.79 178.02,-29.58 183.25,-24.93"/>
</g>
<!-- Node4 -->
<g id="node4" class="node">
<title>Node4</title>
<g id="a_node4"><a xlink:title=" ">
<polygon fill="none" stroke="#bfbfbf" points="368,-0.5 368,-19.5 412,-19.5 412,-0.5 368,-0.5"/>
<text text-anchor="middle" x="390" y="-7.5" font-family="Helvetica,sans-Serif" font-size="10.00">string</text>
</a>
</g>
</g>
<!-- Node1&#45;&gt;Node4 -->
<g id="edge3" class="edge">
<title>Node1&#45;&gt;Node4</title>
<path fill="none" stroke="midnightblue" d="M326.01,-112.47C342.58,-103.15 359.19,-91.07 371,-76 381.41,-62.71 386.12,-43.88 388.25,-29.9"/>
<polygon fill="midnightblue" stroke="midnightblue" points="391.73,-30.28 389.46,-19.93 384.78,-29.44 391.73,-30.28"/>
</g>
<!-- Node5 -->
<g id="node5" class="node">
<title>Node5</title>
<g id="a_node5"><a xlink:title=" ">
<polygon fill="none" stroke="#bfbfbf" points="562.5,-56.5 562.5,-75.5 609.5,-75.5 609.5,-56.5 562.5,-56.5"/>
<text text-anchor="middle" x="586" y="-63.5" font-family="Helvetica,sans-Serif" font-size="10.00">vector</text>
</a>
</g>
</g>
<!-- Node1&#45;&gt;Node5 -->
<g id="edge4" class="edge">
<title>Node1&#45;&gt;Node5</title>
<path fill="none" stroke="midnightblue" d="M336.56,-123.38C392.59,-112.05 472.7,-95.28 552.07,-76.12"/>
<polygon fill="midnightblue" stroke="midnightblue" points="553.36,-79.41 562.25,-73.65 551.7,-72.61 553.36,-79.41"/>
</g>
<!-- Node6 -->
<g id="node6" class="node">
<title>Node6</title>
<g id="a_node6"><a xlink:href="address_8h.html" target="_top" xlink:title=" ">
<polygon fill="none" stroke="black" points="132,-56.5 132,-75.5 196,-75.5 196,-56.5 132,-56.5"/>
<text text-anchor="middle" x="164" y="-63.5" font-family="Helvetica,sans-Serif" font-size="10.00">address.h</text>
</a>
</g>
</g>
<!-- Node1&#45;&gt;Node6 -->
<g id="edge5" class="edge">
<title>Node1&#45;&gt;Node6</title>
<path fill="none" stroke="midnightblue" d="M229.11,-112.45C214.32,-102.13 197.71,-90.53 184.97,-81.64"/>
<polygon fill="midnightblue" stroke="midnightblue" points="186.66,-78.55 176.46,-75.7 182.65,-84.29 186.66,-78.55"/>
</g>
<!-- Node7 -->
<g id="node7" class="node">
<title>Node7</title>
<g id="a_node7"><a xlink:href="date_8h.html" target="_top" xlink:title=" ">
<polygon fill="none" stroke="black" points="66.5,-56.5 66.5,-75.5 113.5,-75.5 113.5,-56.5 66.5,-56.5"/>
<text text-anchor="middle" x="90" y="-63.5" font-family="Helvetica,sans-Serif" font-size="10.00">date.h</text>
</a>
</g>
</g>
<!-- Node1&#45;&gt;Node7 -->
<g id="edge9" class="edge">
<title>Node1&#45;&gt;Node7</title>
<path fill="none" stroke="midnightblue" d="M202.81,-112.45C174.91,-101.21 143.26,-88.45 120.59,-79.33"/>
<polygon fill="midnightblue" stroke="midnightblue" points="121.75,-76.02 111.17,-75.53 119.13,-82.51 121.75,-76.02"/>
</g>
<!-- Node9 -->
<g id="node9" class="node">
<title>Node9</title>
<g id="a_node9"><a xlink:href="exceptions_8h.html" target="_top" xlink:title=" ">
<polygon fill="none" stroke="black" points="418,-56.5 418,-75.5 544,-75.5 544,-56.5 418,-56.5"/>
<text text-anchor="middle" x="481" y="-63.5" font-family="Helvetica,sans-Serif" font-size="10.00">../include/exceptions.h</text>
</a>
</g>
</g>
<!-- Node1&#45;&gt;Node9 -->
<g id="edge13" class="edge">
<title>Node1&#45;&gt;Node9</title>
<path fill="none" stroke="midnightblue" d="M336.62,-114.12C372.99,-102.25 415.58,-88.35 445.03,-78.74"/>
<polygon fill="midnightblue" stroke="midnightblue" points="446.45,-81.96 454.87,-75.53 444.28,-75.3 446.45,-81.96"/>
</g>
<!-- Node11 -->
<g id="node11" class="node">
<title>Node11</title>
<g id="a_node11"><a xlink:href="utilities_8h.html" target="_top" xlink:title=" ">
<polygon fill="none" stroke="black" points="252,-56.5 252,-75.5 362,-75.5 362,-56.5 252,-56.5"/>
<text text-anchor="middle" x="307" y="-63.5" font-family="Helvetica,sans-Serif" font-size="10.00">../include/utilities.h</text>
</a>
</g>
</g>
<!-- Node1&#45;&gt;Node11 -->
<g id="edge16" class="edge">
<title>Node1&#45;&gt;Node11</title>
<path fill="none" stroke="midnightblue" d="M279.93,-112.45C285.48,-103.13 291.65,-92.77 296.69,-84.3"/>
<polygon fill="midnightblue" stroke="midnightblue" points="299.71,-86.08 301.82,-75.7 293.69,-82.5 299.71,-86.08"/>
</g>
<!-- Node6&#45;&gt;Node2 -->
<g id="edge6" class="edge">
<title>Node6&#45;&gt;Node2</title>
<path fill="none" stroke="midnightblue" d="M152.11,-56.32C140.85,-48.11 123.71,-35.6 110.29,-25.81"/>
<polygon fill="midnightblue" stroke="midnightblue" points="112.25,-22.9 102.11,-19.83 108.12,-28.56 112.25,-22.9"/>
</g>
<!-- Node6&#45;&gt;Node3 -->
<g id="edge7" class="edge">
<title>Node6&#45;&gt;Node3</title>
<path fill="none" stroke="midnightblue" d="M164.33,-56.08C164.59,-49.01 164.97,-38.86 165.3,-29.99"/>
<polygon fill="midnightblue" stroke="midnightblue" points="168.8,-29.87 165.68,-19.75 161.81,-29.61 168.8,-29.87"/>
</g>
<!-- Node6&#45;&gt;Node4 -->
<g id="edge8" class="edge">
<title>Node6&#45;&gt;Node4</title>
<path fill="none" stroke="midnightblue" d="M196.22,-58.14C233.03,-50.18 295.28,-36.33 357.68,-20.24"/>
<polygon fill="midnightblue" stroke="midnightblue" points="358.89,-23.54 367.69,-17.64 357.13,-16.77 358.89,-23.54"/>
</g>
<!-- Node7&#45;&gt;Node2 -->
<g id="edge11" class="edge">
<title>Node7&#45;&gt;Node2</title>
<path fill="none" stroke="midnightblue" d="M90,-56.08C90,-49.01 90,-38.86 90,-29.99"/>
<polygon fill="midnightblue" stroke="midnightblue" points="93.5,-29.75 90,-19.75 86.5,-29.75 93.5,-29.75"/>
</g>
<!-- Node7&#45;&gt;Node3 -->
<g id="edge12" class="edge">
<title>Node7&#45;&gt;Node3</title>
<path fill="none" stroke="midnightblue" d="M102.21,-56.32C113.78,-48.11 131.38,-35.6 145.16,-25.81"/>
<polygon fill="midnightblue" stroke="midnightblue" points="147.44,-28.48 153.57,-19.83 143.39,-22.77 147.44,-28.48"/>
</g>
<!-- Node8 -->
<g id="node8" class="node">
<title>Node8</title>
<g id="a_node8"><a xlink:title=" ">
<polygon fill="none" stroke="#bfbfbf" points="0,-0.5 0,-19.5 44,-19.5 44,-0.5 0,-0.5"/>
<text text-anchor="middle" x="22" y="-7.5" font-family="Helvetica,sans-Serif" font-size="10.00">ctime</text>
</a>
</g>
</g>
<!-- Node7&#45;&gt;Node8 -->
<g id="edge10" class="edge">
<title>Node7&#45;&gt;Node8</title>
<path fill="none" stroke="midnightblue" d="M79.07,-56.32C68.83,-48.18 53.28,-35.84 41,-26.09"/>
<polygon fill="midnightblue" stroke="midnightblue" points="43.13,-23.31 33.12,-19.83 38.78,-28.79 43.13,-23.31"/>
</g>
<!-- Node9&#45;&gt;Node4 -->
<g id="edge15" class="edge">
<title>Node9&#45;&gt;Node4</title>
<path fill="none" stroke="midnightblue" d="M466.38,-56.32C452.05,-47.82 429.99,-34.73 413.25,-24.8"/>
<polygon fill="midnightblue" stroke="midnightblue" points="414.97,-21.75 404.58,-19.65 411.4,-27.77 414.97,-21.75"/>
</g>
<!-- Node10 -->
<g id="node10" class="node">
<title>Node10</title>
<g id="a_node10"><a xlink:title=" ">
<polygon fill="none" stroke="#bfbfbf" points="448.5,-0.5 448.5,-19.5 513.5,-19.5 513.5,-0.5 448.5,-0.5"/>
<text text-anchor="middle" x="481" y="-7.5" font-family="Helvetica,sans-Serif" font-size="10.00">stdexcept</text>
</a>
</g>
</g>
<!-- Node9&#45;&gt;Node10 -->
<g id="edge14" class="edge">
<title>Node9&#45;&gt;Node10</title>
<path fill="none" stroke="midnightblue" d="M481,-56.08C481,-49.01 481,-38.86 481,-29.99"/>
<polygon fill="midnightblue" stroke="midnightblue" points="484.5,-29.75 481,-19.75 477.5,-29.75 484.5,-29.75"/>
</g>
<!-- Node11&#45;&gt;Node2 -->
<g id="edge19" class="edge">
<title>Node11&#45;&gt;Node2</title>
<path fill="none" stroke="midnightblue" d="M272.62,-56.44C233.06,-46.6 168.34,-30.5 127.52,-20.34"/>
<polygon fill="midnightblue" stroke="midnightblue" points="128.23,-16.91 117.68,-17.89 126.54,-23.7 128.23,-16.91"/>
</g>
<!-- Node11&#45;&gt;Node3 -->
<g id="edge18" class="edge">
<title>Node11&#45;&gt;Node3</title>
<path fill="none" stroke="midnightblue" d="M284.66,-56.44C261.25,-47.48 224.26,-33.31 197.81,-23.18"/>
<polygon fill="midnightblue" stroke="midnightblue" points="198.83,-19.82 188.24,-19.52 196.32,-26.36 198.83,-19.82"/>
</g>
<!-- Node11&#45;&gt;Node4 -->
<g id="edge17" class="edge">
<title>Node11&#45;&gt;Node4</title>
<path fill="none" stroke="midnightblue" d="M320.34,-56.32C333.16,-47.98 352.78,-35.21 367.94,-25.35"/>
<polygon fill="midnightblue" stroke="midnightblue" points="370.22,-28.04 376.7,-19.65 366.41,-22.17 370.22,-28.04"/>
</g>
<!-- Node12 -->
<g id="node12" class="node">
<title>Node12</title>
<g id="a_node12"><a xlink:title=" ">
<polygon fill="none" stroke="#bfbfbf" points="296,-0.5 296,-19.5 350,-19.5 350,-0.5 296,-0.5"/>
<text text-anchor="middle" x="323" y="-7.5" font-family="Helvetica,sans-Serif" font-size="10.00">istream</text>
</a>
</g>
</g>
<!-- Node11&#45;&gt;Node12 -->
<g id="edge20" class="edge">
<title>Node11&#45;&gt;Node12</title>
<path fill="none" stroke="midnightblue" d="M309.64,-56.08C311.79,-48.85 314.88,-38.41 317.55,-29.4"/>
<polygon fill="midnightblue" stroke="midnightblue" points="320.92,-30.33 320.41,-19.75 314.21,-28.34 320.92,-30.33"/>
</g>
<!-- Node13 -->
<g id="node13" class="node">
<title>Node13</title>
<g id="a_node13"><a xlink:title=" ">
<polygon fill="none" stroke="#bfbfbf" points="214,-0.5 214,-19.5 278,-19.5 278,-0.5 214,-0.5"/>
<text text-anchor="middle" x="246" y="-7.5" font-family="Helvetica,sans-Serif" font-size="10.00">sys/stat.h</text>
</a>
</g>
</g>
<!-- Node11&#45;&gt;Node13 -->
<g id="edge21" class="edge">
<title>Node11&#45;&gt;Node13</title>
<path fill="none" stroke="midnightblue" d="M297.2,-56.32C288.18,-48.34 274.59,-36.31 263.68,-26.65"/>
<polygon fill="midnightblue" stroke="midnightblue" points="265.79,-23.84 255.98,-19.83 261.15,-29.08 265.79,-23.84"/>
</g>
</g>
</svg>
