<?xml version="1.0" encoding="UTF-8" standalone="no"?>
<!DOCTYPE svg PUBLIC "-//W3C//DTD SVG 1.1//EN"
 "http://www.w3.org/Graphics/SVG/1.1/DTD/svg11.dtd">
<!-- Generated by graphviz version 2.43.20190912.0211 (20190912.0211)
 -->
<!-- Title: Card Pages: 1 -->
<svg width="314pt" height="435pt"
 viewBox="0.00 0.00 314.00 435.00" xmlns="http://www.w3.org/2000/svg" xmlns:xlink="http://www.w3.org/1999/xlink">
<g id="graph0" class="graph" transform="scale(1 1) rotate(0) translate(4 431)">
<title>Card</title>
<!-- Node1 -->
<g id="node1" class="node">
<title>Node1</title>
<g id="a_node1"><a xlink:title="Abstract class to save and handle registered users information and their cards.">
<polygon fill="#bfbfbf" stroke="black" points="100.5,-116.5 100.5,-426.5 233.5,-426.5 233.5,-116.5 100.5,-116.5"/>
<text text-anchor="middle" x="167" y="-414.5" font-family="Helvetica,sans-Serif" font-size="10.00">Card</text>
<polyline fill="none" stroke="black" points="100.5,-407.5 233.5,-407.5 "/>
<text text-anchor="start" x="108.5" y="-395.5" font-family="Helvetica,sans-Serif" font-size="10.00">&#45; cc</text>
<text text-anchor="start" x="108.5" y="-384.5" font-family="Helvetica,sans-Serif" font-size="10.00">&#45; name</text>
<text text-anchor="start" x="108.5" y="-373.5" font-family="Helvetica,sans-Serif" font-size="10.00">&#45; contact</text>
<text text-anchor="start" x="108.5" y="-362.5" font-family="Helvetica,sans-Serif" font-size="10.00">&#45; address</text>
<text text-anchor="start" x="108.5" y="-351.5" font-family="Helvetica,sans-Serif" font-size="10.00">&#45; birth_date</text>
<text text-anchor="start" x="108.5" y="-340.5" font-family="Helvetica,sans-Serif" font-size="10.00">&#45; creation_date</text>
<text text-anchor="start" x="108.5" y="-329.5" font-family="Helvetica,sans-Serif" font-size="10.00">&#45; expiration_date</text>
<polyline fill="none" stroke="black" points="100.5,-322.5 233.5,-322.5 "/>
<text text-anchor="start" x="108.5" y="-310.5" font-family="Helvetica,sans-Serif" font-size="10.00">+ Card()</text>
<text text-anchor="start" x="108.5" y="-299.5" font-family="Helvetica,sans-Serif" font-size="10.00">+ Card()</text>
<text text-anchor="start" x="108.5" y="-288.5" font-family="Helvetica,sans-Serif" font-size="10.00">+ ~Card()</text>
<text text-anchor="start" x="108.5" y="-277.5" font-family="Helvetica,sans-Serif" font-size="10.00">+ isvalid()</text>
<text text-anchor="start" x="108.5" y="-266.5" font-family="Helvetica,sans-Serif" font-size="10.00">+ renew()</text>
<text text-anchor="start" x="108.5" y="-255.5" font-family="Helvetica,sans-Serif" font-size="10.00">+ set_contact()</text>
<text text-anchor="start" x="108.5" y="-244.5" font-family="Helvetica,sans-Serif" font-size="10.00">+ set_name()</text>
<text text-anchor="start" x="108.5" y="-233.5" font-family="Helvetica,sans-Serif" font-size="10.00">+ set_birth_date()</text>
<text text-anchor="start" x="108.5" y="-222.5" font-family="Helvetica,sans-Serif" font-size="10.00">+ set_address()</text>
<text text-anchor="start" x="108.5" y="-211.5" font-family="Helvetica,sans-Serif" font-size="10.00">+ get_cc()</text>
<text text-anchor="start" x="108.5" y="-200.5" font-family="Helvetica,sans-Serif" font-size="10.00">+ get_contact()</text>
<text text-anchor="start" x="108.5" y="-189.5" font-family="Helvetica,sans-Serif" font-size="10.00">+ get_name()</text>
<text text-anchor="start" x="108.5" y="-178.5" font-family="Helvetica,sans-Serif" font-size="10.00">+ get_creation_date()</text>
<text text-anchor="start" x="108.5" y="-167.5" font-family="Helvetica,sans-Serif" font-size="10.00">+ get_birth_date()</text>
<text text-anchor="start" x="108.5" y="-156.5" font-family="Helvetica,sans-Serif" font-size="10.00">+ get_expiration_date()</text>
<text text-anchor="start" x="108.5" y="-145.5" font-family="Helvetica,sans-Serif" font-size="10.00">+ get_address()</text>
<text text-anchor="start" x="108.5" y="-134.5" font-family="Helvetica,sans-Serif" font-size="10.00">+ get_type()</text>
<text text-anchor="start" x="108.5" y="-123.5" font-family="Helvetica,sans-Serif" font-size="10.00">+ cin_read_card()</text>
</a>
</g>
</g>
<!-- Node2 -->
<g id="node2" class="node">
<title>Node2</title>
<g id="a_node2"><a xlink:href="classIndividualCard.html" target="_top" xlink:title="Saves and handles a normal user&#39;s card and information.">
<polygon fill="none" stroke="black" points="0,-0.5 0,-79.5 106,-79.5 106,-0.5 0,-0.5"/>
<text text-anchor="middle" x="53" y="-67.5" font-family="Helvetica,sans-Serif" font-size="10.00">IndividualCard</text>
<polyline fill="none" stroke="black" points="0,-60.5 106,-60.5 "/>
<text text-anchor="middle" x="53" y="-48.5" font-family="Helvetica,sans-Serif" font-size="10.00"> </text>
<polyline fill="none" stroke="black" points="0,-41.5 106,-41.5 "/>
<text text-anchor="start" x="8" y="-29.5" font-family="Helvetica,sans-Serif" font-size="10.00">+ IndividualCard()</text>
<text text-anchor="start" x="8" y="-18.5" font-family="Helvetica,sans-Serif" font-size="10.00">+ IndividualCard()</text>
<text text-anchor="start" x="8" y="-7.5" font-family="Helvetica,sans-Serif" font-size="10.00">+ get_type()</text>
</a>
</g>
</g>
<!-- Node1&#45;&gt;Node2 -->
<g id="edge1" class="edge">
<title>Node1&#45;&gt;Node2</title>
<path fill="none" stroke="midnightblue" d="M95.83,-127.23C87.25,-109.96 79.13,-93.6 72.31,-79.88"/>
<polygon fill="none" stroke="midnightblue" points="92.77,-128.94 100.36,-136.33 99.04,-125.82 92.77,-128.94"/>
</g>
<!-- Node3 -->
<g id="node3" class="node">
<title>Node3</title>
<g id="a_node3"><a xlink:href="classSilverCard.html" target="_top" xlink:title="Saves and handles a senior user&#39;s card and information.">
<polygon fill="none" stroke="black" points="124,-0.5 124,-79.5 210,-79.5 210,-0.5 124,-0.5"/>
<text text-anchor="middle" x="167" y="-67.5" font-family="Helvetica,sans-Serif" font-size="10.00">SilverCard</text>
<polyline fill="none" stroke="black" points="124,-60.5 210,-60.5 "/>
<text text-anchor="middle" x="167" y="-48.5" font-family="Helvetica,sans-Serif" font-size="10.00"> </text>
<polyline fill="none" stroke="black" points="124,-41.5 210,-41.5 "/>
<text text-anchor="start" x="132" y="-29.5" font-family="Helvetica,sans-Serif" font-size="10.00">+ SilverCard()</text>
<text text-anchor="start" x="132" y="-18.5" font-family="Helvetica,sans-Serif" font-size="10.00">+ SilverCard()</text>
<text text-anchor="start" x="132" y="-7.5" font-family="Helvetica,sans-Serif" font-size="10.00">+ get_type()</text>
</a>
</g>
</g>
<!-- Node1&#45;&gt;Node3 -->
<g id="edge2" class="edge">
<title>Node1&#45;&gt;Node3</title>
<path fill="none" stroke="midnightblue" d="M167,-106.32C167,-96.77 167,-87.78 167,-79.7"/>
<polygon fill="none" stroke="midnightblue" points="163.5,-106.46 167,-116.46 170.5,-106.46 163.5,-106.46"/>
</g>
<!-- Node4 -->
<g id="node4" class="node">
<title>Node4</title>
<g id="a_node4"><a xlink:href="classUniCard.html" target="_top" xlink:title="Saves and handles a university student&#39;s card and information.">
<polygon fill="none" stroke="black" points="228,-0.5 228,-79.5 306,-79.5 306,-0.5 228,-0.5"/>
<text text-anchor="middle" x="267" y="-67.5" font-family="Helvetica,sans-Serif" font-size="10.00">UniCard</text>
<polyline fill="none" stroke="black" points="228,-60.5 306,-60.5 "/>
<text text-anchor="middle" x="267" y="-48.5" font-family="Helvetica,sans-Serif" font-size="10.00"> </text>
<polyline fill="none" stroke="black" points="228,-41.5 306,-41.5 "/>
<text text-anchor="start" x="236" y="-29.5" font-family="Helvetica,sans-Serif" font-size="10.00">+ UniCard()</text>
<text text-anchor="start" x="236" y="-18.5" font-family="Helvetica,sans-Serif" font-size="10.00">+ UniCard()</text>
<text text-anchor="start" x="236" y="-7.5" font-family="Helvetica,sans-Serif" font-size="10.00">+ get_type()</text>
</a>
</g>
</g>
<!-- Node1&#45;&gt;Node4 -->
<g id="edge3" class="edge">
<title>Node1&#45;&gt;Node4</title>
<path fill="none" stroke="midnightblue" d="M237.61,-108.46C242.13,-98.07 246.39,-88.3 250.18,-79.6"/>
<polygon fill="none" stroke="midnightblue" points="234.35,-107.17 233.56,-117.74 240.77,-109.97 234.35,-107.17"/>
</g>
</g>
</svg>
