<?xml version="1.0" encoding="UTF-8" standalone="no"?>
<!DOCTYPE svg PUBLIC "-//W3C//DTD SVG 1.1//EN"
 "http://www.w3.org/Graphics/SVG/1.1/DTD/svg11.dtd">
<!-- Generated by graphviz version 2.43.20190912.0211 (20190912.0211)
 -->
<!-- Title: Menu Pages: 1 -->
<svg width="459pt" height="485pt"
 viewBox="0.00 0.00 458.50 485.00" xmlns="http://www.w3.org/2000/svg" xmlns:xlink="http://www.w3.org/1999/xlink">
<g id="graph0" class="graph" transform="scale(1 1) rotate(0) translate(4 481)">
<title>Menu</title>
<!-- Node1 -->
<g id="node1" class="node">
<title>Node1</title>
<g id="a_node1"><a xlink:title=" ">
<polygon fill="#bfbfbf" stroke="black" points="226.5,-364.5 226.5,-476.5 310.5,-476.5 310.5,-364.5 226.5,-364.5"/>
<text text-anchor="middle" x="268.5" y="-464.5" font-family="Helvetica,sans-Serif" font-size="10.00">Menu</text>
<polyline fill="none" stroke="black" points="226.5,-457.5 310.5,-457.5 "/>
<text text-anchor="start" x="234.5" y="-445.5" font-family="Helvetica,sans-Serif" font-size="10.00"># title</text>
<polyline fill="none" stroke="black" points="226.5,-438.5 310.5,-438.5 "/>
<text text-anchor="start" x="234.5" y="-426.5" font-family="Helvetica,sans-Serif" font-size="10.00">+ Menu()</text>
<text text-anchor="start" x="234.5" y="-415.5" font-family="Helvetica,sans-Serif" font-size="10.00">+ ~Menu()</text>
<text text-anchor="start" x="234.5" y="-404.5" font-family="Helvetica,sans-Serif" font-size="10.00">+ Menu()</text>
<text text-anchor="start" x="234.5" y="-393.5" font-family="Helvetica,sans-Serif" font-size="10.00">+ getTitle()</text>
<text text-anchor="start" x="234.5" y="-382.5" font-family="Helvetica,sans-Serif" font-size="10.00">+ operator()()</text>
<text text-anchor="start" x="234.5" y="-371.5" font-family="Helvetica,sans-Serif" font-size="10.00">+ show()</text>
</a>
</g>
</g>
<!-- Node2 -->
<g id="node2" class="node">
<title>Node2</title>
<g id="a_node2"><a xlink:href="classMenuFilter.html" target="_top" xlink:title=" ">
<polygon fill="none" stroke="black" points="89,-226.5 89,-327.5 196,-327.5 196,-226.5 89,-226.5"/>
<text text-anchor="middle" x="142.5" y="-315.5" font-family="Helvetica,sans-Serif" font-size="10.00">MenuFilter&lt; Arg &gt;</text>
<polyline fill="none" stroke="black" points="89,-308.5 196,-308.5 "/>
<text text-anchor="middle" x="142.5" y="-296.5" font-family="Helvetica,sans-Serif" font-size="10.00"> </text>
<polyline fill="none" stroke="black" points="89,-289.5 196,-289.5 "/>
<text text-anchor="start" x="97" y="-277.5" font-family="Helvetica,sans-Serif" font-size="10.00">+ MenuFilter()</text>
<text text-anchor="start" x="97" y="-266.5" font-family="Helvetica,sans-Serif" font-size="10.00">+ ~MenuFilter()</text>
<text text-anchor="start" x="97" y="-255.5" font-family="Helvetica,sans-Serif" font-size="10.00">+ MenuFilter()</text>
<text text-anchor="start" x="97" y="-244.5" font-family="Helvetica,sans-Serif" font-size="10.00">+ show()</text>
<text text-anchor="start" x="97" y="-233.5" font-family="Helvetica,sans-Serif" font-size="10.00">+ show()</text>
</a>
</g>
</g>
<!-- Node1&#45;&gt;Node2 -->
<g id="edge1" class="edge">
<title>Node1&#45;&gt;Node2</title>
<path fill="none" stroke="midnightblue" d="M219.53,-364.51C208.69,-352.33 197.27,-339.5 186.63,-327.56"/>
<polygon fill="none" stroke="midnightblue" points="216.93,-366.85 226.19,-371.99 222.16,-362.19 216.93,-366.85"/>
</g>
<!-- Node5 -->
<g id="node5" class="node">
<title>Node5</title>
<g id="a_node5"><a xlink:href="classMenuOptions.html" target="_top" xlink:title=" ">
<polygon fill="none" stroke="black" points="214.5,-226.5 214.5,-327.5 322.5,-327.5 322.5,-226.5 214.5,-226.5"/>
<text text-anchor="middle" x="268.5" y="-315.5" font-family="Helvetica,sans-Serif" font-size="10.00">MenuOptions</text>
<polyline fill="none" stroke="black" points="214.5,-308.5 322.5,-308.5 "/>
<text text-anchor="start" x="222.5" y="-296.5" font-family="Helvetica,sans-Serif" font-size="10.00"># options</text>
<polyline fill="none" stroke="black" points="214.5,-289.5 322.5,-289.5 "/>
<text text-anchor="start" x="222.5" y="-277.5" font-family="Helvetica,sans-Serif" font-size="10.00">+ MenuOptions()</text>
<text text-anchor="start" x="222.5" y="-266.5" font-family="Helvetica,sans-Serif" font-size="10.00">+ ~MenuOptions()</text>
<text text-anchor="start" x="222.5" y="-255.5" font-family="Helvetica,sans-Serif" font-size="10.00">+ MenuOptions()</text>
<text text-anchor="start" x="222.5" y="-244.5" font-family="Helvetica,sans-Serif" font-size="10.00">+ getMessage()</text>
<text text-anchor="start" x="222.5" y="-233.5" font-family="Helvetica,sans-Serif" font-size="10.00">+ show()</text>
</a>
</g>
</g>
<!-- Node1&#45;&gt;Node5 -->
<g id="edge4" class="edge">
<title>Node1&#45;&gt;Node5</title>
<path fill="none" stroke="midnightblue" d="M268.5,-354.34C268.5,-345.38 268.5,-336.29 268.5,-327.66"/>
<polygon fill="none" stroke="midnightblue" points="265,-354.39 268.5,-364.39 272,-354.39 265,-354.39"/>
</g>
<!-- Node6 -->
<g id="node6" class="node">
<title>Node6</title>
<g id="a_node6"><a xlink:href="classMenuSelelect.html" target="_top" xlink:title=" ">
<polygon fill="none" stroke="black" points="340.5,-232 340.5,-322 450.5,-322 450.5,-232 340.5,-232"/>
<text text-anchor="middle" x="395.5" y="-310" font-family="Helvetica,sans-Serif" font-size="10.00">MenuSelelect</text>
<polyline fill="none" stroke="black" points="340.5,-303 450.5,-303 "/>
<text text-anchor="start" x="348.5" y="-291" font-family="Helvetica,sans-Serif" font-size="10.00">&#45; func</text>
<polyline fill="none" stroke="black" points="340.5,-284 450.5,-284 "/>
<text text-anchor="start" x="348.5" y="-272" font-family="Helvetica,sans-Serif" font-size="10.00">+ MenuSelelect()</text>
<text text-anchor="start" x="348.5" y="-261" font-family="Helvetica,sans-Serif" font-size="10.00">+ ~MenuSelelect()</text>
<text text-anchor="start" x="348.5" y="-250" font-family="Helvetica,sans-Serif" font-size="10.00">+ MenuSelelect()</text>
<text text-anchor="start" x="348.5" y="-239" font-family="Helvetica,sans-Serif" font-size="10.00">+ show()</text>
</a>
</g>
</g>
<!-- Node1&#45;&gt;Node6 -->
<g id="edge5" class="edge">
<title>Node1&#45;&gt;Node6</title>
<path fill="none" stroke="midnightblue" d="M317.73,-364.65C330.4,-350.53 343.87,-335.53 355.97,-322.04"/>
<polygon fill="none" stroke="midnightblue" points="314.86,-362.6 310.79,-372.38 320.07,-367.28 314.86,-362.6"/>
</g>
<!-- Node3 -->
<g id="node3" class="node">
<title>Node3</title>
<g id="a_node3"><a xlink:href="classMenuOptionsFilter.html" target="_top" xlink:title=" ">
<polygon fill="none" stroke="black" points="0,-0.5 0,-189.5 133,-189.5 133,-0.5 0,-0.5"/>
<text text-anchor="start" x="8" y="-177.5" font-family="Helvetica,sans-Serif" font-size="10.00">MenuOptionsFilter&lt;</text>
<text text-anchor="middle" x="66.5" y="-166.5" font-family="Helvetica,sans-Serif" font-size="10.00"> Arg &gt;</text>
<polyline fill="none" stroke="black" points="0,-159.5 133,-159.5 "/>
<text text-anchor="start" x="8" y="-147.5" font-family="Helvetica,sans-Serif" font-size="10.00">&#45; argument</text>
<text text-anchor="start" x="8" y="-136.5" font-family="Helvetica,sans-Serif" font-size="10.00">&#45; start_func</text>
<text text-anchor="start" x="8" y="-125.5" font-family="Helvetica,sans-Serif" font-size="10.00">&#45; exit_func</text>
<text text-anchor="start" x="8" y="-114.5" font-family="Helvetica,sans-Serif" font-size="10.00">&#45; options</text>
<text text-anchor="start" x="8" y="-103.5" font-family="Helvetica,sans-Serif" font-size="10.00">&#45; options_backup</text>
<text text-anchor="start" x="8" y="-92.5" font-family="Helvetica,sans-Serif" font-size="10.00">&#45; select_one_menu</text>
<text text-anchor="start" x="8" y="-81.5" font-family="Helvetica,sans-Serif" font-size="10.00">&#45; repeat_menus_vec</text>
<polyline fill="none" stroke="black" points="0,-74.5 133,-74.5 "/>
<text text-anchor="start" x="8" y="-62.5" font-family="Helvetica,sans-Serif" font-size="10.00">+ MenuOptionsFilter()</text>
<text text-anchor="start" x="8" y="-51.5" font-family="Helvetica,sans-Serif" font-size="10.00">+ ~MenuOptionsFilter()</text>
<text text-anchor="start" x="8" y="-40.5" font-family="Helvetica,sans-Serif" font-size="10.00">+ MenuOptionsFilter()</text>
<text text-anchor="start" x="8" y="-29.5" font-family="Helvetica,sans-Serif" font-size="10.00">+ getMessage()</text>
<text text-anchor="start" x="8" y="-18.5" font-family="Helvetica,sans-Serif" font-size="10.00">+ show()</text>
<text text-anchor="start" x="8" y="-7.5" font-family="Helvetica,sans-Serif" font-size="10.00">+ show()</text>
</a>
</g>
</g>
<!-- Node2&#45;&gt;Node3 -->
<g id="edge2" class="edge">
<title>Node2&#45;&gt;Node3</title>
<path fill="none" stroke="midnightblue" d="M117.59,-217C113.88,-208.22 109.98,-198.99 106.06,-189.7"/>
<polygon fill="none" stroke="midnightblue" points="114.42,-218.49 121.53,-226.34 120.87,-215.76 114.42,-218.49"/>
</g>
<!-- Node4 -->
<g id="node4" class="node">
<title>Node4</title>
<g id="a_node4"><a xlink:href="classMenuSelelectFilter.html" target="_top" xlink:title=" ">
<polygon fill="none" stroke="black" points="151.5,-44.5 151.5,-145.5 285.5,-145.5 285.5,-44.5 151.5,-44.5"/>
<text text-anchor="start" x="159.5" y="-133.5" font-family="Helvetica,sans-Serif" font-size="10.00">MenuSelelectFilter</text>
<text text-anchor="middle" x="218.5" y="-122.5" font-family="Helvetica,sans-Serif" font-size="10.00">&lt; Arg &gt;</text>
<polyline fill="none" stroke="black" points="151.5,-115.5 285.5,-115.5 "/>
<text text-anchor="start" x="159.5" y="-103.5" font-family="Helvetica,sans-Serif" font-size="10.00">&#45; func</text>
<polyline fill="none" stroke="black" points="151.5,-96.5 285.5,-96.5 "/>
<text text-anchor="start" x="159.5" y="-84.5" font-family="Helvetica,sans-Serif" font-size="10.00">+ MenuSelelectFilter()</text>
<text text-anchor="start" x="159.5" y="-73.5" font-family="Helvetica,sans-Serif" font-size="10.00">+ ~MenuSelelectFilter()</text>
<text text-anchor="start" x="159.5" y="-62.5" font-family="Helvetica,sans-Serif" font-size="10.00">+ MenuSelelectFilter()</text>
<text text-anchor="start" x="159.5" y="-51.5" font-family="Helvetica,sans-Serif" font-size="10.00">+ show()</text>
</a>
</g>
</g>
<!-- Node2&#45;&gt;Node4 -->
<g id="edge3" class="edge">
<title>Node2&#45;&gt;Node4</title>
<path fill="none" stroke="midnightblue" d="M167.42,-216.97C177.19,-193.85 188.26,-167.61 197.6,-145.5"/>
<polygon fill="none" stroke="midnightblue" points="164.13,-215.76 163.47,-226.34 170.58,-218.49 164.13,-215.76"/>
</g>
</g>
</svg>
