<?xml version="1.0" encoding="UTF-8" standalone="no"?>
<!DOCTYPE svg PUBLIC "-//W3C//DTD SVG 1.1//EN"
 "http://www.w3.org/Graphics/SVG/1.1/DTD/svg11.dtd">
<!-- Generated by graphviz version 2.43.20190912.0211 (20190912.0211)
 -->
<!-- Title: Museum Pages: 1 -->
<svg width="216pt" height="391pt"
 viewBox="0.00 0.00 215.50 391.00" xmlns="http://www.w3.org/2000/svg" xmlns:xlink="http://www.w3.org/1999/xlink">
<g id="graph0" class="graph" transform="scale(1 1) rotate(0) translate(4 387)">
<title>Museum</title>
<!-- Node1 -->
<g id="node1" class="node">
<title>Node1</title>
<g id="a_node1"><a xlink:title="Class that represents the Museums associated with our Network.">
<polygon fill="#bfbfbf" stroke="black" points="49,-0.5 49,-178.5 174,-178.5 174,-0.5 49,-0.5"/>
<text text-anchor="middle" x="111.5" y="-166.5" font-family="Helvetica,sans-Serif" font-size="10.00">Museum</text>
<polyline fill="none" stroke="black" points="49,-159.5 174,-159.5 "/>
<text text-anchor="start" x="57" y="-147.5" font-family="Helvetica,sans-Serif" font-size="10.00">&#45; name</text>
<text text-anchor="start" x="57" y="-136.5" font-family="Helvetica,sans-Serif" font-size="10.00">&#45; entry_fee</text>
<polyline fill="none" stroke="black" points="49,-129.5 174,-129.5 "/>
<text text-anchor="start" x="57" y="-117.5" font-family="Helvetica,sans-Serif" font-size="10.00">+ Museum()</text>
<text text-anchor="start" x="57" y="-106.5" font-family="Helvetica,sans-Serif" font-size="10.00">+ Museum()</text>
<text text-anchor="start" x="57" y="-95.5" font-family="Helvetica,sans-Serif" font-size="10.00">+ ~Museum()</text>
<text text-anchor="start" x="57" y="-84.5" font-family="Helvetica,sans-Serif" font-size="10.00">+ get_name()</text>
<text text-anchor="start" x="57" y="-73.5" font-family="Helvetica,sans-Serif" font-size="10.00">+ get_open()</text>
<text text-anchor="start" x="57" y="-62.5" font-family="Helvetica,sans-Serif" font-size="10.00">+ get_close()</text>
<text text-anchor="start" x="57" y="-51.5" font-family="Helvetica,sans-Serif" font-size="10.00">+ get_fee()</text>
<text text-anchor="start" x="57" y="-40.5" font-family="Helvetica,sans-Serif" font-size="10.00">+ get_address()</text>
<text text-anchor="start" x="57" y="-29.5" font-family="Helvetica,sans-Serif" font-size="10.00">+ operator==()</text>
<text text-anchor="start" x="57" y="-18.5" font-family="Helvetica,sans-Serif" font-size="10.00">+ operator!=()</text>
<text text-anchor="start" x="57" y="-7.5" font-family="Helvetica,sans-Serif" font-size="10.00">+ cin_read_museum()</text>
</a>
</g>
</g>
<!-- Node2 -->
<g id="node2" class="node">
<title>Node2</title>
<g id="a_node2"><a xlink:href="classAddress.html" target="_top" xlink:title="Class that saves and handles address information in our project.">
<polygon fill="none" stroke="black" points="0,-237.5 0,-382.5 111,-382.5 111,-237.5 0,-237.5"/>
<text text-anchor="middle" x="55.5" y="-370.5" font-family="Helvetica,sans-Serif" font-size="10.00">Address</text>
<polyline fill="none" stroke="black" points="0,-363.5 111,-363.5 "/>
<text text-anchor="start" x="8" y="-351.5" font-family="Helvetica,sans-Serif" font-size="10.00">&#45; street</text>
<text text-anchor="start" x="8" y="-340.5" font-family="Helvetica,sans-Serif" font-size="10.00">&#45; zipCode</text>
<text text-anchor="start" x="8" y="-329.5" font-family="Helvetica,sans-Serif" font-size="10.00">&#45; region</text>
<polyline fill="none" stroke="black" points="0,-322.5 111,-322.5 "/>
<text text-anchor="start" x="8" y="-310.5" font-family="Helvetica,sans-Serif" font-size="10.00">+ Address()</text>
<text text-anchor="start" x="8" y="-299.5" font-family="Helvetica,sans-Serif" font-size="10.00">+ Address()</text>
<text text-anchor="start" x="8" y="-288.5" font-family="Helvetica,sans-Serif" font-size="10.00">+ Address()</text>
<text text-anchor="start" x="8" y="-277.5" font-family="Helvetica,sans-Serif" font-size="10.00">+ getStreet()</text>
<text text-anchor="start" x="8" y="-266.5" font-family="Helvetica,sans-Serif" font-size="10.00">+ getZipCode()</text>
<text text-anchor="start" x="8" y="-255.5" font-family="Helvetica,sans-Serif" font-size="10.00">+ getRegion()</text>
<text text-anchor="start" x="8" y="-244.5" font-family="Helvetica,sans-Serif" font-size="10.00">+ verify_zip_code()</text>
</a>
</g>
</g>
<!-- Node2&#45;&gt;Node1 -->
<g id="edge1" class="edge">
<title>Node2&#45;&gt;Node1</title>
<path fill="none" stroke="#404040" d="M73.84,-237.45C77.67,-222.48 81.79,-206.43 85.84,-190.63"/>
<polygon fill="none" stroke="#404040" points="85.94,-190.24 83.55,-183.44 88.92,-178.62 91.3,-185.42 85.94,-190.24"/>
<text text-anchor="middle" x="106.5" y="-205.5" font-family="Helvetica,sans-Serif" font-size="10.00"> &#45;address</text>
</g>
<!-- Node3 -->
<g id="node3" class="node">
<title>Node3</title>
<g id="a_node3"><a xlink:href="classTime.html" target="_top" xlink:title="Class that saves and handles time information in our project.">
<polygon fill="none" stroke="black" points="129.5,-259.5 129.5,-360.5 207.5,-360.5 207.5,-259.5 129.5,-259.5"/>
<text text-anchor="middle" x="168.5" y="-348.5" font-family="Helvetica,sans-Serif" font-size="10.00">Time</text>
<polyline fill="none" stroke="black" points="129.5,-341.5 207.5,-341.5 "/>
<text text-anchor="start" x="137.5" y="-329.5" font-family="Helvetica,sans-Serif" font-size="10.00">&#45; hour</text>
<text text-anchor="start" x="137.5" y="-318.5" font-family="Helvetica,sans-Serif" font-size="10.00">&#45; min</text>
<polyline fill="none" stroke="black" points="129.5,-311.5 207.5,-311.5 "/>
<text text-anchor="start" x="137.5" y="-299.5" font-family="Helvetica,sans-Serif" font-size="10.00">+ Time()</text>
<text text-anchor="start" x="137.5" y="-288.5" font-family="Helvetica,sans-Serif" font-size="10.00">+ Time()</text>
<text text-anchor="start" x="137.5" y="-277.5" font-family="Helvetica,sans-Serif" font-size="10.00">+ get_hour()</text>
<text text-anchor="start" x="137.5" y="-266.5" font-family="Helvetica,sans-Serif" font-size="10.00">+ get_min()</text>
</a>
</g>
</g>
<!-- Node3&#45;&gt;Node1 -->
<g id="edge2" class="edge">
<title>Node3&#45;&gt;Node1</title>
<path fill="none" stroke="#404040" d="M155.57,-259.42C150.2,-238.86 143.78,-214.23 137.52,-190.23"/>
<polygon fill="none" stroke="#404040" points="137.49,-190.12 132.1,-185.33 134.46,-178.51 139.84,-183.31 137.49,-190.12"/>
<text text-anchor="middle" x="158" y="-211" font-family="Helvetica,sans-Serif" font-size="10.00"> &#45;open</text>
<text text-anchor="middle" x="158" y="-200" font-family="Helvetica,sans-Serif" font-size="10.00">&#45;close</text>
</g>
</g>
</svg>
