<?xml version="1.0" encoding="UTF-8" standalone="no"?>
<!DOCTYPE svg PUBLIC "-//W3C//DTD SVG 1.1//EN"
 "http://www.w3.org/Graphics/SVG/1.1/DTD/svg11.dtd">
<!-- Generated by graphviz version 2.43.20190912.0211 (20190912.0211)
 -->
<!-- Title: MenuSelect Pages: 1 -->
<svg width="109pt" height="237pt"
 viewBox="0.00 0.00 109.00 237.00" xmlns="http://www.w3.org/2000/svg" xmlns:xlink="http://www.w3.org/1999/xlink">
<g id="graph0" class="graph" transform="scale(1 1) rotate(0) translate(4 233)">
<title>MenuSelect</title>
<!-- Node1 -->
<g id="node1" class="node">
<title>Node1</title>
<g id="a_node1"><a xlink:title="Wrapper to a function that takes no arguments.">
<polygon fill="#bfbfbf" stroke="black" points="0,-0.5 0,-90.5 101,-90.5 101,-0.5 0,-0.5"/>
<text text-anchor="middle" x="50.5" y="-78.5" font-family="Helvetica,sans-Serif" font-size="10.00">MenuSelect</text>
<polyline fill="none" stroke="black" points="0,-71.5 101,-71.5 "/>
<text text-anchor="start" x="8" y="-59.5" font-family="Helvetica,sans-Serif" font-size="10.00">&#45; func</text>
<polyline fill="none" stroke="black" points="0,-52.5 101,-52.5 "/>
<text text-anchor="start" x="8" y="-40.5" font-family="Helvetica,sans-Serif" font-size="10.00">+ MenuSelect()</text>
<text text-anchor="start" x="8" y="-29.5" font-family="Helvetica,sans-Serif" font-size="10.00">+ ~MenuSelect()</text>
<text text-anchor="start" x="8" y="-18.5" font-family="Helvetica,sans-Serif" font-size="10.00">+ MenuSelect()</text>
<text text-anchor="start" x="8" y="-7.5" font-family="Helvetica,sans-Serif" font-size="10.00">+ show()</text>
</a>
</g>
</g>
<!-- Node2 -->
<g id="node2" class="node">
<title>Node2</title>
<g id="a_node2"><a xlink:href="classMenu.html" target="_top" xlink:title="Absract class for menus that don&#39;t modify arguments.">
<polygon fill="none" stroke="black" points="14,-127.5 14,-228.5 87,-228.5 87,-127.5 14,-127.5"/>
<text text-anchor="middle" x="50.5" y="-216.5" font-family="Helvetica,sans-Serif" font-size="10.00">Menu</text>
<polyline fill="none" stroke="black" points="14,-209.5 87,-209.5 "/>
<text text-anchor="start" x="22" y="-197.5" font-family="Helvetica,sans-Serif" font-size="10.00"># title</text>
<polyline fill="none" stroke="black" points="14,-190.5 87,-190.5 "/>
<text text-anchor="start" x="22" y="-178.5" font-family="Helvetica,sans-Serif" font-size="10.00">+ Menu()</text>
<text text-anchor="start" x="22" y="-167.5" font-family="Helvetica,sans-Serif" font-size="10.00">+ ~Menu()</text>
<text text-anchor="start" x="22" y="-156.5" font-family="Helvetica,sans-Serif" font-size="10.00">+ Menu()</text>
<text text-anchor="start" x="22" y="-145.5" font-family="Helvetica,sans-Serif" font-size="10.00">+ getTitle()</text>
<text text-anchor="start" x="22" y="-134.5" font-family="Helvetica,sans-Serif" font-size="10.00">+ show()</text>
</a>
</g>
</g>
<!-- Node2&#45;&gt;Node1 -->
<g id="edge1" class="edge">
<title>Node2&#45;&gt;Node1</title>
<path fill="none" stroke="midnightblue" d="M50.5,-117.23C50.5,-108.24 50.5,-99.1 50.5,-90.52"/>
<polygon fill="none" stroke="midnightblue" points="47,-117.29 50.5,-127.29 54,-117.29 47,-117.29"/>
</g>
</g>
</svg>
