<?xml version="1.0" encoding="UTF-8" standalone="no"?>
<!DOCTYPE svg PUBLIC "-//W3C//DTD SVG 1.1//EN"
 "http://www.w3.org/Graphics/SVG/1.1/DTD/svg11.dtd">
<!-- Generated by graphviz version 2.43.20190912.0211 (20190912.0211)
 -->
<!-- Title: /home/joao/Documents/UniStuff/2_1things/AEDA/FEUP&#45;AEDA&#45;Proj1/include/date.h Pages: 1 -->
<svg width="204pt" height="106pt"
 viewBox="0.00 0.00 204.00 106.00" xmlns="http://www.w3.org/2000/svg" xmlns:xlink="http://www.w3.org/1999/xlink">
<g id="graph0" class="graph" transform="scale(1 1) rotate(0) translate(4 102)">
<title>/home/joao/Documents/UniStuff/2_1things/AEDA/FEUP&#45;AEDA&#45;Proj1/include/date.h</title>
<!-- Node1 -->
<g id="node1" class="node">
<title>Node1</title>
<g id="a_node1"><a xlink:title=" ">
<polygon fill="#bfbfbf" stroke="black" points="2,-56.5 2,-97.5 178,-97.5 178,-56.5 2,-56.5"/>
<text text-anchor="start" x="10" y="-85.5" font-family="Helvetica,sans-Serif" font-size="10.00">/home/joao/Documents</text>
<text text-anchor="start" x="10" y="-74.5" font-family="Helvetica,sans-Serif" font-size="10.00">/UniStuff/2_1things/AEDA</text>
<text text-anchor="middle" x="90" y="-63.5" font-family="Helvetica,sans-Serif" font-size="10.00">/FEUP&#45;AEDA&#45;Proj1/include/date.h</text>
</a>
</g>
</g>
<!-- Node2 -->
<g id="node2" class="node">
<title>Node2</title>
<g id="a_node2"><a xlink:title=" ">
<polygon fill="none" stroke="#bfbfbf" points="0,-0.5 0,-19.5 44,-19.5 44,-0.5 0,-0.5"/>
<text text-anchor="middle" x="22" y="-7.5" font-family="Helvetica,sans-Serif" font-size="10.00">ctime</text>
</a>
</g>
</g>
<!-- Node1&#45;&gt;Node2 -->
<g id="edge1" class="edge">
<title>Node1&#45;&gt;Node2</title>
<path fill="none" stroke="midnightblue" d="M69.6,-56.5C59.67,-47.01 47.9,-35.76 38.54,-26.81"/>
<polygon fill="midnightblue" stroke="midnightblue" points="40.7,-24.03 31.05,-19.65 35.86,-29.09 40.7,-24.03"/>
</g>
<!-- Node3 -->
<g id="node3" class="node">
<title>Node3</title>
<g id="a_node3"><a xlink:title=" ">
<polygon fill="none" stroke="#bfbfbf" points="62.5,-0.5 62.5,-19.5 117.5,-19.5 117.5,-0.5 62.5,-0.5"/>
<text text-anchor="middle" x="90" y="-7.5" font-family="Helvetica,sans-Serif" font-size="10.00">fstream</text>
</a>
</g>
</g>
<!-- Node1&#45;&gt;Node3 -->
<g id="edge2" class="edge">
<title>Node1&#45;&gt;Node3</title>
<path fill="none" stroke="midnightblue" d="M90,-56.5C90,-48.07 90,-38.24 90,-29.87"/>
<polygon fill="midnightblue" stroke="midnightblue" points="93.5,-29.65 90,-19.65 86.5,-29.65 93.5,-29.65"/>
</g>
<!-- Node4 -->
<g id="node4" class="node">
<title>Node4</title>
<g id="a_node4"><a xlink:title=" ">
<polygon fill="none" stroke="#bfbfbf" points="136,-0.5 136,-19.5 196,-19.5 196,-0.5 136,-0.5"/>
<text text-anchor="middle" x="166" y="-7.5" font-family="Helvetica,sans-Serif" font-size="10.00">iostream</text>
</a>
</g>
</g>
<!-- Node1&#45;&gt;Node4 -->
<g id="edge3" class="edge">
<title>Node1&#45;&gt;Node4</title>
<path fill="none" stroke="midnightblue" d="M112.8,-56.5C124.12,-46.82 137.59,-35.3 148.14,-26.27"/>
<polygon fill="midnightblue" stroke="midnightblue" points="150.56,-28.81 155.88,-19.65 146.01,-23.49 150.56,-28.81"/>
</g>
</g>
</svg>
