<?xml version="1.0" encoding="UTF-8" standalone="no"?>
<!DOCTYPE svg PUBLIC "-//W3C//DTD SVG 1.1//EN"
 "http://www.w3.org/Graphics/SVG/1.1/DTD/svg11.dtd">
<!-- Generated by graphviz version 2.43.20190912.0211 (20190912.0211)
 -->
<!-- Title: /home/joao/Documents/UniStuff/2_1things/AEDA/FEUP&#45;AEDA&#45;Proj1/include/enterprise.h Pages: 1 -->
<svg width="410pt" height="285pt"
 viewBox="0.00 0.00 410.00 285.00" xmlns="http://www.w3.org/2000/svg" xmlns:xlink="http://www.w3.org/1999/xlink">
<g id="graph0" class="graph" transform="scale(1 1) rotate(0) translate(4 281)">
<title>/home/joao/Documents/UniStuff/2_1things/AEDA/FEUP&#45;AEDA&#45;Proj1/include/enterprise.h</title>
<!-- Node1 -->
<g id="node1" class="node">
<title>Node1</title>
<g id="a_node1"><a xlink:title=" ">
<polygon fill="#bfbfbf" stroke="black" points="78.5,-224.5 78.5,-276.5 221.5,-276.5 221.5,-224.5 78.5,-224.5"/>
<text text-anchor="start" x="86.5" y="-264.5" font-family="Helvetica,sans-Serif" font-size="10.00">/home/joao/Documents</text>
<text text-anchor="start" x="86.5" y="-253.5" font-family="Helvetica,sans-Serif" font-size="10.00">/UniStuff/2_1things/AEDA</text>
<text text-anchor="start" x="86.5" y="-242.5" font-family="Helvetica,sans-Serif" font-size="10.00">/FEUP&#45;AEDA&#45;Proj1/include</text>
<text text-anchor="middle" x="150" y="-231.5" font-family="Helvetica,sans-Serif" font-size="10.00">/enterprise.h</text>
</a>
</g>
</g>
<!-- Node2 -->
<g id="node2" class="node">
<title>Node2</title>
<g id="a_node2"><a xlink:href="address_8h.html" target="_top" xlink:title=" ">
<polygon fill="none" stroke="black" points="50.5,-112.5 50.5,-131.5 161.5,-131.5 161.5,-112.5 50.5,-112.5"/>
<text text-anchor="middle" x="106" y="-119.5" font-family="Helvetica,sans-Serif" font-size="10.00">../include/address.h</text>
</a>
</g>
</g>
<!-- Node1&#45;&gt;Node2 -->
<g id="edge1" class="edge">
<title>Node1&#45;&gt;Node2</title>
<path fill="none" stroke="midnightblue" d="M141.2,-224.2C132.66,-199.66 119.91,-163 112.33,-141.2"/>
<polygon fill="midnightblue" stroke="midnightblue" points="115.56,-139.84 108.97,-131.55 108.95,-142.14 115.56,-139.84"/>
</g>
<!-- Node5 -->
<g id="node5" class="node">
<title>Node5</title>
<g id="a_node5"><a xlink:title=" ">
<polygon fill="none" stroke="#bfbfbf" points="0,-56.5 0,-75.5 44,-75.5 44,-56.5 0,-56.5"/>
<text text-anchor="middle" x="22" y="-63.5" font-family="Helvetica,sans-Serif" font-size="10.00">string</text>
</a>
</g>
</g>
<!-- Node1&#45;&gt;Node5 -->
<g id="edge19" class="edge">
<title>Node1&#45;&gt;Node5</title>
<path fill="none" stroke="midnightblue" d="M110.54,-224.36C81.56,-203.49 44.2,-170.96 26,-132 19.27,-117.59 18.73,-99.4 19.61,-85.93"/>
<polygon fill="midnightblue" stroke="midnightblue" points="23.1,-86.2 20.57,-75.91 16.13,-85.53 23.1,-86.2"/>
</g>
<!-- Node6 -->
<g id="node6" class="node">
<title>Node6</title>
<g id="a_node6"><a xlink:href="event_8h.html" target="_top" xlink:title=" ">
<polygon fill="none" stroke="black" points="139.5,-168.5 139.5,-187.5 240.5,-187.5 240.5,-168.5 139.5,-168.5"/>
<text text-anchor="middle" x="190" y="-175.5" font-family="Helvetica,sans-Serif" font-size="10.00">../include/event.h</text>
</a>
</g>
</g>
<!-- Node1&#45;&gt;Node6 -->
<g id="edge5" class="edge">
<title>Node1&#45;&gt;Node6</title>
<path fill="none" stroke="midnightblue" d="M164.22,-224.45C169.44,-215.23 175.25,-205 180.03,-196.58"/>
<polygon fill="midnightblue" stroke="midnightblue" points="183.18,-198.12 185.07,-187.7 177.09,-194.67 183.18,-198.12"/>
</g>
<!-- Node10 -->
<g id="node10" class="node">
<title>Node10</title>
<g id="a_node10"><a xlink:title=" ">
<polygon fill="none" stroke="#bfbfbf" points="370,-112.5 370,-131.5 402,-131.5 402,-112.5 370,-112.5"/>
<text text-anchor="middle" x="386" y="-119.5" font-family="Helvetica,sans-Serif" font-size="10.00">set</text>
</a>
</g>
</g>
<!-- Node1&#45;&gt;Node10 -->
<g id="edge18" class="edge">
<title>Node1&#45;&gt;Node10</title>
<path fill="none" stroke="midnightblue" d="M196.91,-224.36C246.23,-197.92 321.97,-157.32 360.93,-136.44"/>
<polygon fill="midnightblue" stroke="midnightblue" points="362.85,-139.38 370.01,-131.57 359.54,-133.21 362.85,-139.38"/>
</g>
<!-- Node3 -->
<g id="node3" class="node">
<title>Node3</title>
<g id="a_node3"><a xlink:title=" ">
<polygon fill="none" stroke="#bfbfbf" points="261.5,-0.5 261.5,-19.5 316.5,-19.5 316.5,-0.5 261.5,-0.5"/>
<text text-anchor="middle" x="289" y="-7.5" font-family="Helvetica,sans-Serif" font-size="10.00">fstream</text>
</a>
</g>
</g>
<!-- Node2&#45;&gt;Node3 -->
<g id="edge2" class="edge">
<title>Node2&#45;&gt;Node3</title>
<path fill="none" stroke="midnightblue" d="M120.36,-112.37C151.9,-93.41 227.44,-48 265.8,-24.94"/>
<polygon fill="midnightblue" stroke="midnightblue" points="267.94,-27.74 274.71,-19.59 264.33,-21.74 267.94,-27.74"/>
</g>
<!-- Node4 -->
<g id="node4" class="node">
<title>Node4</title>
<g id="a_node4"><a xlink:title=" ">
<polygon fill="none" stroke="#bfbfbf" points="172,-0.5 172,-19.5 232,-19.5 232,-0.5 172,-0.5"/>
<text text-anchor="middle" x="202" y="-7.5" font-family="Helvetica,sans-Serif" font-size="10.00">iostream</text>
</a>
</g>
</g>
<!-- Node2&#45;&gt;Node4 -->
<g id="edge3" class="edge">
<title>Node2&#45;&gt;Node4</title>
<path fill="none" stroke="midnightblue" d="M113.53,-112.37C129.52,-94.05 167.05,-51.05 187.72,-27.36"/>
<polygon fill="midnightblue" stroke="midnightblue" points="190.56,-29.43 194.5,-19.59 185.29,-24.82 190.56,-29.43"/>
</g>
<!-- Node2&#45;&gt;Node5 -->
<g id="edge4" class="edge">
<title>Node2&#45;&gt;Node5</title>
<path fill="none" stroke="midnightblue" d="M92.5,-112.32C79.4,-103.9 59.29,-90.97 43.89,-81.07"/>
<polygon fill="midnightblue" stroke="midnightblue" points="45.77,-78.12 35.46,-75.65 41.98,-84.01 45.77,-78.12"/>
</g>
<!-- Node6&#45;&gt;Node2 -->
<g id="edge14" class="edge">
<title>Node6&#45;&gt;Node2</title>
<path fill="none" stroke="midnightblue" d="M176.5,-168.32C163.4,-159.9 143.29,-146.97 127.89,-137.07"/>
<polygon fill="midnightblue" stroke="midnightblue" points="129.77,-134.12 119.46,-131.65 125.98,-140.01 129.77,-134.12"/>
</g>
<!-- Node6&#45;&gt;Node4 -->
<g id="edge17" class="edge">
<title>Node6&#45;&gt;Node4</title>
<path fill="none" stroke="midnightblue" d="M190.65,-168.08C192.53,-141.95 198.08,-65.21 200.66,-29.58"/>
<polygon fill="midnightblue" stroke="midnightblue" points="204.15,-29.79 201.38,-19.57 197.17,-29.29 204.15,-29.79"/>
</g>
<!-- Node6&#45;&gt;Node5 -->
<g id="edge15" class="edge">
<title>Node6&#45;&gt;Node5</title>
<path fill="none" stroke="midnightblue" d="M139.17,-173.76C107.01,-169.09 66.77,-158.01 41,-132 28.98,-119.88 24.49,-100.6 22.84,-86.18"/>
<polygon fill="midnightblue" stroke="midnightblue" points="26.31,-85.59 22.05,-75.89 19.33,-86.13 26.31,-85.59"/>
</g>
<!-- Node7 -->
<g id="node7" class="node">
<title>Node7</title>
<g id="a_node7"><a xlink:href="time_8h.html" target="_top" xlink:title=" ">
<polygon fill="none" stroke="black" points="218.5,-112.5 218.5,-131.5 313.5,-131.5 313.5,-112.5 218.5,-112.5"/>
<text text-anchor="middle" x="266" y="-119.5" font-family="Helvetica,sans-Serif" font-size="10.00">../include/time.h</text>
</a>
</g>
</g>
<!-- Node6&#45;&gt;Node7 -->
<g id="edge6" class="edge">
<title>Node6&#45;&gt;Node7</title>
<path fill="none" stroke="midnightblue" d="M202.21,-168.32C213.78,-160.11 231.38,-147.6 245.16,-137.81"/>
<polygon fill="midnightblue" stroke="midnightblue" points="247.44,-140.48 253.57,-131.83 243.39,-134.77 247.44,-140.48"/>
</g>
<!-- Node8 -->
<g id="node8" class="node">
<title>Node8</title>
<g id="a_node8"><a xlink:href="date_8h.html" target="_top" xlink:title=" ">
<polygon fill="none" stroke="black" points="325.5,-56.5 325.5,-75.5 372.5,-75.5 372.5,-56.5 325.5,-56.5"/>
<text text-anchor="middle" x="349" y="-63.5" font-family="Helvetica,sans-Serif" font-size="10.00">date.h</text>
</a>
</g>
</g>
<!-- Node6&#45;&gt;Node8 -->
<g id="edge13" class="edge">
<title>Node6&#45;&gt;Node8</title>
<path fill="none" stroke="midnightblue" d="M240.65,-170.04C267.67,-164 299.83,-152.77 322,-132 335.08,-119.75 342.03,-100.21 345.59,-85.75"/>
<polygon fill="midnightblue" stroke="midnightblue" points="349.03,-86.39 347.69,-75.88 342.18,-84.94 349.03,-86.39"/>
</g>
<!-- Node6&#45;&gt;Node10 -->
<g id="edge16" class="edge">
<title>Node6&#45;&gt;Node10</title>
<path fill="none" stroke="midnightblue" d="M222.52,-168.46C256.03,-159.59 309.77,-145.2 356,-132 357.26,-131.64 358.56,-131.27 359.86,-130.89"/>
<polygon fill="midnightblue" stroke="midnightblue" points="361.23,-134.13 369.83,-127.94 359.25,-127.42 361.23,-134.13"/>
</g>
<!-- Node7&#45;&gt;Node3 -->
<g id="edge7" class="edge">
<title>Node7&#45;&gt;Node3</title>
<path fill="none" stroke="midnightblue" d="M267.8,-112.37C271.52,-94.62 280.08,-53.67 285.11,-29.6"/>
<polygon fill="midnightblue" stroke="midnightblue" points="288.58,-30.1 287.2,-19.59 281.73,-28.66 288.58,-30.1"/>
</g>
<!-- Node7&#45;&gt;Node4 -->
<g id="edge8" class="edge">
<title>Node7&#45;&gt;Node4</title>
<path fill="none" stroke="midnightblue" d="M260.98,-112.37C250.46,-94.3 225.96,-52.18 212.07,-28.31"/>
<polygon fill="midnightblue" stroke="midnightblue" points="215.05,-26.47 207,-19.59 209,-30 215.05,-26.47"/>
</g>
<!-- Node7&#45;&gt;Node8 -->
<g id="edge9" class="edge">
<title>Node7&#45;&gt;Node8</title>
<path fill="none" stroke="midnightblue" d="M279.34,-112.32C292.16,-103.98 311.78,-91.21 326.94,-81.35"/>
<polygon fill="midnightblue" stroke="midnightblue" points="329.22,-84.04 335.7,-75.65 325.41,-78.17 329.22,-84.04"/>
</g>
<!-- Node8&#45;&gt;Node3 -->
<g id="edge11" class="edge">
<title>Node8&#45;&gt;Node3</title>
<path fill="none" stroke="midnightblue" d="M339.36,-56.32C330.49,-48.34 317.13,-36.31 306.39,-26.65"/>
<polygon fill="midnightblue" stroke="midnightblue" points="308.59,-23.92 298.82,-19.83 303.91,-29.13 308.59,-23.92"/>
</g>
<!-- Node8&#45;&gt;Node4 -->
<g id="edge12" class="edge">
<title>Node8&#45;&gt;Node4</title>
<path fill="none" stroke="midnightblue" d="M325.71,-56.44C301.19,-47.44 262.4,-33.19 234.8,-23.05"/>
<polygon fill="midnightblue" stroke="midnightblue" points="235.78,-19.68 225.18,-19.52 233.36,-26.25 235.78,-19.68"/>
</g>
<!-- Node9 -->
<g id="node9" class="node">
<title>Node9</title>
<g id="a_node9"><a xlink:title=" ">
<polygon fill="none" stroke="#bfbfbf" points="335,-0.5 335,-19.5 379,-19.5 379,-0.5 335,-0.5"/>
<text text-anchor="middle" x="357" y="-7.5" font-family="Helvetica,sans-Serif" font-size="10.00">ctime</text>
</a>
</g>
</g>
<!-- Node8&#45;&gt;Node9 -->
<g id="edge10" class="edge">
<title>Node8&#45;&gt;Node9</title>
<path fill="none" stroke="midnightblue" d="M350.32,-56.08C351.38,-48.93 352.91,-38.64 354.23,-29.69"/>
<polygon fill="midnightblue" stroke="midnightblue" points="357.7,-30.16 355.7,-19.75 350.78,-29.13 357.7,-30.16"/>
</g>
</g>
</svg>
