<?xml version="1.0" encoding="UTF-8" standalone="no"?>
<!DOCTYPE svg PUBLIC "-//W3C//DTD SVG 1.1//EN"
 "http://www.w3.org/Graphics/SVG/1.1/DTD/svg11.dtd">
<!-- Generated by graphviz version 2.43.20190912.0211 (20190912.0211)
 -->
<!-- Title: /home/joao/Documents/UniStuff/2_1things/AEDA/FEUP&#45;AEDA&#45;Proj1/include/event.h Pages: 1 -->
<svg width="404pt" height="229pt"
 viewBox="0.00 0.00 403.50 229.00" xmlns="http://www.w3.org/2000/svg" xmlns:xlink="http://www.w3.org/1999/xlink">
<g id="graph0" class="graph" transform="scale(1 1) rotate(0) translate(4 225)">
<title>/home/joao/Documents/UniStuff/2_1things/AEDA/FEUP&#45;AEDA&#45;Proj1/include/event.h</title>
<!-- Node1 -->
<g id="node1" class="node">
<title>Node1</title>
<g id="a_node1"><a xlink:title=" ">
<polygon fill="#bfbfbf" stroke="black" points="138,-168.5 138,-220.5 281,-220.5 281,-168.5 138,-168.5"/>
<text text-anchor="start" x="146" y="-208.5" font-family="Helvetica,sans-Serif" font-size="10.00">/home/joao/Documents</text>
<text text-anchor="start" x="146" y="-197.5" font-family="Helvetica,sans-Serif" font-size="10.00">/UniStuff/2_1things/AEDA</text>
<text text-anchor="start" x="146" y="-186.5" font-family="Helvetica,sans-Serif" font-size="10.00">/FEUP&#45;AEDA&#45;Proj1/include</text>
<text text-anchor="middle" x="209.5" y="-175.5" font-family="Helvetica,sans-Serif" font-size="10.00">/event.h</text>
</a>
</g>
</g>
<!-- Node2 -->
<g id="node2" class="node">
<title>Node2</title>
<g id="a_node2"><a xlink:href="time_8h.html" target="_top" xlink:title=" ">
<polygon fill="none" stroke="black" points="6,-112.5 6,-131.5 101,-131.5 101,-112.5 6,-112.5"/>
<text text-anchor="middle" x="53.5" y="-119.5" font-family="Helvetica,sans-Serif" font-size="10.00">../include/time.h</text>
</a>
</g>
</g>
<!-- Node1&#45;&gt;Node2 -->
<g id="edge1" class="edge">
<title>Node1&#45;&gt;Node2</title>
<path fill="none" stroke="midnightblue" d="M154.06,-168.45C129.53,-157.36 101.73,-144.8 81.59,-135.7"/>
<polygon fill="midnightblue" stroke="midnightblue" points="82.92,-132.46 72.37,-131.53 80.04,-138.83 82.92,-132.46"/>
</g>
<!-- Node4 -->
<g id="node4" class="node">
<title>Node4</title>
<g id="a_node4"><a xlink:title=" ">
<polygon fill="none" stroke="#bfbfbf" points="136.5,-0.5 136.5,-19.5 196.5,-19.5 196.5,-0.5 136.5,-0.5"/>
<text text-anchor="middle" x="166.5" y="-7.5" font-family="Helvetica,sans-Serif" font-size="10.00">iostream</text>
</a>
</g>
</g>
<!-- Node1&#45;&gt;Node4 -->
<g id="edge15" class="edge">
<title>Node1&#45;&gt;Node4</title>
<path fill="none" stroke="midnightblue" d="M198.86,-168.43C194.52,-157.41 189.76,-144.23 186.5,-132 177.01,-96.47 171.22,-53.8 168.46,-29.8"/>
<polygon fill="midnightblue" stroke="midnightblue" points="171.92,-29.19 167.34,-19.63 164.96,-29.95 171.92,-29.19"/>
</g>
<!-- Node5 -->
<g id="node5" class="node">
<title>Node5</title>
<g id="a_node5"><a xlink:href="date_8h.html" target="_top" xlink:title=" ">
<polygon fill="none" stroke="black" points="54,-56.5 54,-75.5 101,-75.5 101,-56.5 54,-56.5"/>
<text text-anchor="middle" x="77.5" y="-63.5" font-family="Helvetica,sans-Serif" font-size="10.00">date.h</text>
</a>
</g>
</g>
<!-- Node1&#45;&gt;Node5 -->
<g id="edge8" class="edge">
<title>Node1&#45;&gt;Node5</title>
<path fill="none" stroke="midnightblue" d="M183.11,-168.2C156.44,-142.65 116.08,-103.97 93.77,-82.59"/>
<polygon fill="midnightblue" stroke="midnightblue" points="96.06,-79.94 86.42,-75.55 91.22,-85 96.06,-79.94"/>
</g>
<!-- Node7 -->
<g id="node7" class="node">
<title>Node7</title>
<g id="a_node7"><a xlink:href="address_8h.html" target="_top" xlink:title=" ">
<polygon fill="none" stroke="black" points="196,-112.5 196,-131.5 307,-131.5 307,-112.5 196,-112.5"/>
<text text-anchor="middle" x="251.5" y="-119.5" font-family="Helvetica,sans-Serif" font-size="10.00">../include/address.h</text>
</a>
</g>
</g>
<!-- Node1&#45;&gt;Node7 -->
<g id="edge9" class="edge">
<title>Node1&#45;&gt;Node7</title>
<path fill="none" stroke="midnightblue" d="M224.43,-168.45C229.98,-159.13 236.15,-148.77 241.19,-140.3"/>
<polygon fill="midnightblue" stroke="midnightblue" points="244.21,-142.08 246.32,-131.7 238.19,-138.5 244.21,-142.08"/>
</g>
<!-- Node8 -->
<g id="node8" class="node">
<title>Node8</title>
<g id="a_node8"><a xlink:title=" ">
<polygon fill="none" stroke="#bfbfbf" points="294.5,-56.5 294.5,-75.5 338.5,-75.5 338.5,-56.5 294.5,-56.5"/>
<text text-anchor="middle" x="316.5" y="-63.5" font-family="Helvetica,sans-Serif" font-size="10.00">string</text>
</a>
</g>
</g>
<!-- Node1&#45;&gt;Node8 -->
<g id="edge13" class="edge">
<title>Node1&#45;&gt;Node8</title>
<path fill="none" stroke="midnightblue" d="M276.51,-168.4C291.94,-159.34 306.46,-147.42 315.5,-132 323.62,-118.16 323.02,-99.64 320.89,-85.91"/>
<polygon fill="midnightblue" stroke="midnightblue" points="324.26,-84.85 318.9,-75.71 317.39,-86.2 324.26,-84.85"/>
</g>
<!-- Node9 -->
<g id="node9" class="node">
<title>Node9</title>
<g id="a_node9"><a xlink:title=" ">
<polygon fill="none" stroke="#bfbfbf" points="363.5,-112.5 363.5,-131.5 395.5,-131.5 395.5,-112.5 363.5,-112.5"/>
<text text-anchor="middle" x="379.5" y="-119.5" font-family="Helvetica,sans-Serif" font-size="10.00">set</text>
</a>
</g>
</g>
<!-- Node1&#45;&gt;Node9 -->
<g id="edge14" class="edge">
<title>Node1&#45;&gt;Node9</title>
<path fill="none" stroke="midnightblue" d="M269.91,-168.45C298.71,-156.5 331.64,-142.85 353.81,-133.65"/>
<polygon fill="midnightblue" stroke="midnightblue" points="355.3,-136.83 363.19,-129.76 352.62,-130.36 355.3,-136.83"/>
</g>
<!-- Node3 -->
<g id="node3" class="node">
<title>Node3</title>
<g id="a_node3"><a xlink:title=" ">
<polygon fill="none" stroke="#bfbfbf" points="0,-0.5 0,-19.5 55,-19.5 55,-0.5 0,-0.5"/>
<text text-anchor="middle" x="27.5" y="-7.5" font-family="Helvetica,sans-Serif" font-size="10.00">fstream</text>
</a>
</g>
</g>
<!-- Node2&#45;&gt;Node3 -->
<g id="edge2" class="edge">
<title>Node2&#45;&gt;Node3</title>
<path fill="none" stroke="midnightblue" d="M51.46,-112.37C47.26,-94.62 37.58,-53.67 31.9,-29.6"/>
<polygon fill="midnightblue" stroke="midnightblue" points="35.24,-28.52 29.53,-19.59 28.42,-30.13 35.24,-28.52"/>
</g>
<!-- Node2&#45;&gt;Node4 -->
<g id="edge3" class="edge">
<title>Node2&#45;&gt;Node4</title>
<path fill="none" stroke="midnightblue" d="M65.58,-112.26C77.27,-103.58 95.27,-89.63 109.5,-76 125.5,-60.67 142.01,-41.4 153.11,-27.84"/>
<polygon fill="midnightblue" stroke="midnightblue" points="156.01,-29.82 159.57,-19.84 150.56,-25.42 156.01,-29.82"/>
</g>
<!-- Node2&#45;&gt;Node5 -->
<g id="edge4" class="edge">
<title>Node2&#45;&gt;Node5</title>
<path fill="none" stroke="midnightblue" d="M57.46,-112.08C60.71,-104.77 65.42,-94.18 69.45,-85.1"/>
<polygon fill="midnightblue" stroke="midnightblue" points="72.75,-86.31 73.61,-75.75 66.35,-83.47 72.75,-86.31"/>
</g>
<!-- Node5&#45;&gt;Node3 -->
<g id="edge6" class="edge">
<title>Node5&#45;&gt;Node3</title>
<path fill="none" stroke="midnightblue" d="M69.24,-56.08C62.04,-48.3 51.39,-36.8 42.65,-27.37"/>
<polygon fill="midnightblue" stroke="midnightblue" points="44.97,-24.71 35.6,-19.75 39.83,-29.47 44.97,-24.71"/>
</g>
<!-- Node5&#45;&gt;Node4 -->
<g id="edge7" class="edge">
<title>Node5&#45;&gt;Node4</title>
<path fill="none" stroke="midnightblue" d="M91.8,-56.32C105.68,-47.9 126.99,-34.97 143.3,-25.07"/>
<polygon fill="midnightblue" stroke="midnightblue" points="145.5,-27.83 152.24,-19.65 141.87,-21.85 145.5,-27.83"/>
</g>
<!-- Node6 -->
<g id="node6" class="node">
<title>Node6</title>
<g id="a_node6"><a xlink:title=" ">
<polygon fill="none" stroke="#bfbfbf" points="73.5,-0.5 73.5,-19.5 117.5,-19.5 117.5,-0.5 73.5,-0.5"/>
<text text-anchor="middle" x="95.5" y="-7.5" font-family="Helvetica,sans-Serif" font-size="10.00">ctime</text>
</a>
</g>
</g>
<!-- Node5&#45;&gt;Node6 -->
<g id="edge5" class="edge">
<title>Node5&#45;&gt;Node6</title>
<path fill="none" stroke="midnightblue" d="M80.47,-56.08C82.88,-48.85 86.36,-38.41 89.37,-29.4"/>
<polygon fill="midnightblue" stroke="midnightblue" points="92.74,-30.34 92.58,-19.75 86.1,-28.13 92.74,-30.34"/>
</g>
<!-- Node7&#45;&gt;Node3 -->
<g id="edge10" class="edge">
<title>Node7&#45;&gt;Node3</title>
<path fill="none" stroke="midnightblue" d="M233.92,-112.37C194.83,-93.17 100.49,-46.84 54.12,-24.07"/>
<polygon fill="midnightblue" stroke="midnightblue" points="55.51,-20.86 45,-19.59 52.43,-27.14 55.51,-20.86"/>
</g>
<!-- Node7&#45;&gt;Node4 -->
<g id="edge11" class="edge">
<title>Node7&#45;&gt;Node4</title>
<path fill="none" stroke="midnightblue" d="M248.9,-112.33C244.67,-99.19 235.35,-73.89 221.5,-56 212.32,-44.14 199.47,-33.41 188.49,-25.39"/>
<polygon fill="midnightblue" stroke="midnightblue" points="190.4,-22.45 180.2,-19.58 186.38,-28.19 190.4,-22.45"/>
</g>
<!-- Node7&#45;&gt;Node8 -->
<g id="edge12" class="edge">
<title>Node7&#45;&gt;Node8</title>
<path fill="none" stroke="midnightblue" d="M261.94,-112.32C271.65,-104.26 286.32,-92.08 298,-82.37"/>
<polygon fill="midnightblue" stroke="midnightblue" points="300.41,-84.92 305.87,-75.83 295.94,-79.53 300.41,-84.92"/>
</g>
</g>
</svg>
