<?xml version="1.0" encoding="UTF-8" standalone="no"?>
<!DOCTYPE svg PUBLIC "-//W3C//DTD SVG 1.1//EN"
 "http://www.w3.org/Graphics/SVG/1.1/DTD/svg11.dtd">
<!-- Generated by graphviz version 2.43.20190912.0211 (20190912.0211)
 -->
<!-- Title: /home/joao/Documents/UniStuff/2_1things/AEDA/FEUP&#45;AEDA&#45;Proj1/include/event.h Pages: 1 -->
<svg width="312pt" height="328pt"
 viewBox="0.00 0.00 312.00 328.00" xmlns="http://www.w3.org/2000/svg" xmlns:xlink="http://www.w3.org/1999/xlink">
<g id="graph0" class="graph" transform="scale(1 1) rotate(0) translate(4 324)">
<title>/home/joao/Documents/UniStuff/2_1things/AEDA/FEUP&#45;AEDA&#45;Proj1/include/event.h</title>
<!-- Node1 -->
<g id="node1" class="node">
<title>Node1</title>
<g id="a_node1"><a xlink:title=" ">
<polygon fill="#bfbfbf" stroke="black" points="50,-267.5 50,-319.5 193,-319.5 193,-267.5 50,-267.5"/>
<text text-anchor="start" x="58" y="-307.5" font-family="Helvetica,sans-Serif" font-size="10.00">/home/joao/Documents</text>
<text text-anchor="start" x="58" y="-296.5" font-family="Helvetica,sans-Serif" font-size="10.00">/UniStuff/2_1things/AEDA</text>
<text text-anchor="start" x="58" y="-285.5" font-family="Helvetica,sans-Serif" font-size="10.00">/FEUP&#45;AEDA&#45;Proj1/include</text>
<text text-anchor="middle" x="121.5" y="-274.5" font-family="Helvetica,sans-Serif" font-size="10.00">/event.h</text>
</a>
</g>
</g>
<!-- Node2 -->
<g id="node2" class="node">
<title>Node2</title>
<g id="a_node2"><a xlink:href="enterprise_8h.html" target="_top" xlink:title=" ">
<polygon fill="none" stroke="black" points="100,-178.5 100,-230.5 243,-230.5 243,-178.5 100,-178.5"/>
<text text-anchor="start" x="108" y="-218.5" font-family="Helvetica,sans-Serif" font-size="10.00">/home/joao/Documents</text>
<text text-anchor="start" x="108" y="-207.5" font-family="Helvetica,sans-Serif" font-size="10.00">/UniStuff/2_1things/AEDA</text>
<text text-anchor="start" x="108" y="-196.5" font-family="Helvetica,sans-Serif" font-size="10.00">/FEUP&#45;AEDA&#45;Proj1/include</text>
<text text-anchor="middle" x="171.5" y="-185.5" font-family="Helvetica,sans-Serif" font-size="10.00">/enterprise.h</text>
</a>
</g>
</g>
<!-- Node1&#45;&gt;Node2 -->
<g id="edge1" class="edge">
<title>Node1&#45;&gt;Node2</title>
<path fill="none" stroke="midnightblue" d="M140.96,-258.64C146.32,-249.31 152.05,-239.35 157.07,-230.61"/>
<polygon fill="midnightblue" stroke="midnightblue" points="137.91,-256.92 135.96,-267.34 143.98,-260.41 137.91,-256.92"/>
</g>
<!-- Node3 -->
<g id="node3" class="node">
<title>Node3</title>
<g id="a_node3"><a xlink:href="filter_8h.html" target="_top" xlink:title=" ">
<polygon fill="none" stroke="black" points="0,-89.5 0,-141.5 143,-141.5 143,-89.5 0,-89.5"/>
<text text-anchor="start" x="8" y="-129.5" font-family="Helvetica,sans-Serif" font-size="10.00">/home/joao/Documents</text>
<text text-anchor="start" x="8" y="-118.5" font-family="Helvetica,sans-Serif" font-size="10.00">/UniStuff/2_1things/AEDA</text>
<text text-anchor="start" x="8" y="-107.5" font-family="Helvetica,sans-Serif" font-size="10.00">/FEUP&#45;AEDA&#45;Proj1/include</text>
<text text-anchor="middle" x="71.5" y="-96.5" font-family="Helvetica,sans-Serif" font-size="10.00">/filter.h</text>
</a>
</g>
</g>
<!-- Node1&#45;&gt;Node3 -->
<g id="edge6" class="edge">
<title>Node1&#45;&gt;Node3</title>
<path fill="none" stroke="midnightblue" d="M101.91,-258.17C97.62,-249.52 93.47,-240.1 90.5,-231 80.74,-201.12 75.82,-165.14 73.47,-141.59"/>
<polygon fill="midnightblue" stroke="midnightblue" points="98.88,-259.93 106.58,-267.21 105.1,-256.72 98.88,-259.93"/>
</g>
<!-- Node2&#45;&gt;Node3 -->
<g id="edge2" class="edge">
<title>Node2&#45;&gt;Node3</title>
<path fill="none" stroke="midnightblue" d="M134.89,-171.65C123.51,-161.75 111.13,-150.98 100.36,-141.61"/>
<polygon fill="midnightblue" stroke="midnightblue" points="132.73,-174.41 142.58,-178.34 137.33,-169.13 132.73,-174.41"/>
</g>
<!-- Node5 -->
<g id="node5" class="node">
<title>Node5</title>
<g id="a_node5"><a xlink:href="museum__network_8h.html" target="_top" xlink:title=" ">
<polygon fill="none" stroke="black" points="161,-89.5 161,-141.5 304,-141.5 304,-89.5 161,-89.5"/>
<text text-anchor="start" x="169" y="-129.5" font-family="Helvetica,sans-Serif" font-size="10.00">/home/joao/Documents</text>
<text text-anchor="start" x="169" y="-118.5" font-family="Helvetica,sans-Serif" font-size="10.00">/UniStuff/2_1things/AEDA</text>
<text text-anchor="start" x="169" y="-107.5" font-family="Helvetica,sans-Serif" font-size="10.00">/FEUP&#45;AEDA&#45;Proj1/include</text>
<text text-anchor="middle" x="232.5" y="-96.5" font-family="Helvetica,sans-Serif" font-size="10.00">/museum_network.h</text>
</a>
</g>
</g>
<!-- Node2&#45;&gt;Node5 -->
<g id="edge4" class="edge">
<title>Node2&#45;&gt;Node5</title>
<path fill="none" stroke="midnightblue" d="M195.04,-169.93C201.64,-160.51 208.7,-150.44 214.9,-141.61"/>
<polygon fill="midnightblue" stroke="midnightblue" points="192.02,-168.14 189.14,-178.34 197.75,-172.16 192.02,-168.14"/>
</g>
<!-- Node4 -->
<g id="node4" class="node">
<title>Node4</title>
<g id="a_node4"><a xlink:href="interfaces_8h.html" target="_top" xlink:title=" ">
<polygon fill="none" stroke="black" points="80,-0.5 80,-52.5 223,-52.5 223,-0.5 80,-0.5"/>
<text text-anchor="start" x="88" y="-40.5" font-family="Helvetica,sans-Serif" font-size="10.00">/home/joao/Documents</text>
<text text-anchor="start" x="88" y="-29.5" font-family="Helvetica,sans-Serif" font-size="10.00">/UniStuff/2_1things/AEDA</text>
<text text-anchor="start" x="88" y="-18.5" font-family="Helvetica,sans-Serif" font-size="10.00">/FEUP&#45;AEDA&#45;Proj1/include</text>
<text text-anchor="middle" x="151.5" y="-7.5" font-family="Helvetica,sans-Serif" font-size="10.00">/interfaces.h</text>
</a>
</g>
</g>
<!-- Node3&#45;&gt;Node4 -->
<g id="edge3" class="edge">
<title>Node3&#45;&gt;Node4</title>
<path fill="none" stroke="midnightblue" d="M101.58,-81.79C110.46,-72.13 120.04,-61.71 128.41,-52.61"/>
<polygon fill="midnightblue" stroke="midnightblue" points="98.83,-79.61 94.64,-89.34 103.98,-84.34 98.83,-79.61"/>
</g>
<!-- Node5&#45;&gt;Node4 -->
<g id="edge5" class="edge">
<title>Node5&#45;&gt;Node4</title>
<path fill="none" stroke="midnightblue" d="M202.05,-81.79C193.05,-72.13 183.35,-61.71 174.88,-52.61"/>
<polygon fill="midnightblue" stroke="midnightblue" points="199.7,-84.4 209.07,-89.34 204.82,-79.63 199.7,-84.4"/>
</g>
</g>
</svg>
