<?xml version="1.0" encoding="UTF-8" standalone="no"?>
<!DOCTYPE svg PUBLIC "-//W3C//DTD SVG 1.1//EN"
 "http://www.w3.org/Graphics/SVG/1.1/DTD/svg11.dtd">
<!-- Generated by graphviz version 2.43.20190912.0211 (20190912.0211)
 -->
<!-- Title: /home/joao/Documents/UniStuff/2_1things/AEDA/FEUP&#45;AEDA&#45;Proj1/include/filter.h Pages: 1 -->
<!--zoomable 341 -->
<svg id="main" version="1.1" xmlns="http://www.w3.org/2000/svg" xmlns:xlink="http://www.w3.org/1999/xlink" xml:space="preserve" onload="init(evt)">
<style type="text/css"><![CDATA[
.edge:hover path { stroke: red; }
.edge:hover polygon { stroke: red; fill: red; }
]]></style>
<script type="text/javascript"><![CDATA[
var edges = document.getElementsByTagName('g');
if (edges && edges.length) {
  for (var i=0;i<edges.length;i++) {
    if (edges[i].id.substr(0,4)=='edge') {
      edges[i].setAttribute('class','edge');
    }
  }
}
]]></script>
        <defs>
                <circle id="rim" cx="0" cy="0" r="7"/>
                <circle id="rim2" cx="0" cy="0" r="3.5"/>
                <g id="zoomPlus">
                        <use xlink:href="#rim" fill="#404040">
                                <set attributeName="fill" to="#808080" begin="zoomplus.mouseover" end="zoomplus.mouseout"/>
                        </use>
                        <path d="M-4,0h8M0,-4v8" fill="none" stroke="white" stroke-width="1.5" pointer-events="none"/>
                </g>
                <g id="zoomMin">
                        <use xlink:href="#rim" fill="#404040">
                                <set attributeName="fill" to="#808080" begin="zoomminus.mouseover" end="zoomminus.mouseout"/>
                        </use>
                        <path d="M-4,0h8" fill="none" stroke="white" stroke-width="1.5" pointer-events="none"/>
                </g>
                <g id="dirArrow">
                        <path fill="none" stroke="white" stroke-width="1.5" d="M0,-3.0v7 M-2.5,-0.5L0,-3.0L2.5,-0.5"/>
                </g>
               <g id="resetDef">
                       <use xlink:href="#rim2" fill="#404040">
                               <set attributeName="fill" to="#808080" begin="reset.mouseover" end="reset.mouseout"/>
                       </use>
               </g>
        </defs>

<script type="text/javascript">
var viewWidth = 887;
var viewHeight = 341;
var sectionId = 'dynsection-0';
</script>
<script xlink:href="svgpan.js"/>
<svg id="graph" class="graph">
<g id="viewport">
<title>/home/joao/Documents/UniStuff/2_1things/AEDA/FEUP&#45;AEDA&#45;Proj1/include/filter.h</title>
<!-- Node1 -->
<g id="node1" class="node">
<title>Node1</title>
<g id="a_node1"><a xlink:title=" ">
<polygon fill="#bfbfbf" stroke="black" points="442.86,-280.5 442.86,-332.5 585.86,-332.5 585.86,-280.5 442.86,-280.5"/>
<text text-anchor="start" x="450.86" y="-320.5" font-family="Helvetica,sans-Serif" font-size="10.00">/home/joao/Documents</text>
<text text-anchor="start" x="450.86" y="-309.5" font-family="Helvetica,sans-Serif" font-size="10.00">/UniStuff/2_1things/AEDA</text>
<text text-anchor="start" x="450.86" y="-298.5" font-family="Helvetica,sans-Serif" font-size="10.00">/FEUP&#45;AEDA&#45;Proj1/include</text>
<text text-anchor="middle" x="514.36" y="-287.5" font-family="Helvetica,sans-Serif" font-size="10.00">/filter.h</text>
</a>
</g>
</g>
<!-- Node2 -->
<g id="node2" class="node">
<title>Node2</title>
<g id="a_node2"><a xlink:title=" ">
<polygon fill="none" stroke="#bfbfbf" points="239.36,-224.5 239.36,-243.5 303.36,-243.5 303.36,-224.5 239.36,-224.5"/>
<text text-anchor="middle" x="271.36" y="-231.5" font-family="Helvetica,sans-Serif" font-size="10.00">algorithm</text>
</a>
</g>
</g>
<!-- Node1&#45;&gt;Node2 -->
<g id="edge1" class="edge">
<title>Node1&#45;&gt;Node2</title>
<path fill="none" stroke="midnightblue" d="M442.77,-284.73C399.7,-272.23 346.51,-256.8 310.9,-246.47"/>
<polygon fill="midnightblue" stroke="midnightblue" points="311.48,-242.99 300.9,-243.57 309.53,-249.72 311.48,-242.99"/>
</g>
<!-- Node3 -->
<g id="node3" class="node">
<title>Node3</title>
<g id="a_node3"><a xlink:title=" ">
<polygon fill="none" stroke="#bfbfbf" points="14.86,-112.5 14.86,-131.5 61.86,-131.5 61.86,-112.5 14.86,-112.5"/>
<text text-anchor="middle" x="38.36" y="-119.5" font-family="Helvetica,sans-Serif" font-size="10.00">vector</text>
</a>
</g>
</g>
<!-- Node1&#45;&gt;Node3 -->
<g id="edge2" class="edge">
<title>Node1&#45;&gt;Node3</title>
<path fill="none" stroke="midnightblue" d="M453.56,-280.41C413.56,-264.04 359.99,-242.38 312.36,-224 225.9,-190.63 123.2,-153.41 71.54,-134.86"/>
<polygon fill="midnightblue" stroke="midnightblue" points="72.51,-131.49 61.91,-131.41 70.14,-138.08 72.51,-131.49"/>
</g>
<!-- Node4 -->
<g id="node4" class="node">
<title>Node4</title>
<g id="a_node4"><a xlink:title=" ">
<polygon fill="none" stroke="#bfbfbf" points="454.36,-56.5 454.36,-75.5 498.36,-75.5 498.36,-56.5 454.36,-56.5"/>
<text text-anchor="middle" x="476.36" y="-63.5" font-family="Helvetica,sans-Serif" font-size="10.00">string</text>
</a>
</g>
</g>
<!-- Node1&#45;&gt;Node4 -->
<g id="edge3" class="edge">
<title>Node1&#45;&gt;Node4</title>
<path fill="none" stroke="midnightblue" d="M510.37,-280.43C502.72,-232.44 486.18,-128.6 479.38,-85.91"/>
<polygon fill="midnightblue" stroke="midnightblue" points="482.8,-85.13 477.77,-75.8 475.88,-86.23 482.8,-85.13"/>
</g>
<!-- Node5 -->
<g id="node5" class="node">
<title>Node5</title>
<g id="a_node5"><a xlink:href="address_8h.html" target="_top" xlink:title=" ">
<polygon fill="none" stroke="black" points="580.36,-112.5 580.36,-131.5 644.36,-131.5 644.36,-112.5 580.36,-112.5"/>
<text text-anchor="middle" x="612.36" y="-119.5" font-family="Helvetica,sans-Serif" font-size="10.00">address.h</text>
</a>
</g>
</g>
<!-- Node1&#45;&gt;Node5 -->
<g id="edge4" class="edge">
<title>Node1&#45;&gt;Node5</title>
<path fill="none" stroke="midnightblue" d="M521.51,-280.2C526.61,-263.75 534.17,-242.07 543.36,-224 559.41,-192.46 583.79,-159.2 598.87,-139.81"/>
<polygon fill="midnightblue" stroke="midnightblue" points="601.82,-141.72 605.26,-131.7 596.32,-137.39 601.82,-141.72"/>
</g>
<!-- Node8 -->
<g id="node8" class="node">
<title>Node8</title>
<g id="a_node8"><a xlink:href="enterprise_8h.html" target="_top" xlink:title=" ">
<polygon fill="none" stroke="black" points="552.86,-224.5 552.86,-243.5 627.86,-243.5 627.86,-224.5 552.86,-224.5"/>
<text text-anchor="middle" x="590.36" y="-231.5" font-family="Helvetica,sans-Serif" font-size="10.00">enterprise.h</text>
</a>
</g>
</g>
<!-- Node1&#45;&gt;Node8 -->
<g id="edge8" class="edge">
<title>Node1&#45;&gt;Node8</title>
<path fill="none" stroke="midnightblue" d="M541.37,-280.45C552.06,-270.53 564.03,-259.43 573.45,-250.69"/>
<polygon fill="midnightblue" stroke="midnightblue" points="576.04,-253.06 580.99,-243.7 571.28,-247.93 576.04,-253.06"/>
</g>
<!-- Node9 -->
<g id="node9" class="node">
<title>Node9</title>
<g id="a_node9"><a xlink:href="event_8h.html" target="_top" xlink:title=" ">
<polygon fill="none" stroke="black" points="742.86,-168.5 742.86,-187.5 843.86,-187.5 843.86,-168.5 742.86,-168.5"/>
<text text-anchor="middle" x="793.36" y="-175.5" font-family="Helvetica,sans-Serif" font-size="10.00">../include/event.h</text>
</a>
</g>
</g>
<!-- Node1&#45;&gt;Node9 -->
<g id="edge25" class="edge">
<title>Node1&#45;&gt;Node9</title>
<path fill="none" stroke="midnightblue" d="M576.14,-280.37C602.27,-269.52 632.95,-256.46 660.36,-244 698.08,-226.86 741.03,-205.53 767.67,-192.09"/>
<polygon fill="midnightblue" stroke="midnightblue" points="769.37,-195.15 776.71,-187.51 766.21,-188.9 769.37,-195.15"/>
</g>
<!-- Node11 -->
<g id="node11" class="node">
<title>Node11</title>
<g id="a_node11"><a xlink:href="date_8h.html" target="_top" xlink:title=" ">
<polygon fill="none" stroke="black" points="772.86,-56.5 772.86,-75.5 819.86,-75.5 819.86,-56.5 772.86,-56.5"/>
<text text-anchor="middle" x="796.36" y="-63.5" font-family="Helvetica,sans-Serif" font-size="10.00">date.h</text>
</a>
</g>
</g>
<!-- Node1&#45;&gt;Node11 -->
<g id="edge26" class="edge">
<title>Node1&#45;&gt;Node11</title>
<path fill="none" stroke="midnightblue" d="M586.18,-299.57C662.74,-289.43 782.52,-262.03 853.36,-188 877.29,-162.99 887.33,-142.17 870.36,-112 861.51,-96.26 844.69,-85.39 829.31,-78.28"/>
<polygon fill="midnightblue" stroke="midnightblue" points="830.58,-75.01 820.01,-74.33 827.84,-81.46 830.58,-75.01"/>
</g>
<!-- Node14 -->
<g id="node14" class="node">
<title>Node14</title>
<g id="a_node14"><a xlink:href="cards_8h.html" target="_top" xlink:title=" ">
<polygon fill="none" stroke="black" points="359.36,-168.5 359.36,-187.5 411.36,-187.5 411.36,-168.5 359.36,-168.5"/>
<text text-anchor="middle" x="385.36" y="-175.5" font-family="Helvetica,sans-Serif" font-size="10.00">cards.h</text>
</a>
</g>
</g>
<!-- Node1&#45;&gt;Node14 -->
<g id="edge27" class="edge">
<title>Node1&#45;&gt;Node14</title>
<path fill="none" stroke="midnightblue" d="M488.57,-280.2C462.51,-254.65 423.06,-215.97 401.26,-194.59"/>
<polygon fill="midnightblue" stroke="midnightblue" points="403.67,-192.05 394.08,-187.55 398.77,-197.05 403.67,-192.05"/>
</g>
<!-- Node20 -->
<g id="node20" class="node">
<title>Node20</title>
<g id="a_node20"><a xlink:href="museum_8h.html" target="_top" xlink:title=" ">
<polygon fill="none" stroke="black" points="656.36,-168.5 656.36,-187.5 724.36,-187.5 724.36,-168.5 656.36,-168.5"/>
<text text-anchor="middle" x="690.36" y="-175.5" font-family="Helvetica,sans-Serif" font-size="10.00">museum.h</text>
</a>
</g>
</g>
<!-- Node1&#45;&gt;Node20 -->
<g id="edge43" class="edge">
<title>Node1&#45;&gt;Node20</title>
<path fill="none" stroke="midnightblue" d="M576.26,-280.38C596.49,-270.63 618.36,-258.33 636.36,-244 653.69,-230.21 669.36,-210.09 679.3,-195.89"/>
<polygon fill="midnightblue" stroke="midnightblue" points="682.24,-197.78 684.96,-187.54 676.45,-193.85 682.24,-197.78"/>
</g>
<!-- Node5&#45;&gt;Node4 -->
<g id="edge7" class="edge">
<title>Node5&#45;&gt;Node4</title>
<path fill="none" stroke="midnightblue" d="M590.81,-112.44C568.33,-103.52 532.88,-89.44 507.38,-79.32"/>
<polygon fill="midnightblue" stroke="midnightblue" points="508.4,-75.95 497.81,-75.52 505.81,-82.46 508.4,-75.95"/>
</g>
<!-- Node6 -->
<g id="node6" class="node">
<title>Node6</title>
<g id="a_node6"><a xlink:title=" ">
<polygon fill="none" stroke="#bfbfbf" points="584.86,-0.5 584.86,-19.5 639.86,-19.5 639.86,-0.5 584.86,-0.5"/>
<text text-anchor="middle" x="612.36" y="-7.5" font-family="Helvetica,sans-Serif" font-size="10.00">fstream</text>
</a>
</g>
</g>
<!-- Node5&#45;&gt;Node6 -->
<g id="edge5" class="edge">
<title>Node5&#45;&gt;Node6</title>
<path fill="none" stroke="midnightblue" d="M612.36,-112.37C612.36,-94.62 612.36,-53.67 612.36,-29.6"/>
<polygon fill="midnightblue" stroke="midnightblue" points="615.86,-29.59 612.36,-19.59 608.86,-29.59 615.86,-29.59"/>
</g>
<!-- Node7 -->
<g id="node7" class="node">
<title>Node7</title>
<g id="a_node7"><a xlink:title=" ">
<polygon fill="none" stroke="#bfbfbf" points="677.36,-0.5 677.36,-19.5 737.36,-19.5 737.36,-0.5 677.36,-0.5"/>
<text text-anchor="middle" x="707.36" y="-7.5" font-family="Helvetica,sans-Serif" font-size="10.00">iostream</text>
</a>
</g>
</g>
<!-- Node5&#45;&gt;Node7 -->
<g id="edge6" class="edge">
<title>Node5&#45;&gt;Node7</title>
<path fill="none" stroke="midnightblue" d="M619.82,-112.37C635.63,-94.05 672.78,-51.05 693.23,-27.36"/>
<polygon fill="midnightblue" stroke="midnightblue" points="696.06,-29.45 699.94,-19.59 690.76,-24.87 696.06,-29.45"/>
</g>
<!-- Node8&#45;&gt;Node4 -->
<g id="edge24" class="edge">
<title>Node8&#45;&gt;Node4</title>
<path fill="none" stroke="midnightblue" d="M584.23,-224.08C566.06,-197.61 512.22,-119.21 488.18,-84.21"/>
<polygon fill="midnightblue" stroke="midnightblue" points="490.79,-81.83 482.25,-75.57 485.02,-85.79 490.79,-81.83"/>
</g>
<!-- Node8&#45;&gt;Node5 -->
<g id="edge9" class="edge">
<title>Node8&#45;&gt;Node5</title>
<path fill="none" stroke="midnightblue" d="M592.09,-224.37C595.64,-206.62 603.83,-165.67 608.64,-141.6"/>
<polygon fill="midnightblue" stroke="midnightblue" points="612.12,-142.08 610.64,-131.59 605.25,-140.71 612.12,-142.08"/>
</g>
<!-- Node8&#45;&gt;Node9 -->
<g id="edge10" class="edge">
<title>Node8&#45;&gt;Node9</title>
<path fill="none" stroke="midnightblue" d="M622.53,-224.44C657.42,-215.16 713.26,-200.31 751.53,-190.13"/>
<polygon fill="midnightblue" stroke="midnightblue" points="752.58,-193.47 761.35,-187.52 750.78,-186.7 752.58,-193.47"/>
</g>
<!-- Node13 -->
<g id="node13" class="node">
<title>Node13</title>
<g id="a_node13"><a xlink:title=" ">
<polygon fill="none" stroke="#bfbfbf" points="662.36,-112.5 662.36,-131.5 694.36,-131.5 694.36,-112.5 662.36,-112.5"/>
<text text-anchor="middle" x="678.36" y="-119.5" font-family="Helvetica,sans-Serif" font-size="10.00">set</text>
</a>
</g>
</g>
<!-- Node8&#45;&gt;Node13 -->
<g id="edge23" class="edge">
<title>Node8&#45;&gt;Node13</title>
<path fill="none" stroke="midnightblue" d="M597.27,-224.37C611.86,-206.14 646.02,-163.43 665.02,-139.68"/>
<polygon fill="midnightblue" stroke="midnightblue" points="667.98,-141.59 671.49,-131.59 662.51,-137.21 667.98,-141.59"/>
</g>
<!-- Node9&#45;&gt;Node4 -->
<g id="edge20" class="edge">
<title>Node9&#45;&gt;Node4</title>
<path fill="none" stroke="midnightblue" d="M784.23,-168.29C768.85,-154.14 736.23,-126.31 703.36,-112 637.88,-83.49 553.9,-72.88 508.67,-69.05"/>
<polygon fill="midnightblue" stroke="midnightblue" points="508.81,-65.55 498.57,-68.26 508.27,-72.53 508.81,-65.55"/>
</g>
<!-- Node9&#45;&gt;Node5 -->
<g id="edge19" class="edge">
<title>Node9&#45;&gt;Node5</title>
<path fill="none" stroke="midnightblue" d="M764.68,-168.44C733.84,-159.24 684.63,-144.56 650.53,-134.39"/>
<polygon fill="midnightblue" stroke="midnightblue" points="651.49,-131.02 640.91,-131.52 649.49,-137.73 651.49,-131.02"/>
</g>
<!-- Node9&#45;&gt;Node7 -->
<g id="edge22" class="edge">
<title>Node9&#45;&gt;Node7</title>
<path fill="none" stroke="midnightblue" d="M821.74,-168.49C839.12,-161.65 859.96,-150.13 870.36,-132 874.79,-124.29 873.13,-120.45 870.36,-112 860.78,-82.68 853.99,-74.57 829.36,-56 805.2,-37.78 772.9,-26.31 747.6,-19.5"/>
<polygon fill="midnightblue" stroke="midnightblue" points="748.14,-16.03 737.58,-16.95 746.41,-22.81 748.14,-16.03"/>
</g>
<!-- Node10 -->
<g id="node10" class="node">
<title>Node10</title>
<g id="a_node10"><a xlink:href="time_8h.html" target="_top" xlink:title=" ">
<polygon fill="none" stroke="black" points="750.86,-112.5 750.86,-131.5 845.86,-131.5 845.86,-112.5 750.86,-112.5"/>
<text text-anchor="middle" x="798.36" y="-119.5" font-family="Helvetica,sans-Serif" font-size="10.00">../include/time.h</text>
</a>
</g>
</g>
<!-- Node9&#45;&gt;Node10 -->
<g id="edge11" class="edge">
<title>Node9&#45;&gt;Node10</title>
<path fill="none" stroke="midnightblue" d="M794.19,-168.08C794.84,-161.01 795.78,-150.86 796.61,-141.99"/>
<polygon fill="midnightblue" stroke="midnightblue" points="800.12,-142.03 797.55,-131.75 793.15,-141.39 800.12,-142.03"/>
</g>
<!-- Node9&#45;&gt;Node11 -->
<g id="edge18" class="edge">
<title>Node9&#45;&gt;Node11</title>
<path fill="none" stroke="midnightblue" d="M813.59,-168.49C828.13,-161.17 846.66,-149.06 855.36,-132 865.75,-111.63 843.7,-92.81 823.66,-80.72"/>
<polygon fill="midnightblue" stroke="midnightblue" points="825.15,-77.54 814.72,-75.66 821.7,-83.63 825.15,-77.54"/>
</g>
<!-- Node9&#45;&gt;Node13 -->
<g id="edge21" class="edge">
<title>Node9&#45;&gt;Node13</title>
<path fill="none" stroke="midnightblue" d="M775.14,-168.44C755.92,-159.42 725.48,-145.12 703.87,-134.98"/>
<polygon fill="midnightblue" stroke="midnightblue" points="705.18,-131.73 694.64,-130.64 702.2,-138.06 705.18,-131.73"/>
</g>
<!-- Node10&#45;&gt;Node6 -->
<g id="edge12" class="edge">
<title>Node10&#45;&gt;Node6</title>
<path fill="none" stroke="midnightblue" d="M783.77,-112.37C751.71,-93.41 674.93,-48 635.94,-24.94"/>
<polygon fill="midnightblue" stroke="midnightblue" points="637.28,-21.67 626.89,-19.59 633.72,-27.69 637.28,-21.67"/>
</g>
<!-- Node10&#45;&gt;Node7 -->
<g id="edge13" class="edge">
<title>Node10&#45;&gt;Node7</title>
<path fill="none" stroke="midnightblue" d="M791.22,-112.37C776.07,-94.05 740.49,-51.05 720.9,-27.36"/>
<polygon fill="midnightblue" stroke="midnightblue" points="723.54,-25.07 714.47,-19.59 718.15,-29.53 723.54,-25.07"/>
</g>
<!-- Node10&#45;&gt;Node11 -->
<g id="edge14" class="edge">
<title>Node10&#45;&gt;Node11</title>
<path fill="none" stroke="midnightblue" d="M798.03,-112.08C797.77,-105.01 797.4,-94.86 797.07,-85.99"/>
<polygon fill="midnightblue" stroke="midnightblue" points="800.56,-85.61 796.69,-75.75 793.56,-85.87 800.56,-85.61"/>
</g>
<!-- Node11&#45;&gt;Node6 -->
<g id="edge16" class="edge">
<title>Node11&#45;&gt;Node6</title>
<path fill="none" stroke="midnightblue" d="M772.69,-58.05C741.63,-48.94 686.79,-32.84 650.01,-22.05"/>
<polygon fill="midnightblue" stroke="midnightblue" points="650.74,-18.61 640.15,-19.16 648.76,-25.33 650.74,-18.61"/>
</g>
<!-- Node11&#45;&gt;Node7 -->
<g id="edge17" class="edge">
<title>Node11&#45;&gt;Node7</title>
<path fill="none" stroke="midnightblue" d="M782.06,-56.32C768.18,-47.9 746.87,-34.97 730.56,-25.07"/>
<polygon fill="midnightblue" stroke="midnightblue" points="731.99,-21.85 721.63,-19.65 728.36,-27.83 731.99,-21.85"/>
</g>
<!-- Node12 -->
<g id="node12" class="node">
<title>Node12</title>
<g id="a_node12"><a xlink:title=" ">
<polygon fill="none" stroke="#bfbfbf" points="774.36,-0.5 774.36,-19.5 818.36,-19.5 818.36,-0.5 774.36,-0.5"/>
<text text-anchor="middle" x="796.36" y="-7.5" font-family="Helvetica,sans-Serif" font-size="10.00">ctime</text>
</a>
</g>
</g>
<!-- Node11&#45;&gt;Node12 -->
<g id="edge15" class="edge">
<title>Node11&#45;&gt;Node12</title>
<path fill="none" stroke="midnightblue" d="M796.36,-56.08C796.36,-49.01 796.36,-38.86 796.36,-29.99"/>
<polygon fill="midnightblue" stroke="midnightblue" points="799.86,-29.75 796.36,-19.75 792.86,-29.75 799.86,-29.75"/>
</g>
<!-- Node14&#45;&gt;Node3 -->
<g id="edge31" class="edge">
<title>Node14&#45;&gt;Node3</title>
<path fill="none" stroke="midnightblue" d="M359.18,-170.75C354.59,-169.76 349.85,-168.8 345.36,-168 227.62,-147.06 193.56,-155.72 72.13,-131.89"/>
<polygon fill="midnightblue" stroke="midnightblue" points="72.56,-128.4 62.06,-129.88 71.19,-135.27 72.56,-128.4"/>
</g>
<!-- Node14&#45;&gt;Node4 -->
<g id="edge30" class="edge">
<title>Node14&#45;&gt;Node4</title>
<path fill="none" stroke="midnightblue" d="M392.5,-168.37C407.65,-150.05 443.23,-107.05 462.83,-83.36"/>
<polygon fill="midnightblue" stroke="midnightblue" points="465.58,-85.53 469.26,-75.59 460.18,-81.07 465.58,-85.53"/>
</g>
<!-- Node14&#45;&gt;Node5 -->
<g id="edge32" class="edge">
<title>Node14&#45;&gt;Node5</title>
<path fill="none" stroke="midnightblue" d="M411.4,-170.81C450.24,-161.57 523.76,-144.08 570.29,-133.01"/>
<polygon fill="midnightblue" stroke="midnightblue" points="571.15,-136.4 580.07,-130.68 569.53,-129.59 571.15,-136.4"/>
</g>
<!-- Node14&#45;&gt;Node6 -->
<g id="edge28" class="edge">
<title>Node14&#45;&gt;Node6</title>
<path fill="none" stroke="midnightblue" d="M359.15,-170.53C319.84,-160.57 249.43,-141.63 242.36,-132 222.38,-104.77 219.97,-81.29 242.36,-56 264.19,-31.36 485,-17.46 574.74,-12.8"/>
<polygon fill="midnightblue" stroke="midnightblue" points="574.96,-16.29 584.77,-12.28 574.6,-9.3 574.96,-16.29"/>
</g>
<!-- Node14&#45;&gt;Node7 -->
<g id="edge29" class="edge">
<title>Node14&#45;&gt;Node7</title>
<path fill="none" stroke="midnightblue" d="M359.25,-169.96C329.91,-161.45 285.08,-146.48 275.36,-132 257.65,-105.62 293.31,-64.1 305.36,-56 369.16,-13.13 573.14,-29.9 649.36,-20 655.19,-19.24 661.33,-18.37 667.36,-17.47"/>
<polygon fill="midnightblue" stroke="midnightblue" points="667.94,-20.92 677.3,-15.96 666.89,-14.01 667.94,-20.92"/>
</g>
<!-- Node14&#45;&gt;Node11 -->
<g id="edge33" class="edge">
<title>Node14&#45;&gt;Node11</title>
<path fill="none" stroke="midnightblue" d="M406.82,-168.41C441.12,-154.91 510.65,-128.59 571.36,-112 638.42,-93.67 718.61,-79.42 762.87,-72.21"/>
<polygon fill="midnightblue" stroke="midnightblue" points="763.48,-75.65 772.79,-70.61 762.36,-68.74 763.48,-75.65"/>
</g>
<!-- Node15 -->
<g id="node15" class="node">
<title>Node15</title>
<g id="a_node15"><a xlink:href="exceptions_8h.html" target="_top" xlink:title=" ">
<polygon fill="none" stroke="black" points="284.36,-112.5 284.36,-131.5 410.36,-131.5 410.36,-112.5 284.36,-112.5"/>
<text text-anchor="middle" x="347.36" y="-119.5" font-family="Helvetica,sans-Serif" font-size="10.00">../include/exceptions.h</text>
</a>
</g>
</g>
<!-- Node14&#45;&gt;Node15 -->
<g id="edge34" class="edge">
<title>Node14&#45;&gt;Node15</title>
<path fill="none" stroke="midnightblue" d="M379.09,-168.08C373.72,-160.46 365.85,-149.26 359.28,-139.94"/>
<polygon fill="midnightblue" stroke="midnightblue" points="362.14,-137.91 353.52,-131.75 356.41,-141.94 362.14,-137.91"/>
</g>
<!-- Node17 -->
<g id="node17" class="node">
<title>Node17</title>
<g id="a_node17"><a xlink:href="utilities_8h.html" target="_top" xlink:title=" ">
<polygon fill="none" stroke="black" points="80.36,-112.5 80.36,-131.5 190.36,-131.5 190.36,-112.5 80.36,-112.5"/>
<text text-anchor="middle" x="135.36" y="-119.5" font-family="Helvetica,sans-Serif" font-size="10.00">../include/utilities.h</text>
</a>
</g>
</g>
<!-- Node14&#45;&gt;Node17 -->
<g id="edge37" class="edge">
<title>Node14&#45;&gt;Node17</title>
<path fill="none" stroke="midnightblue" d="M359.12,-171.06C354.54,-170.03 349.81,-168.98 345.36,-168 290.74,-156 228.05,-142.62 185.48,-133.59"/>
<polygon fill="midnightblue" stroke="midnightblue" points="186.16,-130.15 175.65,-131.5 184.7,-137 186.16,-130.15"/>
</g>
<!-- Node15&#45;&gt;Node4 -->
<g id="edge36" class="edge">
<title>Node15&#45;&gt;Node4</title>
<path fill="none" stroke="midnightblue" d="M367.8,-112.44C389.03,-103.56 422.46,-89.56 446.62,-79.45"/>
<polygon fill="midnightblue" stroke="midnightblue" points="448.15,-82.61 456.02,-75.52 445.44,-76.15 448.15,-82.61"/>
</g>
<!-- Node16 -->
<g id="node16" class="node">
<title>Node16</title>
<g id="a_node16"><a xlink:title=" ">
<polygon fill="none" stroke="#bfbfbf" points="314.86,-56.5 314.86,-75.5 379.86,-75.5 379.86,-56.5 314.86,-56.5"/>
<text text-anchor="middle" x="347.36" y="-63.5" font-family="Helvetica,sans-Serif" font-size="10.00">stdexcept</text>
</a>
</g>
</g>
<!-- Node15&#45;&gt;Node16 -->
<g id="edge35" class="edge">
<title>Node15&#45;&gt;Node16</title>
<path fill="none" stroke="midnightblue" d="M347.36,-112.08C347.36,-105.01 347.36,-94.86 347.36,-85.99"/>
<polygon fill="midnightblue" stroke="midnightblue" points="350.86,-85.75 347.36,-75.75 343.86,-85.75 350.86,-85.75"/>
</g>
<!-- Node17&#45;&gt;Node4 -->
<g id="edge38" class="edge">
<title>Node17&#45;&gt;Node4</title>
<path fill="none" stroke="midnightblue" d="M189.4,-112.44C261.17,-101.08 385.71,-81.36 444.23,-72.09"/>
<polygon fill="midnightblue" stroke="midnightblue" points="445.03,-75.51 454.36,-70.48 443.94,-68.59 445.03,-75.51"/>
</g>
<!-- Node17&#45;&gt;Node6 -->
<g id="edge40" class="edge">
<title>Node17&#45;&gt;Node6</title>
<path fill="none" stroke="midnightblue" d="M82.11,-112.49C35.96,-102.97 -19.51,-84.95 7.36,-56 45.92,-14.47 447.28,-10.96 574.15,-10.9"/>
<polygon fill="midnightblue" stroke="midnightblue" points="574.52,-14.4 584.52,-10.9 574.52,-7.4 574.52,-14.4"/>
</g>
<!-- Node17&#45;&gt;Node7 -->
<g id="edge39" class="edge">
<title>Node17&#45;&gt;Node7</title>
<path fill="none" stroke="midnightblue" d="M145.78,-112.37C164.03,-97.82 203.54,-68.74 242.36,-56 414.91,0.62 469.1,-41.93 649.36,-20 655.2,-19.29 661.34,-18.44 667.37,-17.56"/>
<polygon fill="midnightblue" stroke="midnightblue" points="667.95,-21.01 677.31,-16.05 666.9,-14.09 667.95,-21.01"/>
</g>
<!-- Node18 -->
<g id="node18" class="node">
<title>Node18</title>
<g id="a_node18"><a xlink:title=" ">
<polygon fill="none" stroke="#bfbfbf" points="16.36,-56.5 16.36,-75.5 70.36,-75.5 70.36,-56.5 16.36,-56.5"/>
<text text-anchor="middle" x="43.36" y="-63.5" font-family="Helvetica,sans-Serif" font-size="10.00">istream</text>
</a>
</g>
</g>
<!-- Node17&#45;&gt;Node18 -->
<g id="edge41" class="edge">
<title>Node17&#45;&gt;Node18</title>
<path fill="none" stroke="midnightblue" d="M120.58,-112.32C106.1,-103.82 83.79,-90.73 66.87,-80.8"/>
<polygon fill="midnightblue" stroke="midnightblue" points="68.5,-77.7 58.11,-75.65 64.96,-83.74 68.5,-77.7"/>
</g>
<!-- Node19 -->
<g id="node19" class="node">
<title>Node19</title>
<g id="a_node19"><a xlink:title=" ">
<polygon fill="none" stroke="#bfbfbf" points="88.36,-56.5 88.36,-75.5 152.36,-75.5 152.36,-56.5 88.36,-56.5"/>
<text text-anchor="middle" x="120.36" y="-63.5" font-family="Helvetica,sans-Serif" font-size="10.00">sys/stat.h</text>
</a>
</g>
</g>
<!-- Node17&#45;&gt;Node19 -->
<g id="edge42" class="edge">
<title>Node17&#45;&gt;Node19</title>
<path fill="none" stroke="midnightblue" d="M132.89,-112.08C130.88,-104.85 127.98,-94.41 125.47,-85.4"/>
<polygon fill="midnightblue" stroke="midnightblue" points="128.84,-84.45 122.79,-75.75 122.1,-86.32 128.84,-84.45"/>
</g>
<!-- Node20&#45;&gt;Node5 -->
<g id="edge44" class="edge">
<title>Node20&#45;&gt;Node5</title>
<path fill="none" stroke="midnightblue" d="M677.83,-168.32C665.78,-159.98 647.34,-147.21 633.09,-137.35"/>
<polygon fill="midnightblue" stroke="midnightblue" points="635.08,-134.47 624.86,-131.65 631.09,-140.22 635.08,-134.47"/>
</g>
<!-- Node20&#45;&gt;Node10 -->
<g id="edge45" class="edge">
<title>Node20&#45;&gt;Node10</title>
<path fill="none" stroke="midnightblue" d="M707.72,-168.32C725.04,-159.66 751.88,-146.24 771.87,-136.25"/>
<polygon fill="midnightblue" stroke="midnightblue" points="773.68,-139.26 781.05,-131.65 770.54,-133 773.68,-139.26"/>
</g>
</g>
</svg>
        <g id="navigator" transform="translate(0 0)" fill="#404254">
                <rect fill="#f2f5e9" fill-opacity="0.5" stroke="#606060" stroke-width=".5" x="0" y="0" width="60" height="60"/>
                <use id="zoomplus" xlink:href="#zoomPlus" x="17" y="9" onmousedown="handleZoom(evt,'in')"/>
                <use id="zoomminus" xlink:href="#zoomMin" x="42" y="9" onmousedown="handleZoom(evt,'out')"/>
                <use id="reset" xlink:href="#resetDef" x="30" y="36" onmousedown="handleReset()"/>
                <g id="arrowUp" xlink:href="#dirArrow" transform="translate(30 24)" onmousedown="handlePan(0,-1)">
                  <use xlink:href="#rim" fill="#404040">
                        <set attributeName="fill" to="#808080" begin="arrowUp.mouseover" end="arrowUp.mouseout"/>
                  </use>
                  <path fill="none" stroke="white" stroke-width="1.5" d="M0,-3.0v7 M-2.5,-0.5L0,-3.0L2.5,-0.5"/>
                </g>
                <g id="arrowRight" xlink:href="#dirArrow" transform="rotate(90) translate(36 -43)" onmousedown="handlePan(1,0)">
                  <use xlink:href="#rim" fill="#404040">
                        <set attributeName="fill" to="#808080" begin="arrowRight.mouseover" end="arrowRight.mouseout"/>
                  </use>
                  <path fill="none" stroke="white" stroke-width="1.5" d="M0,-3.0v7 M-2.5,-0.5L0,-3.0L2.5,-0.5"/>
                </g>
                <g id="arrowDown" xlink:href="#dirArrow" transform="rotate(180) translate(-30 -48)" onmousedown="handlePan(0,1)">
                  <use xlink:href="#rim" fill="#404040">
                        <set attributeName="fill" to="#808080" begin="arrowDown.mouseover" end="arrowDown.mouseout"/>
                  </use>
                  <path fill="none" stroke="white" stroke-width="1.5" d="M0,-3.0v7 M-2.5,-0.5L0,-3.0L2.5,-0.5"/>
                </g>
                <g id="arrowLeft" xlink:href="#dirArrow" transform="rotate(270) translate(-36 17)" onmousedown="handlePan(-1,0)">
                  <use xlink:href="#rim" fill="#404040">
                        <set attributeName="fill" to="#808080" begin="arrowLeft.mouseover" end="arrowLeft.mouseout"/>
                  </use>
                  <path fill="none" stroke="white" stroke-width="1.5" d="M0,-3.0v7 M-2.5,-0.5L0,-3.0L2.5,-0.5"/>
                </g>
        </g>
        <svg viewBox="0 0 15 15" width="100%" height="30px" preserveAspectRatio="xMaxYMin meet">
         <g id="arrow_out" transform="scale(0.3 0.3)">
          <a xlink:href="filter_8h__incl_org.svg" target="_base">
           <rect id="button" ry="5" rx="5" y="6" x="6" height="38" width="38"
                fill="#f2f5e9" fill-opacity="0.5" stroke="#606060" stroke-width="1.0"/>
           <path id="arrow"
             d="M 11.500037,31.436501 C 11.940474,20.09759 22.043105,11.32322 32.158766,21.979434 L 37.068811,17.246167 C 37.068811,17.246167 37.088388,32 37.088388,32 L 22.160133,31.978069 C 22.160133,31.978069 26.997745,27.140456 26.997745,27.140456 C 18.528582,18.264221 13.291696,25.230495 11.500037,31.436501 z"
             style="fill:#404040;"/>
          </a>
         </g>
        </svg>
</svg>
