<?xml version="1.0" encoding="UTF-8" standalone="no"?>
<!DOCTYPE svg PUBLIC "-//W3C//DTD SVG 1.1//EN"
 "http://www.w3.org/Graphics/SVG/1.1/DTD/svg11.dtd">
<!-- Generated by graphviz version 2.43.20190912.0211 (20190912.0211)
 -->
<!-- Title: Graphical Class Hierarchy Pages: 1 -->
<svg width="345pt" height="134pt"
 viewBox="0.00 0.00 345.00 133.50" xmlns="http://www.w3.org/2000/svg" xmlns:xlink="http://www.w3.org/1999/xlink">
<g id="graph0" class="graph" transform="scale(1 1) rotate(0) translate(4 129.5)">
<title>Graphical Class Hierarchy</title>
<!-- Node0 -->
<g id="node1" class="node">
<title>Node0</title>
<g id="a_node1"><a xlink:href="classMenu.html" target="_top" xlink:title=" ">
<polygon fill="none" stroke="black" points="0,-38.5 0,-57.5 44,-57.5 44,-38.5 0,-38.5"/>
<text text-anchor="middle" x="22" y="-45.5" font-family="Helvetica,sans-Serif" font-size="10.00">Menu</text>
</a>
</g>
</g>
<!-- Node1 -->
<g id="node2" class="node">
<title>Node1</title>
<g id="a_node2"><a xlink:href="classMenuFilter.html" target="_top" xlink:title=" ">
<polygon fill="none" stroke="black" points="80,-76.5 80,-95.5 187,-95.5 187,-76.5 80,-76.5"/>
<text text-anchor="middle" x="133.5" y="-83.5" font-family="Helvetica,sans-Serif" font-size="10.00">MenuFilter&lt; Arg &gt;</text>
</a>
</g>
</g>
<!-- Node0&#45;&gt;Node1 -->
<g id="edge1" class="edge">
<title>Node0&#45;&gt;Node1</title>
<path fill="none" stroke="midnightblue" d="M53.6,-58.62C69.67,-64.2 89.2,-70.97 104.82,-76.39"/>
<polygon fill="midnightblue" stroke="midnightblue" points="54.71,-55.3 44.11,-55.33 52.41,-61.91 54.71,-55.3"/>
</g>
<!-- Node4 -->
<g id="node5" class="node">
<title>Node4</title>
<g id="a_node5"><a xlink:href="classMenuOptions.html" target="_top" xlink:title=" ">
<polygon fill="none" stroke="black" points="93,-38.5 93,-57.5 174,-57.5 174,-38.5 93,-38.5"/>
<text text-anchor="middle" x="133.5" y="-45.5" font-family="Helvetica,sans-Serif" font-size="10.00">MenuOptions</text>
</a>
</g>
</g>
<!-- Node0&#45;&gt;Node4 -->
<g id="edge4" class="edge">
<title>Node0&#45;&gt;Node4</title>
<path fill="none" stroke="midnightblue" d="M54.13,-48C66.17,-48 80.09,-48 92.83,-48"/>
<polygon fill="midnightblue" stroke="midnightblue" points="54.11,-44.5 44.11,-48 54.11,-51.5 54.11,-44.5"/>
</g>
<!-- Node5 -->
<g id="node6" class="node">
<title>Node5</title>
<g id="a_node6"><a xlink:href="classMenuSelelect.html" target="_top" xlink:title=" ">
<polygon fill="none" stroke="black" points="92,-0.5 92,-19.5 175,-19.5 175,-0.5 92,-0.5"/>
<text text-anchor="middle" x="133.5" y="-7.5" font-family="Helvetica,sans-Serif" font-size="10.00">MenuSelelect</text>
</a>
</g>
</g>
<!-- Node0&#45;&gt;Node5 -->
<g id="edge5" class="edge">
<title>Node0&#45;&gt;Node5</title>
<path fill="none" stroke="midnightblue" d="M53.6,-37.38C69.67,-31.8 89.2,-25.03 104.82,-19.61"/>
<polygon fill="midnightblue" stroke="midnightblue" points="52.41,-34.09 44.11,-40.67 54.71,-40.7 52.41,-34.09"/>
</g>
<!-- Node2 -->
<g id="node3" class="node">
<title>Node2</title>
<g id="a_node3"><a xlink:href="classMenuOptionsFilter.html" target="_top" xlink:title=" ">
<polygon fill="none" stroke="black" points="223,-95 223,-125 337,-125 337,-95 223,-95"/>
<text text-anchor="start" x="231" y="-113" font-family="Helvetica,sans-Serif" font-size="10.00">MenuOptionsFilter&lt;</text>
<text text-anchor="middle" x="280" y="-102" font-family="Helvetica,sans-Serif" font-size="10.00"> Arg &gt;</text>
</a>
</g>
</g>
<!-- Node1&#45;&gt;Node2 -->
<g id="edge2" class="edge">
<title>Node1&#45;&gt;Node2</title>
<path fill="none" stroke="midnightblue" d="M197.03,-96.38C205.6,-97.81 214.36,-99.26 222.81,-100.67"/>
<polygon fill="midnightblue" stroke="midnightblue" points="197.51,-92.92 187.08,-94.73 196.37,-99.82 197.51,-92.92"/>
</g>
<!-- Node3 -->
<g id="node4" class="node">
<title>Node3</title>
<g id="a_node4"><a xlink:href="classMenuSelelectFilter.html" target="_top" xlink:title=" ">
<polygon fill="none" stroke="black" points="226.5,-46 226.5,-76 333.5,-76 333.5,-46 226.5,-46"/>
<text text-anchor="start" x="234.5" y="-64" font-family="Helvetica,sans-Serif" font-size="10.00">MenuSelelectFilter</text>
<text text-anchor="middle" x="280" y="-53" font-family="Helvetica,sans-Serif" font-size="10.00">&lt; Arg &gt;</text>
</a>
</g>
</g>
<!-- Node1&#45;&gt;Node3 -->
<g id="edge3" class="edge">
<title>Node1&#45;&gt;Node3</title>
<path fill="none" stroke="midnightblue" d="M197.08,-75.17C206.8,-73.49 216.75,-71.77 226.22,-70.13"/>
<polygon fill="midnightblue" stroke="midnightblue" points="196.33,-71.75 187.08,-76.9 197.53,-78.65 196.33,-71.75"/>
</g>
</g>
</svg>
