<?xml version="1.0" encoding="UTF-8" standalone="no"?>
<!DOCTYPE svg PUBLIC "-//W3C//DTD SVG 1.1//EN"
 "http://www.w3.org/Graphics/SVG/1.1/DTD/svg11.dtd">
<!-- Generated by graphviz version 2.43.20190912.0211 (20190912.0211)
 -->
<!-- Title: Graphical Class Hierarchy Pages: 1 -->
<svg width="285pt" height="560pt"
 viewBox="0.00 0.00 285.00 560.00" xmlns="http://www.w3.org/2000/svg" xmlns:xlink="http://www.w3.org/1999/xlink">
<g id="graph0" class="graph" transform="scale(1 1) rotate(0) translate(4 556)">
<title>Graphical Class Hierarchy</title>
<!-- Node3 -->
<g id="node1" class="node">
<title>Node3</title>
<g id="a_node1"><a xlink:title=" ">
<polygon fill="none" stroke="#bfbfbf" points="0,-266.5 0,-285.5 83,-285.5 83,-266.5 0,-266.5"/>
<text text-anchor="middle" x="41.5" y="-273.5" font-family="Helvetica,sans-Serif" font-size="10.00">runtime_error</text>
</a>
</g>
</g>
<!-- Node0 -->
<g id="node2" class="node">
<title>Node0</title>
<g id="a_node2"><a xlink:href="classCardExpired.html" target="_top" xlink:title=" ">
<polygon fill="none" stroke="black" points="160,-532.5 160,-551.5 236,-551.5 236,-532.5 160,-532.5"/>
<text text-anchor="middle" x="198" y="-539.5" font-family="Helvetica,sans-Serif" font-size="10.00">CardExpired</text>
</a>
</g>
</g>
<!-- Node3&#45;&gt;Node0 -->
<g id="edge1" class="edge">
<title>Node3&#45;&gt;Node0</title>
<path fill="none" stroke="midnightblue" d="M42.45,-295.8C43.47,-342.59 52.83,-460.77 119,-523 129.97,-533.31 145.56,-538.3 159.93,-540.63"/>
<polygon fill="midnightblue" stroke="midnightblue" points="45.95,-295.48 42.34,-285.51 38.95,-295.55 45.95,-295.48"/>
</g>
<!-- Node5 -->
<g id="node3" class="node">
<title>Node5</title>
<g id="a_node3"><a xlink:href="classEventAlreadyBought.html" target="_top" xlink:title=" ">
<polygon fill="none" stroke="black" points="140,-494.5 140,-513.5 256,-513.5 256,-494.5 140,-494.5"/>
<text text-anchor="middle" x="198" y="-501.5" font-family="Helvetica,sans-Serif" font-size="10.00">EventAlreadyBought</text>
</a>
</g>
</g>
<!-- Node3&#45;&gt;Node5 -->
<g id="edge2" class="edge">
<title>Node3&#45;&gt;Node5</title>
<path fill="none" stroke="midnightblue" d="M43.75,-295.83C47.47,-337.42 62.12,-434.16 119,-485 124.92,-490.29 132.08,-494.17 139.62,-497"/>
<polygon fill="midnightblue" stroke="midnightblue" points="47.22,-295.34 42.96,-285.64 40.24,-295.88 47.22,-295.34"/>
</g>
<!-- Node6 -->
<g id="node4" class="node">
<title>Node6</title>
<g id="a_node4"><a xlink:href="classEventFull.html" target="_top" xlink:title=" ">
<polygon fill="none" stroke="black" points="167,-456.5 167,-475.5 229,-475.5 229,-456.5 167,-456.5"/>
<text text-anchor="middle" x="198" y="-463.5" font-family="Helvetica,sans-Serif" font-size="10.00">EventFull</text>
</a>
</g>
</g>
<!-- Node3&#45;&gt;Node6 -->
<g id="edge3" class="edge">
<title>Node3&#45;&gt;Node6</title>
<path fill="none" stroke="midnightblue" d="M45.53,-295.62C52.12,-331.39 71.2,-407.18 119,-447 132.28,-458.06 150.99,-462.86 166.76,-464.88"/>
<polygon fill="midnightblue" stroke="midnightblue" points="48.94,-294.78 43.81,-285.51 42.04,-295.95 48.94,-294.78"/>
</g>
<!-- Node7 -->
<g id="node5" class="node">
<title>Node7</title>
<g id="a_node5"><a xlink:href="classEventInvalid.html" target="_top" xlink:title=" ">
<polygon fill="none" stroke="black" points="159.5,-418.5 159.5,-437.5 236.5,-437.5 236.5,-418.5 159.5,-418.5"/>
<text text-anchor="middle" x="198" y="-425.5" font-family="Helvetica,sans-Serif" font-size="10.00">EventInvalid</text>
</a>
</g>
</g>
<!-- Node3&#45;&gt;Node7 -->
<g id="edge4" class="edge">
<title>Node3&#45;&gt;Node7</title>
<path fill="none" stroke="midnightblue" d="M48.3,-295.73C57.97,-325.09 80.27,-379.93 119,-409 130.59,-417.7 145.64,-422.47 159.42,-425.06"/>
<polygon fill="midnightblue" stroke="midnightblue" points="51.53,-294.33 45.2,-285.83 44.85,-296.42 51.53,-294.33"/>
</g>
<!-- Node8 -->
<g id="node6" class="node">
<title>Node8</title>
<g id="a_node6"><a xlink:href="classEventNotFound.html" target="_top" xlink:title=" ">
<polygon fill="none" stroke="black" points="152.5,-380.5 152.5,-399.5 243.5,-399.5 243.5,-380.5 152.5,-380.5"/>
<text text-anchor="middle" x="198" y="-387.5" font-family="Helvetica,sans-Serif" font-size="10.00">EventNotFound</text>
</a>
</g>
</g>
<!-- Node3&#45;&gt;Node8 -->
<g id="edge5" class="edge">
<title>Node3&#45;&gt;Node8</title>
<path fill="none" stroke="midnightblue" d="M52.32,-294.44C64.86,-316.15 88.62,-351.7 119,-371 129,-377.35 140.96,-381.58 152.47,-384.4"/>
<polygon fill="midnightblue" stroke="midnightblue" points="55.29,-292.57 47.36,-285.54 49.17,-295.98 55.29,-292.57"/>
</g>
<!-- Node9 -->
<g id="node7" class="node">
<title>Node9</title>
<g id="a_node7"><a xlink:href="classFileNotFound.html" target="_top" xlink:title=" ">
<polygon fill="none" stroke="black" points="158,-342.5 158,-361.5 238,-361.5 238,-342.5 158,-342.5"/>
<text text-anchor="middle" x="198" y="-349.5" font-family="Helvetica,sans-Serif" font-size="10.00">FileNotFound</text>
</a>
</g>
</g>
<!-- Node3&#45;&gt;Node9 -->
<g id="edge6" class="edge">
<title>Node3&#45;&gt;Node9</title>
<path fill="none" stroke="midnightblue" d="M60.28,-292.53C74.98,-305.35 96.95,-322.63 119,-333 131.11,-338.69 145.1,-342.79 157.87,-345.69"/>
<polygon fill="midnightblue" stroke="midnightblue" points="62.3,-289.65 52.51,-285.59 57.63,-294.86 62.3,-289.65"/>
</g>
<!-- Node10 -->
<g id="node8" class="node">
<title>Node10</title>
<g id="a_node8"><a xlink:href="classFileReadingFailed.html" target="_top" xlink:title=" ">
<polygon fill="none" stroke="black" points="147,-304.5 147,-323.5 249,-323.5 249,-304.5 147,-304.5"/>
<text text-anchor="middle" x="198" y="-311.5" font-family="Helvetica,sans-Serif" font-size="10.00">FileReadingFailed</text>
</a>
</g>
</g>
<!-- Node3&#45;&gt;Node10 -->
<g id="edge7" class="edge">
<title>Node3&#45;&gt;Node10</title>
<path fill="none" stroke="midnightblue" d="M90.33,-287.92C99.83,-290.27 109.73,-292.72 119,-295 131.59,-298.1 145.32,-301.45 157.71,-304.47"/>
<polygon fill="midnightblue" stroke="midnightblue" points="91.17,-284.52 80.63,-285.5 89.49,-291.31 91.17,-284.52"/>
</g>
<!-- Node11 -->
<g id="node9" class="node">
<title>Node11</title>
<g id="a_node9"><a xlink:href="classInvalidAddress.html" target="_top" xlink:title=" ">
<polygon fill="none" stroke="black" points="153.5,-266.5 153.5,-285.5 242.5,-285.5 242.5,-266.5 153.5,-266.5"/>
<text text-anchor="middle" x="198" y="-273.5" font-family="Helvetica,sans-Serif" font-size="10.00">InvalidAddress</text>
</a>
</g>
</g>
<!-- Node3&#45;&gt;Node11 -->
<g id="edge8" class="edge">
<title>Node3&#45;&gt;Node11</title>
<path fill="none" stroke="midnightblue" d="M93.3,-276C112.74,-276 134.72,-276 153.43,-276"/>
<polygon fill="midnightblue" stroke="midnightblue" points="93.09,-272.5 83.09,-276 93.09,-279.5 93.09,-272.5"/>
</g>
<!-- Node12 -->
<g id="node10" class="node">
<title>Node12</title>
<g id="a_node10"><a xlink:href="classInvalidTime.html" target="_top" xlink:title=" ">
<polygon fill="none" stroke="black" points="161,-228.5 161,-247.5 235,-247.5 235,-228.5 161,-228.5"/>
<text text-anchor="middle" x="198" y="-235.5" font-family="Helvetica,sans-Serif" font-size="10.00">InvalidTime</text>
</a>
</g>
</g>
<!-- Node3&#45;&gt;Node12 -->
<g id="edge9" class="edge">
<title>Node3&#45;&gt;Node12</title>
<path fill="none" stroke="midnightblue" d="M90.33,-264.08C99.83,-261.73 109.73,-259.28 119,-257 132.67,-253.64 147.69,-249.97 160.88,-246.76"/>
<polygon fill="midnightblue" stroke="midnightblue" points="89.49,-260.69 80.63,-266.5 91.17,-267.48 89.49,-260.69"/>
</g>
<!-- Node13 -->
<g id="node11" class="node">
<title>Node13</title>
<g id="a_node11"><a xlink:href="classMenuExitWithNoFunctionCall.html" target="_top" xlink:title=" ">
<polygon fill="none" stroke="black" points="119,-190.5 119,-209.5 277,-209.5 277,-190.5 119,-190.5"/>
<text text-anchor="middle" x="198" y="-197.5" font-family="Helvetica,sans-Serif" font-size="10.00">MenuExitWithNoFunctionCall</text>
</a>
</g>
</g>
<!-- Node3&#45;&gt;Node13 -->
<g id="edge10" class="edge">
<title>Node3&#45;&gt;Node13</title>
<path fill="none" stroke="midnightblue" d="M60.28,-259.47C74.98,-246.65 96.95,-229.37 119,-219 127.2,-215.14 136.26,-212.02 145.22,-209.51"/>
<polygon fill="midnightblue" stroke="midnightblue" points="57.63,-257.14 52.51,-266.41 62.3,-262.35 57.63,-257.14"/>
</g>
<!-- Node14 -->
<g id="node12" class="node">
<title>Node14</title>
<g id="a_node12"><a xlink:href="classMenuForceExit.html" target="_top" xlink:title=" ">
<polygon fill="none" stroke="black" points="153.5,-152.5 153.5,-171.5 242.5,-171.5 242.5,-152.5 153.5,-152.5"/>
<text text-anchor="middle" x="198" y="-159.5" font-family="Helvetica,sans-Serif" font-size="10.00">MenuForceExit</text>
</a>
</g>
</g>
<!-- Node3&#45;&gt;Node14 -->
<g id="edge11" class="edge">
<title>Node3&#45;&gt;Node14</title>
<path fill="none" stroke="midnightblue" d="M52.32,-257.56C64.86,-235.85 88.62,-200.3 119,-181 129.24,-174.5 141.52,-170.22 153.28,-167.41"/>
<polygon fill="midnightblue" stroke="midnightblue" points="49.17,-256.02 47.36,-266.46 55.29,-259.43 49.17,-256.02"/>
</g>
<!-- Node15 -->
<g id="node13" class="node">
<title>Node15</title>
<g id="a_node13"><a xlink:href="classNoSuchObject.html" target="_top" xlink:title=" ">
<polygon fill="none" stroke="black" points="155.5,-114.5 155.5,-133.5 240.5,-133.5 240.5,-114.5 155.5,-114.5"/>
<text text-anchor="middle" x="198" y="-121.5" font-family="Helvetica,sans-Serif" font-size="10.00">NoSuchObject</text>
</a>
</g>
</g>
<!-- Node3&#45;&gt;Node15 -->
<g id="edge12" class="edge">
<title>Node3&#45;&gt;Node15</title>
<path fill="none" stroke="midnightblue" d="M48.3,-256.27C57.97,-226.91 80.27,-172.07 119,-143 129.48,-135.14 142.78,-130.48 155.41,-127.75"/>
<polygon fill="midnightblue" stroke="midnightblue" points="44.85,-255.58 45.2,-266.17 51.53,-257.67 44.85,-255.58"/>
</g>
<!-- Node16 -->
<g id="node14" class="node">
<title>Node16</title>
<g id="a_node14"><a xlink:href="classObjectAlreadyExists.html" target="_top" xlink:title=" ">
<polygon fill="none" stroke="black" points="140.5,-76.5 140.5,-95.5 255.5,-95.5 255.5,-76.5 140.5,-76.5"/>
<text text-anchor="middle" x="198" y="-83.5" font-family="Helvetica,sans-Serif" font-size="10.00">ObjectAlreadyExists</text>
</a>
</g>
</g>
<!-- Node3&#45;&gt;Node16 -->
<g id="edge13" class="edge">
<title>Node3&#45;&gt;Node16</title>
<path fill="none" stroke="midnightblue" d="M45.53,-256.38C52.12,-220.61 71.2,-144.82 119,-105 125.21,-99.83 132.61,-96.02 140.34,-93.23"/>
<polygon fill="midnightblue" stroke="midnightblue" points="42.04,-256.05 43.81,-266.49 48.94,-257.22 42.04,-256.05"/>
</g>
<!-- Node17 -->
<g id="node15" class="node">
<title>Node17</title>
<g id="a_node15"><a xlink:href="classTooEarlyToRenewCard.html" target="_top" xlink:title=" ">
<polygon fill="none" stroke="black" points="136,-38.5 136,-57.5 260,-57.5 260,-38.5 136,-38.5"/>
<text text-anchor="middle" x="198" y="-45.5" font-family="Helvetica,sans-Serif" font-size="10.00">TooEarlyToRenewCard</text>
</a>
</g>
</g>
<!-- Node3&#45;&gt;Node17 -->
<g id="edge14" class="edge">
<title>Node3&#45;&gt;Node17</title>
<path fill="none" stroke="midnightblue" d="M43.75,-256.17C47.47,-214.58 62.12,-117.84 119,-67 123.88,-62.63 129.6,-59.23 135.69,-56.58"/>
<polygon fill="midnightblue" stroke="midnightblue" points="40.24,-256.12 42.96,-266.36 47.22,-256.66 40.24,-256.12"/>
</g>
<!-- Node18 -->
<g id="node16" class="node">
<title>Node18</title>
<g id="a_node16"><a xlink:href="classUserInputReadingFailure.html" target="_top" xlink:title=" ">
<polygon fill="none" stroke="black" points="130,-0.5 130,-19.5 266,-19.5 266,-0.5 130,-0.5"/>
<text text-anchor="middle" x="198" y="-7.5" font-family="Helvetica,sans-Serif" font-size="10.00">UserInputReadingFailure</text>
</a>
</g>
</g>
<!-- Node3&#45;&gt;Node18 -->
<g id="edge15" class="edge">
<title>Node3&#45;&gt;Node18</title>
<path fill="none" stroke="midnightblue" d="M42.45,-256.2C43.47,-209.41 52.83,-91.23 119,-29 123.06,-25.18 127.76,-22.09 132.79,-19.6"/>
<polygon fill="midnightblue" stroke="midnightblue" points="38.95,-256.45 42.34,-266.49 45.95,-256.52 38.95,-256.45"/>
</g>
</g>
</svg>
