<?xml version="1.0" encoding="UTF-8" standalone="no"?>
<!DOCTYPE svg PUBLIC "-//W3C//DTD SVG 1.1//EN"
 "http://www.w3.org/Graphics/SVG/1.1/DTD/svg11.dtd">
<!-- Generated by graphviz version 2.43.20190912.0211 (20190912.0211)
 -->
<!-- Title: Graphical Class Hierarchy Pages: 1 -->
<svg width="285pt" height="902pt"
 viewBox="0.00 0.00 285.00 902.00" xmlns="http://www.w3.org/2000/svg" xmlns:xlink="http://www.w3.org/1999/xlink">
<g id="graph0" class="graph" transform="scale(1 1) rotate(0) translate(4 898)">
<title>Graphical Class Hierarchy</title>
<!-- Node3 -->
<g id="node1" class="node">
<title>Node3</title>
<g id="a_node1"><a xlink:title=" ">
<polygon fill="none" stroke="#bfbfbf" points="0,-437.5 0,-456.5 83,-456.5 83,-437.5 0,-437.5"/>
<text text-anchor="middle" x="41.5" y="-444.5" font-family="Helvetica,sans-Serif" font-size="10.00">runtime_error</text>
</a>
</g>
</g>
<!-- Node0 -->
<g id="node2" class="node">
<title>Node0</title>
<g id="a_node2"><a xlink:href="classCardAlreadyExists.html" target="_top" xlink:title=" ">
<polygon fill="none" stroke="black" points="145,-874.5 145,-893.5 251,-893.5 251,-874.5 145,-874.5"/>
<text text-anchor="middle" x="198" y="-881.5" font-family="Helvetica,sans-Serif" font-size="10.00">CardAlreadyExists</text>
</a>
</g>
</g>
<!-- Node3&#45;&gt;Node0 -->
<g id="edge1" class="edge">
<title>Node3&#45;&gt;Node0</title>
<path fill="none" stroke="midnightblue" d="M43.37,-467.2C47.02,-542.61 63.61,-806.3 119,-865 125.89,-872.3 135.07,-876.99 144.71,-879.97"/>
<polygon fill="midnightblue" stroke="midnightblue" points="46.84,-466.6 42.89,-456.78 39.85,-466.93 46.84,-466.6"/>
</g>
<!-- Node5 -->
<g id="node3" class="node">
<title>Node5</title>
<g id="a_node3"><a xlink:href="classCardExpired.html" target="_top" xlink:title=" ">
<polygon fill="none" stroke="black" points="160,-836.5 160,-855.5 236,-855.5 236,-836.5 160,-836.5"/>
<text text-anchor="middle" x="198" y="-843.5" font-family="Helvetica,sans-Serif" font-size="10.00">CardExpired</text>
</a>
</g>
</g>
<!-- Node3&#45;&gt;Node5 -->
<g id="edge2" class="edge">
<title>Node3&#45;&gt;Node5</title>
<path fill="none" stroke="midnightblue" d="M43.74,-466.72C48.55,-537.05 68.33,-774.24 119,-827 129.52,-837.96 145.23,-843.03 159.79,-845.24"/>
<polygon fill="midnightblue" stroke="midnightblue" points="47.22,-466.33 43.07,-456.58 40.23,-466.79 47.22,-466.33"/>
</g>
<!-- Node6 -->
<g id="node4" class="node">
<title>Node6</title>
<g id="a_node4"><a xlink:href="classEnterpriseAlreadyExists.html" target="_top" xlink:title=" ">
<polygon fill="none" stroke="black" points="131.5,-798.5 131.5,-817.5 264.5,-817.5 264.5,-798.5 131.5,-798.5"/>
<text text-anchor="middle" x="198" y="-805.5" font-family="Helvetica,sans-Serif" font-size="10.00">EnterpriseAlreadyExists</text>
</a>
</g>
</g>
<!-- Node3&#45;&gt;Node6 -->
<g id="edge3" class="edge">
<title>Node3&#45;&gt;Node6</title>
<path fill="none" stroke="midnightblue" d="M44.23,-466.84C50.35,-532.65 73.17,-742.3 119,-789 122.71,-792.78 127.04,-795.86 131.72,-798.36"/>
<polygon fill="midnightblue" stroke="midnightblue" points="47.69,-466.25 43.3,-456.6 40.72,-466.88 47.69,-466.25"/>
</g>
<!-- Node7 -->
<g id="node5" class="node">
<title>Node7</title>
<g id="a_node5"><a xlink:href="classEventAlreadyBought.html" target="_top" xlink:title=" ">
<polygon fill="none" stroke="black" points="140,-760.5 140,-779.5 256,-779.5 256,-760.5 140,-760.5"/>
<text text-anchor="middle" x="198" y="-767.5" font-family="Helvetica,sans-Serif" font-size="10.00">EventAlreadyBought</text>
</a>
</g>
</g>
<!-- Node3&#45;&gt;Node7 -->
<g id="edge4" class="edge">
<title>Node3&#45;&gt;Node7</title>
<path fill="none" stroke="midnightblue" d="M44.84,-466.98C52.39,-528.01 77.99,-710.3 119,-751 124.84,-756.79 132.13,-760.92 139.89,-763.85"/>
<polygon fill="midnightblue" stroke="midnightblue" points="48.28,-466.27 43.61,-456.76 41.33,-467.11 48.28,-466.27"/>
</g>
<!-- Node8 -->
<g id="node6" class="node">
<title>Node8</title>
<g id="a_node6"><a xlink:href="classEventAlreadyExists.html" target="_top" xlink:title=" ">
<polygon fill="none" stroke="black" points="142.5,-722.5 142.5,-741.5 253.5,-741.5 253.5,-722.5 142.5,-722.5"/>
<text text-anchor="middle" x="198" y="-729.5" font-family="Helvetica,sans-Serif" font-size="10.00">EventAlreadyExists</text>
</a>
</g>
</g>
<!-- Node3&#45;&gt;Node8 -->
<g id="edge5" class="edge">
<title>Node3&#45;&gt;Node8</title>
<path fill="none" stroke="midnightblue" d="M41.93,-466.97C41.68,-516.34 48.23,-645.08 119,-713 125.54,-719.27 133.78,-723.59 142.45,-726.53"/>
<polygon fill="midnightblue" stroke="midnightblue" points="45.44,-466.75 42.1,-456.69 38.44,-466.64 45.44,-466.75"/>
</g>
<!-- Node9 -->
<g id="node7" class="node">
<title>Node9</title>
<g id="a_node7"><a xlink:href="classEventFull.html" target="_top" xlink:title=" ">
<polygon fill="none" stroke="black" points="167,-684.5 167,-703.5 229,-703.5 229,-684.5 167,-684.5"/>
<text text-anchor="middle" x="198" y="-691.5" font-family="Helvetica,sans-Serif" font-size="10.00">EventFull</text>
</a>
</g>
</g>
<!-- Node3&#45;&gt;Node9 -->
<g id="edge6" class="edge">
<title>Node3&#45;&gt;Node9</title>
<path fill="none" stroke="midnightblue" d="M43.05,-466.77C45.39,-511 57.47,-618.48 119,-675 131.83,-686.79 150.73,-691.59 166.71,-693.42"/>
<polygon fill="midnightblue" stroke="midnightblue" points="46.53,-466.36 42.63,-456.51 39.54,-466.65 46.53,-466.36"/>
</g>
<!-- Node10 -->
<g id="node8" class="node">
<title>Node10</title>
<g id="a_node8"><a xlink:href="classEventInvalid.html" target="_top" xlink:title=" ">
<polygon fill="none" stroke="black" points="159.5,-646.5 159.5,-665.5 236.5,-665.5 236.5,-646.5 159.5,-646.5"/>
<text text-anchor="middle" x="198" y="-653.5" font-family="Helvetica,sans-Serif" font-size="10.00">EventInvalid</text>
</a>
</g>
</g>
<!-- Node3&#45;&gt;Node10 -->
<g id="edge7" class="edge">
<title>Node3&#45;&gt;Node10</title>
<path fill="none" stroke="midnightblue" d="M44.55,-466.63C49.67,-505.33 66.63,-591.67 119,-637 130.06,-646.58 145.18,-651.5 159.15,-653.96"/>
<polygon fill="midnightblue" stroke="midnightblue" points="48.02,-466.16 43.36,-456.64 41.07,-466.99 48.02,-466.16"/>
</g>
<!-- Node11 -->
<g id="node9" class="node">
<title>Node11</title>
<g id="a_node9"><a xlink:href="classEventNotFound.html" target="_top" xlink:title=" ">
<polygon fill="none" stroke="black" points="152.5,-608.5 152.5,-627.5 243.5,-627.5 243.5,-608.5 152.5,-608.5"/>
<text text-anchor="middle" x="198" y="-615.5" font-family="Helvetica,sans-Serif" font-size="10.00">EventNotFound</text>
</a>
</g>
</g>
<!-- Node3&#45;&gt;Node11 -->
<g id="edge8" class="edge">
<title>Node3&#45;&gt;Node11</title>
<path fill="none" stroke="midnightblue" d="M46.76,-466.7C54.88,-499.39 75.77,-564.63 119,-599 128.49,-606.55 140.54,-611.16 152.31,-613.96"/>
<polygon fill="midnightblue" stroke="midnightblue" points="50.08,-465.55 44.4,-456.6 43.27,-467.14 50.08,-465.55"/>
</g>
<!-- Node12 -->
<g id="node10" class="node">
<title>Node12</title>
<g id="a_node10"><a xlink:href="classFileAlreadyExists.html" target="_top" xlink:title=" ">
<polygon fill="none" stroke="black" points="147.5,-570.5 147.5,-589.5 248.5,-589.5 248.5,-570.5 147.5,-570.5"/>
<text text-anchor="middle" x="198" y="-577.5" font-family="Helvetica,sans-Serif" font-size="10.00">FileAlreadyExists</text>
</a>
</g>
</g>
<!-- Node3&#45;&gt;Node12 -->
<g id="edge9" class="edge">
<title>Node3&#45;&gt;Node12</title>
<path fill="none" stroke="midnightblue" d="M50.04,-466.12C61.17,-491.77 84.47,-536.9 119,-561 127.34,-566.82 137.27,-570.87 147.2,-573.68"/>
<polygon fill="midnightblue" stroke="midnightblue" points="53.21,-464.62 46.14,-456.73 46.74,-467.31 53.21,-464.62"/>
</g>
<!-- Node13 -->
<g id="node11" class="node">
<title>Node13</title>
<g id="a_node11"><a xlink:href="classFileDoesntExist.html" target="_top" xlink:title=" ">
<polygon fill="none" stroke="black" points="152,-532.5 152,-551.5 244,-551.5 244,-532.5 152,-532.5"/>
<text text-anchor="middle" x="198" y="-539.5" font-family="Helvetica,sans-Serif" font-size="10.00">FileDoesntExist</text>
</a>
</g>
</g>
<!-- Node3&#45;&gt;Node13 -->
<g id="edge10" class="edge">
<title>Node3&#45;&gt;Node13</title>
<path fill="none" stroke="midnightblue" d="M55.66,-464.84C69.49,-482.3 92.85,-508.35 119,-523 128.97,-528.58 140.56,-532.54 151.7,-535.34"/>
<polygon fill="midnightblue" stroke="midnightblue" points="58.19,-462.4 49.33,-456.6 52.64,-466.66 58.19,-462.4"/>
</g>
<!-- Node14 -->
<g id="node12" class="node">
<title>Node14</title>
<g id="a_node12"><a xlink:href="classFileIncorrectFormatting.html" target="_top" xlink:title=" ">
<polygon fill="none" stroke="black" points="133,-494.5 133,-513.5 263,-513.5 263,-494.5 133,-494.5"/>
<text text-anchor="middle" x="198" y="-501.5" font-family="Helvetica,sans-Serif" font-size="10.00">FileIncorrectFormatting</text>
</a>
</g>
</g>
<!-- Node3&#45;&gt;Node14 -->
<g id="edge11" class="edge">
<title>Node3&#45;&gt;Node14</title>
<path fill="none" stroke="midnightblue" d="M67.95,-461.43C82.54,-469.24 101.4,-478.58 119,-485 128.95,-488.63 139.87,-491.78 150.3,-494.42"/>
<polygon fill="midnightblue" stroke="midnightblue" points="69.49,-458.28 59.04,-456.56 66.14,-464.42 69.49,-458.28"/>
</g>
<!-- Node15 -->
<g id="node13" class="node">
<title>Node15</title>
<g id="a_node13"><a xlink:href="classFileNotFound.html" target="_top" xlink:title=" ">
<polygon fill="none" stroke="black" points="158,-456.5 158,-475.5 238,-475.5 238,-456.5 158,-456.5"/>
<text text-anchor="middle" x="198" y="-463.5" font-family="Helvetica,sans-Serif" font-size="10.00">FileNotFound</text>
</a>
</g>
</g>
<!-- Node3&#45;&gt;Node15 -->
<g id="edge12" class="edge">
<title>Node3&#45;&gt;Node15</title>
<path fill="none" stroke="midnightblue" d="M93.13,-453.23C114.13,-455.81 138.12,-458.76 157.74,-461.17"/>
<polygon fill="midnightblue" stroke="midnightblue" points="93.45,-449.74 83.09,-451.99 92.59,-456.69 93.45,-449.74"/>
</g>
<!-- Node16 -->
<g id="node14" class="node">
<title>Node16</title>
<g id="a_node14"><a xlink:href="classFileReadingFailed.html" target="_top" xlink:title=" ">
<polygon fill="none" stroke="black" points="147,-418.5 147,-437.5 249,-437.5 249,-418.5 147,-418.5"/>
<text text-anchor="middle" x="198" y="-425.5" font-family="Helvetica,sans-Serif" font-size="10.00">FileReadingFailed</text>
</a>
</g>
</g>
<!-- Node3&#45;&gt;Node16 -->
<g id="edge13" class="edge">
<title>Node3&#45;&gt;Node16</title>
<path fill="none" stroke="midnightblue" d="M93.47,-440.73C110.59,-438.63 129.67,-436.28 146.74,-434.18"/>
<polygon fill="midnightblue" stroke="midnightblue" points="92.59,-437.31 83.09,-442.01 93.45,-444.26 92.59,-437.31"/>
</g>
<!-- Node17 -->
<g id="node15" class="node">
<title>Node17</title>
<g id="a_node15"><a xlink:href="classInvalidAddress.html" target="_top" xlink:title=" ">
<polygon fill="none" stroke="black" points="153.5,-380.5 153.5,-399.5 242.5,-399.5 242.5,-380.5 153.5,-380.5"/>
<text text-anchor="middle" x="198" y="-387.5" font-family="Helvetica,sans-Serif" font-size="10.00">InvalidAddress</text>
</a>
</g>
</g>
<!-- Node3&#45;&gt;Node17 -->
<g id="edge14" class="edge">
<title>Node3&#45;&gt;Node17</title>
<path fill="none" stroke="midnightblue" d="M67.95,-432.57C82.54,-424.76 101.4,-415.42 119,-409 129.87,-405.03 141.89,-401.64 153.17,-398.87"/>
<polygon fill="midnightblue" stroke="midnightblue" points="66.14,-429.58 59.04,-437.44 69.49,-435.72 66.14,-429.58"/>
</g>
<!-- Node18 -->
<g id="node16" class="node">
<title>Node18</title>
<g id="a_node16"><a xlink:href="classInvalidTime.html" target="_top" xlink:title=" ">
<polygon fill="none" stroke="black" points="161,-342.5 161,-361.5 235,-361.5 235,-342.5 161,-342.5"/>
<text text-anchor="middle" x="198" y="-349.5" font-family="Helvetica,sans-Serif" font-size="10.00">InvalidTime</text>
</a>
</g>
</g>
<!-- Node3&#45;&gt;Node18 -->
<g id="edge15" class="edge">
<title>Node3&#45;&gt;Node18</title>
<path fill="none" stroke="midnightblue" d="M55.66,-429.16C69.49,-411.7 92.85,-385.65 119,-371 131.77,-363.85 147.18,-359.37 160.93,-356.57"/>
<polygon fill="midnightblue" stroke="midnightblue" points="52.64,-427.34 49.33,-437.4 58.19,-431.6 52.64,-427.34"/>
</g>
<!-- Node19 -->
<g id="node17" class="node">
<title>Node19</title>
<g id="a_node17"><a xlink:href="classMenuExitWithNoFunctionCall.html" target="_top" xlink:title=" ">
<polygon fill="none" stroke="black" points="119,-304.5 119,-323.5 277,-323.5 277,-304.5 119,-304.5"/>
<text text-anchor="middle" x="198" y="-311.5" font-family="Helvetica,sans-Serif" font-size="10.00">MenuExitWithNoFunctionCall</text>
</a>
</g>
</g>
<!-- Node3&#45;&gt;Node19 -->
<g id="edge16" class="edge">
<title>Node3&#45;&gt;Node19</title>
<path fill="none" stroke="midnightblue" d="M50.04,-427.88C61.17,-402.23 84.47,-357.1 119,-333 124.6,-329.09 130.91,-325.98 137.46,-323.51"/>
<polygon fill="midnightblue" stroke="midnightblue" points="46.74,-426.69 46.14,-437.27 53.21,-429.38 46.74,-426.69"/>
</g>
<!-- Node20 -->
<g id="node18" class="node">
<title>Node20</title>
<g id="a_node18"><a xlink:href="classMenuForceExit.html" target="_top" xlink:title=" ">
<polygon fill="none" stroke="black" points="153.5,-266.5 153.5,-285.5 242.5,-285.5 242.5,-266.5 153.5,-266.5"/>
<text text-anchor="middle" x="198" y="-273.5" font-family="Helvetica,sans-Serif" font-size="10.00">MenuForceExit</text>
</a>
</g>
</g>
<!-- Node3&#45;&gt;Node20 -->
<g id="edge17" class="edge">
<title>Node3&#45;&gt;Node20</title>
<path fill="none" stroke="midnightblue" d="M46.76,-427.3C54.88,-394.61 75.77,-329.37 119,-295 128.71,-287.28 141.1,-282.63 153.12,-279.85"/>
<polygon fill="midnightblue" stroke="midnightblue" points="43.27,-426.86 44.4,-437.4 50.08,-428.45 43.27,-426.86"/>
</g>
<!-- Node21 -->
<g id="node19" class="node">
<title>Node21</title>
<g id="a_node19"><a xlink:href="classMultipleEventsSelected.html" target="_top" xlink:title=" ">
<polygon fill="none" stroke="black" points="132.5,-228.5 132.5,-247.5 263.5,-247.5 263.5,-228.5 132.5,-228.5"/>
<text text-anchor="middle" x="198" y="-235.5" font-family="Helvetica,sans-Serif" font-size="10.00">MultipleEventsSelected</text>
</a>
</g>
</g>
<!-- Node3&#45;&gt;Node21 -->
<g id="edge18" class="edge">
<title>Node3&#45;&gt;Node21</title>
<path fill="none" stroke="midnightblue" d="M44.55,-427.37C49.67,-388.67 66.63,-302.33 119,-257 123.43,-253.17 128.5,-250.08 133.89,-247.6"/>
<polygon fill="midnightblue" stroke="midnightblue" points="41.07,-427.01 43.36,-437.36 48.02,-427.84 41.07,-427.01"/>
</g>
<!-- Node22 -->
<g id="node20" class="node">
<title>Node22</title>
<g id="a_node20"><a xlink:href="classMuseumAlreadyExists.html" target="_top" xlink:title=" ">
<polygon fill="none" stroke="black" points="135.5,-190.5 135.5,-209.5 260.5,-209.5 260.5,-190.5 135.5,-190.5"/>
<text text-anchor="middle" x="198" y="-197.5" font-family="Helvetica,sans-Serif" font-size="10.00">MuseumAlreadyExists</text>
</a>
</g>
</g>
<!-- Node3&#45;&gt;Node22 -->
<g id="edge19" class="edge">
<title>Node3&#45;&gt;Node22</title>
<path fill="none" stroke="midnightblue" d="M43.05,-427.23C45.39,-383 57.47,-275.52 119,-219 123.72,-214.66 129.26,-211.27 135.18,-208.62"/>
<polygon fill="midnightblue" stroke="midnightblue" points="39.54,-427.35 42.63,-437.49 46.53,-427.64 39.54,-427.35"/>
</g>
<!-- Node23 -->
<g id="node21" class="node">
<title>Node23</title>
<g id="a_node21"><a xlink:href="classNoSuchCard.html" target="_top" xlink:title=" ">
<polygon fill="none" stroke="black" points="160,-152.5 160,-171.5 236,-171.5 236,-152.5 160,-152.5"/>
<text text-anchor="middle" x="198" y="-159.5" font-family="Helvetica,sans-Serif" font-size="10.00">NoSuchCard</text>
</a>
</g>
</g>
<!-- Node3&#45;&gt;Node23 -->
<g id="edge20" class="edge">
<title>Node3&#45;&gt;Node23</title>
<path fill="none" stroke="midnightblue" d="M41.93,-427.03C41.68,-377.66 48.23,-248.92 119,-181 129.86,-170.58 145.44,-165.57 159.82,-163.26"/>
<polygon fill="midnightblue" stroke="midnightblue" points="38.44,-427.36 42.1,-437.31 45.44,-427.25 38.44,-427.36"/>
</g>
<!-- Node24 -->
<g id="node22" class="node">
<title>Node24</title>
<g id="a_node22"><a xlink:href="classNoSuchEnterprise.html" target="_top" xlink:title=" ">
<polygon fill="none" stroke="black" points="146.5,-114.5 146.5,-133.5 249.5,-133.5 249.5,-114.5 146.5,-114.5"/>
<text text-anchor="middle" x="198" y="-121.5" font-family="Helvetica,sans-Serif" font-size="10.00">NoSuchEnterprise</text>
</a>
</g>
</g>
<!-- Node3&#45;&gt;Node24 -->
<g id="edge21" class="edge">
<title>Node3&#45;&gt;Node24</title>
<path fill="none" stroke="midnightblue" d="M44.84,-427.02C52.39,-365.99 77.99,-183.7 119,-143 126.42,-135.64 136.19,-130.96 146.29,-128.02"/>
<polygon fill="midnightblue" stroke="midnightblue" points="41.33,-426.89 43.61,-437.24 48.28,-427.73 41.33,-426.89"/>
</g>
<!-- Node25 -->
<g id="node23" class="node">
<title>Node25</title>
<g id="a_node23"><a xlink:href="classNoSuchMuseum.html" target="_top" xlink:title=" ">
<polygon fill="none" stroke="black" points="150.5,-76.5 150.5,-95.5 245.5,-95.5 245.5,-76.5 150.5,-76.5"/>
<text text-anchor="middle" x="198" y="-83.5" font-family="Helvetica,sans-Serif" font-size="10.00">NoSuchMuseum</text>
</a>
</g>
</g>
<!-- Node3&#45;&gt;Node25 -->
<g id="edge22" class="edge">
<title>Node3&#45;&gt;Node25</title>
<path fill="none" stroke="midnightblue" d="M44.23,-427.16C50.35,-361.35 73.17,-151.7 119,-105 127.3,-96.54 138.68,-91.61 150.19,-88.79"/>
<polygon fill="midnightblue" stroke="midnightblue" points="40.72,-427.12 43.3,-437.4 47.69,-427.75 40.72,-427.12"/>
</g>
<!-- Node26 -->
<g id="node24" class="node">
<title>Node26</title>
<g id="a_node24"><a xlink:href="classTooEarlyToRenewCard.html" target="_top" xlink:title=" ">
<polygon fill="none" stroke="black" points="136,-38.5 136,-57.5 260,-57.5 260,-38.5 136,-38.5"/>
<text text-anchor="middle" x="198" y="-45.5" font-family="Helvetica,sans-Serif" font-size="10.00">TooEarlyToRenewCard</text>
</a>
</g>
</g>
<!-- Node3&#45;&gt;Node26 -->
<g id="edge23" class="edge">
<title>Node3&#45;&gt;Node26</title>
<path fill="none" stroke="midnightblue" d="M43.74,-427.28C48.55,-356.95 68.33,-119.76 119,-67 123.73,-62.07 129.51,-58.34 135.76,-55.52"/>
<polygon fill="midnightblue" stroke="midnightblue" points="40.23,-427.21 43.07,-437.42 47.22,-427.67 40.23,-427.21"/>
</g>
<!-- Node27 -->
<g id="node25" class="node">
<title>Node27</title>
<g id="a_node25"><a xlink:href="classUserInputReadingFailure.html" target="_top" xlink:title=" ">
<polygon fill="none" stroke="black" points="130,-0.5 130,-19.5 266,-19.5 266,-0.5 130,-0.5"/>
<text text-anchor="middle" x="198" y="-7.5" font-family="Helvetica,sans-Serif" font-size="10.00">UserInputReadingFailure</text>
</a>
</g>
</g>
<!-- Node3&#45;&gt;Node27 -->
<g id="edge24" class="edge">
<title>Node3&#45;&gt;Node27</title>
<path fill="none" stroke="midnightblue" d="M43.37,-426.8C47.02,-351.39 63.61,-87.7 119,-29 122.54,-25.25 126.69,-22.19 131.19,-19.69"/>
<polygon fill="midnightblue" stroke="midnightblue" points="39.85,-427.07 42.89,-437.22 46.84,-427.4 39.85,-427.07"/>
</g>
</g>
</svg>
