<?xml version="1.0" encoding="UTF-8" standalone="no"?>
<!DOCTYPE svg PUBLIC "-//W3C//DTD SVG 1.1//EN"
 "http://www.w3.org/Graphics/SVG/1.1/DTD/svg11.dtd">
<!-- Generated by graphviz version 2.43.20190912.0211 (20190912.0211)
 -->
<!-- Title: Graphical Class Hierarchy Pages: 1 -->
<svg width="285pt" height="750pt"
 viewBox="0.00 0.00 285.00 750.00" xmlns="http://www.w3.org/2000/svg" xmlns:xlink="http://www.w3.org/1999/xlink">
<g id="graph0" class="graph" transform="scale(1 1) rotate(0) translate(4 746)">
<title>Graphical Class Hierarchy</title>
<!-- Node3 -->
<g id="node1" class="node">
<title>Node3</title>
<g id="a_node1"><a xlink:title=" ">
<polygon fill="none" stroke="#bfbfbf" points="0,-361.5 0,-380.5 83,-380.5 83,-361.5 0,-361.5"/>
<text text-anchor="middle" x="41.5" y="-368.5" font-family="Helvetica,sans-Serif" font-size="10.00">runtime_error</text>
</a>
</g>
</g>
<!-- Node0 -->
<g id="node2" class="node">
<title>Node0</title>
<g id="a_node2"><a xlink:href="classCardAlreadyExists.html" target="_top" xlink:title=" ">
<polygon fill="none" stroke="black" points="145,-722.5 145,-741.5 251,-741.5 251,-722.5 145,-722.5"/>
<text text-anchor="middle" x="198" y="-729.5" font-family="Helvetica,sans-Serif" font-size="10.00">CardAlreadyExists</text>
</a>
</g>
</g>
<!-- Node3&#45;&gt;Node0 -->
<g id="edge1" class="edge">
<title>Node3&#45;&gt;Node0</title>
<path fill="none" stroke="midnightblue" d="M44.23,-390.84C50.35,-456.65 73.17,-666.3 119,-713 126.03,-720.16 135.27,-724.8 144.93,-727.76"/>
<polygon fill="midnightblue" stroke="midnightblue" points="47.69,-390.25 43.3,-380.6 40.72,-390.88 47.69,-390.25"/>
</g>
<!-- Node5 -->
<g id="node3" class="node">
<title>Node5</title>
<g id="a_node3"><a xlink:href="classCardExpired.html" target="_top" xlink:title=" ">
<polygon fill="none" stroke="black" points="160,-684.5 160,-703.5 236,-703.5 236,-684.5 160,-684.5"/>
<text text-anchor="middle" x="198" y="-691.5" font-family="Helvetica,sans-Serif" font-size="10.00">CardExpired</text>
</a>
</g>
</g>
<!-- Node3&#45;&gt;Node5 -->
<g id="edge2" class="edge">
<title>Node3&#45;&gt;Node5</title>
<path fill="none" stroke="midnightblue" d="M44.84,-390.98C52.39,-452.01 77.99,-634.3 119,-675 129.68,-685.6 145.24,-690.64 159.65,-692.92"/>
<polygon fill="midnightblue" stroke="midnightblue" points="48.28,-390.27 43.61,-380.76 41.33,-391.11 48.28,-390.27"/>
</g>
<!-- Node6 -->
<g id="node4" class="node">
<title>Node6</title>
<g id="a_node4"><a xlink:href="classEnterpriseAlreadyExists.html" target="_top" xlink:title=" ">
<polygon fill="none" stroke="black" points="131.5,-646.5 131.5,-665.5 264.5,-665.5 264.5,-646.5 131.5,-646.5"/>
<text text-anchor="middle" x="198" y="-653.5" font-family="Helvetica,sans-Serif" font-size="10.00">EnterpriseAlreadyExists</text>
</a>
</g>
</g>
<!-- Node3&#45;&gt;Node6 -->
<g id="edge3" class="edge">
<title>Node3&#45;&gt;Node6</title>
<path fill="none" stroke="midnightblue" d="M41.93,-390.97C41.68,-440.34 48.23,-569.08 119,-637 123.02,-640.86 127.69,-643.98 132.71,-646.49"/>
<polygon fill="midnightblue" stroke="midnightblue" points="45.44,-390.75 42.1,-380.69 38.44,-390.64 45.44,-390.75"/>
</g>
<!-- Node7 -->
<g id="node5" class="node">
<title>Node7</title>
<g id="a_node5"><a xlink:href="classEventAlreadyBought.html" target="_top" xlink:title=" ">
<polygon fill="none" stroke="black" points="140,-608.5 140,-627.5 256,-627.5 256,-608.5 140,-608.5"/>
<text text-anchor="middle" x="198" y="-615.5" font-family="Helvetica,sans-Serif" font-size="10.00">EventAlreadyBought</text>
</a>
</g>
</g>
<!-- Node3&#45;&gt;Node7 -->
<g id="edge4" class="edge">
<title>Node3&#45;&gt;Node7</title>
<path fill="none" stroke="midnightblue" d="M43.05,-390.77C45.39,-435 57.47,-542.48 119,-599 124.95,-604.47 132.21,-608.43 139.88,-611.3"/>
<polygon fill="midnightblue" stroke="midnightblue" points="46.53,-390.36 42.63,-380.51 39.54,-390.65 46.53,-390.36"/>
</g>
<!-- Node8 -->
<g id="node6" class="node">
<title>Node8</title>
<g id="a_node6"><a xlink:href="classEventAlreadyExists.html" target="_top" xlink:title=" ">
<polygon fill="none" stroke="black" points="142.5,-570.5 142.5,-589.5 253.5,-589.5 253.5,-570.5 142.5,-570.5"/>
<text text-anchor="middle" x="198" y="-577.5" font-family="Helvetica,sans-Serif" font-size="10.00">EventAlreadyExists</text>
</a>
</g>
</g>
<!-- Node3&#45;&gt;Node8 -->
<g id="edge5" class="edge">
<title>Node3&#45;&gt;Node8</title>
<path fill="none" stroke="midnightblue" d="M44.55,-390.63C49.67,-429.33 66.63,-515.67 119,-561 125.64,-566.75 133.73,-570.82 142.17,-573.68"/>
<polygon fill="midnightblue" stroke="midnightblue" points="48.02,-390.16 43.36,-380.64 41.07,-390.99 48.02,-390.16"/>
</g>
<!-- Node9 -->
<g id="node7" class="node">
<title>Node9</title>
<g id="a_node7"><a xlink:href="classEventFull.html" target="_top" xlink:title=" ">
<polygon fill="none" stroke="black" points="167,-532.5 167,-551.5 229,-551.5 229,-532.5 167,-532.5"/>
<text text-anchor="middle" x="198" y="-539.5" font-family="Helvetica,sans-Serif" font-size="10.00">EventFull</text>
</a>
</g>
</g>
<!-- Node3&#45;&gt;Node9 -->
<g id="edge6" class="edge">
<title>Node3&#45;&gt;Node9</title>
<path fill="none" stroke="midnightblue" d="M46.76,-390.7C54.88,-423.39 75.77,-488.63 119,-523 132.53,-533.76 151.25,-538.55 166.96,-540.63"/>
<polygon fill="midnightblue" stroke="midnightblue" points="50.08,-389.55 44.4,-380.6 43.27,-391.14 50.08,-389.55"/>
</g>
<!-- Node10 -->
<g id="node8" class="node">
<title>Node10</title>
<g id="a_node8"><a xlink:href="classEventInvalid.html" target="_top" xlink:title=" ">
<polygon fill="none" stroke="black" points="159.5,-494.5 159.5,-513.5 236.5,-513.5 236.5,-494.5 159.5,-494.5"/>
<text text-anchor="middle" x="198" y="-501.5" font-family="Helvetica,sans-Serif" font-size="10.00">EventInvalid</text>
</a>
</g>
</g>
<!-- Node3&#45;&gt;Node10 -->
<g id="edge7" class="edge">
<title>Node3&#45;&gt;Node10</title>
<path fill="none" stroke="midnightblue" d="M50.04,-390.12C61.17,-415.77 84.47,-460.9 119,-485 130.77,-493.22 145.7,-497.9 159.33,-500.56"/>
<polygon fill="midnightblue" stroke="midnightblue" points="53.21,-388.62 46.14,-380.73 46.74,-391.31 53.21,-388.62"/>
</g>
<!-- Node11 -->
<g id="node9" class="node">
<title>Node11</title>
<g id="a_node9"><a xlink:href="classEventNotFound.html" target="_top" xlink:title=" ">
<polygon fill="none" stroke="black" points="152.5,-456.5 152.5,-475.5 243.5,-475.5 243.5,-456.5 152.5,-456.5"/>
<text text-anchor="middle" x="198" y="-463.5" font-family="Helvetica,sans-Serif" font-size="10.00">EventNotFound</text>
</a>
</g>
</g>
<!-- Node3&#45;&gt;Node11 -->
<g id="edge8" class="edge">
<title>Node3&#45;&gt;Node11</title>
<path fill="none" stroke="midnightblue" d="M55.66,-388.84C69.49,-406.3 92.85,-432.35 119,-447 129.09,-452.65 140.84,-456.64 152.11,-459.44"/>
<polygon fill="midnightblue" stroke="midnightblue" points="58.19,-386.4 49.33,-380.6 52.64,-390.66 58.19,-386.4"/>
</g>
<!-- Node12 -->
<g id="node10" class="node">
<title>Node12</title>
<g id="a_node10"><a xlink:href="classFileNotFound.html" target="_top" xlink:title=" ">
<polygon fill="none" stroke="black" points="158,-418.5 158,-437.5 238,-437.5 238,-418.5 158,-418.5"/>
<text text-anchor="middle" x="198" y="-425.5" font-family="Helvetica,sans-Serif" font-size="10.00">FileNotFound</text>
</a>
</g>
</g>
<!-- Node3&#45;&gt;Node12 -->
<g id="edge9" class="edge">
<title>Node3&#45;&gt;Node12</title>
<path fill="none" stroke="midnightblue" d="M67.95,-385.43C82.54,-393.24 101.4,-402.58 119,-409 131.31,-413.49 145.09,-417.25 157.61,-420.2"/>
<polygon fill="midnightblue" stroke="midnightblue" points="69.49,-382.28 59.04,-380.56 66.14,-388.42 69.49,-382.28"/>
</g>
<!-- Node13 -->
<g id="node11" class="node">
<title>Node13</title>
<g id="a_node11"><a xlink:href="classFileReadingFailed.html" target="_top" xlink:title=" ">
<polygon fill="none" stroke="black" points="147,-380.5 147,-399.5 249,-399.5 249,-380.5 147,-380.5"/>
<text text-anchor="middle" x="198" y="-387.5" font-family="Helvetica,sans-Serif" font-size="10.00">FileReadingFailed</text>
</a>
</g>
</g>
<!-- Node3&#45;&gt;Node13 -->
<g id="edge10" class="edge">
<title>Node3&#45;&gt;Node13</title>
<path fill="none" stroke="midnightblue" d="M93.47,-377.27C110.59,-379.37 129.67,-381.72 146.74,-383.82"/>
<polygon fill="midnightblue" stroke="midnightblue" points="93.45,-373.74 83.09,-375.99 92.59,-380.69 93.45,-373.74"/>
</g>
<!-- Node14 -->
<g id="node12" class="node">
<title>Node14</title>
<g id="a_node12"><a xlink:href="classInvalidAddress.html" target="_top" xlink:title=" ">
<polygon fill="none" stroke="black" points="153.5,-342.5 153.5,-361.5 242.5,-361.5 242.5,-342.5 153.5,-342.5"/>
<text text-anchor="middle" x="198" y="-349.5" font-family="Helvetica,sans-Serif" font-size="10.00">InvalidAddress</text>
</a>
</g>
</g>
<!-- Node3&#45;&gt;Node14 -->
<g id="edge11" class="edge">
<title>Node3&#45;&gt;Node14</title>
<path fill="none" stroke="midnightblue" d="M93.03,-364.79C112.53,-362.39 134.64,-359.67 153.43,-357.36"/>
<polygon fill="midnightblue" stroke="midnightblue" points="92.59,-361.31 83.09,-366.01 93.45,-368.26 92.59,-361.31"/>
</g>
<!-- Node15 -->
<g id="node13" class="node">
<title>Node15</title>
<g id="a_node13"><a xlink:href="classInvalidTime.html" target="_top" xlink:title=" ">
<polygon fill="none" stroke="black" points="161,-304.5 161,-323.5 235,-323.5 235,-304.5 161,-304.5"/>
<text text-anchor="middle" x="198" y="-311.5" font-family="Helvetica,sans-Serif" font-size="10.00">InvalidTime</text>
</a>
</g>
</g>
<!-- Node3&#45;&gt;Node15 -->
<g id="edge12" class="edge">
<title>Node3&#45;&gt;Node15</title>
<path fill="none" stroke="midnightblue" d="M67.95,-356.57C82.54,-348.76 101.4,-339.42 119,-333 132.35,-328.13 147.45,-324.12 160.78,-321.06"/>
<polygon fill="midnightblue" stroke="midnightblue" points="66.14,-353.58 59.04,-361.44 69.49,-359.72 66.14,-353.58"/>
</g>
<!-- Node16 -->
<g id="node14" class="node">
<title>Node16</title>
<g id="a_node14"><a xlink:href="classMenuExitWithNoFunctionCall.html" target="_top" xlink:title=" ">
<polygon fill="none" stroke="black" points="119,-266.5 119,-285.5 277,-285.5 277,-266.5 119,-266.5"/>
<text text-anchor="middle" x="198" y="-273.5" font-family="Helvetica,sans-Serif" font-size="10.00">MenuExitWithNoFunctionCall</text>
</a>
</g>
</g>
<!-- Node3&#45;&gt;Node16 -->
<g id="edge13" class="edge">
<title>Node3&#45;&gt;Node16</title>
<path fill="none" stroke="midnightblue" d="M55.66,-353.16C69.49,-335.7 92.85,-309.65 119,-295 125.93,-291.12 133.64,-288.02 141.44,-285.56"/>
<polygon fill="midnightblue" stroke="midnightblue" points="52.64,-351.34 49.33,-361.4 58.19,-355.6 52.64,-351.34"/>
</g>
<!-- Node17 -->
<g id="node15" class="node">
<title>Node17</title>
<g id="a_node15"><a xlink:href="classMenuForceExit.html" target="_top" xlink:title=" ">
<polygon fill="none" stroke="black" points="153.5,-228.5 153.5,-247.5 242.5,-247.5 242.5,-228.5 153.5,-228.5"/>
<text text-anchor="middle" x="198" y="-235.5" font-family="Helvetica,sans-Serif" font-size="10.00">MenuForceExit</text>
</a>
</g>
</g>
<!-- Node3&#45;&gt;Node17 -->
<g id="edge14" class="edge">
<title>Node3&#45;&gt;Node17</title>
<path fill="none" stroke="midnightblue" d="M50.04,-351.88C61.17,-326.23 84.47,-281.1 119,-257 129.06,-249.98 141.42,-245.54 153.31,-242.74"/>
<polygon fill="midnightblue" stroke="midnightblue" points="46.74,-350.69 46.14,-361.27 53.21,-353.38 46.74,-350.69"/>
</g>
<!-- Node18 -->
<g id="node16" class="node">
<title>Node18</title>
<g id="a_node16"><a xlink:href="classMuseumAlreadyExists.html" target="_top" xlink:title=" ">
<polygon fill="none" stroke="black" points="135.5,-190.5 135.5,-209.5 260.5,-209.5 260.5,-190.5 135.5,-190.5"/>
<text text-anchor="middle" x="198" y="-197.5" font-family="Helvetica,sans-Serif" font-size="10.00">MuseumAlreadyExists</text>
</a>
</g>
</g>
<!-- Node3&#45;&gt;Node18 -->
<g id="edge15" class="edge">
<title>Node3&#45;&gt;Node18</title>
<path fill="none" stroke="midnightblue" d="M46.76,-351.3C54.88,-318.61 75.77,-253.37 119,-219 123.91,-215.1 129.5,-211.98 135.39,-209.49"/>
<polygon fill="midnightblue" stroke="midnightblue" points="43.27,-350.86 44.4,-361.4 50.08,-352.45 43.27,-350.86"/>
</g>
<!-- Node19 -->
<g id="node17" class="node">
<title>Node19</title>
<g id="a_node17"><a xlink:href="classNoSuchCard.html" target="_top" xlink:title=" ">
<polygon fill="none" stroke="black" points="160,-152.5 160,-171.5 236,-171.5 236,-152.5 160,-152.5"/>
<text text-anchor="middle" x="198" y="-159.5" font-family="Helvetica,sans-Serif" font-size="10.00">NoSuchCard</text>
</a>
</g>
</g>
<!-- Node3&#45;&gt;Node19 -->
<g id="edge16" class="edge">
<title>Node3&#45;&gt;Node19</title>
<path fill="none" stroke="midnightblue" d="M44.55,-351.37C49.67,-312.67 66.63,-226.33 119,-181 130.28,-171.24 145.75,-166.32 159.95,-163.9"/>
<polygon fill="midnightblue" stroke="midnightblue" points="41.07,-351.01 43.36,-361.36 48.02,-351.84 41.07,-351.01"/>
</g>
<!-- Node20 -->
<g id="node18" class="node">
<title>Node20</title>
<g id="a_node18"><a xlink:href="classNoSuchEnterprise.html" target="_top" xlink:title=" ">
<polygon fill="none" stroke="black" points="146.5,-114.5 146.5,-133.5 249.5,-133.5 249.5,-114.5 146.5,-114.5"/>
<text text-anchor="middle" x="198" y="-121.5" font-family="Helvetica,sans-Serif" font-size="10.00">NoSuchEnterprise</text>
</a>
</g>
</g>
<!-- Node3&#45;&gt;Node20 -->
<g id="edge17" class="edge">
<title>Node3&#45;&gt;Node20</title>
<path fill="none" stroke="midnightblue" d="M43.05,-351.23C45.39,-307 57.47,-199.52 119,-143 126.6,-136.02 136.32,-131.49 146.3,-128.58"/>
<polygon fill="midnightblue" stroke="midnightblue" points="39.54,-351.35 42.63,-361.49 46.53,-351.64 39.54,-351.35"/>
</g>
<!-- Node21 -->
<g id="node19" class="node">
<title>Node21</title>
<g id="a_node19"><a xlink:href="classNoSuchMuseum.html" target="_top" xlink:title=" ">
<polygon fill="none" stroke="black" points="150.5,-76.5 150.5,-95.5 245.5,-95.5 245.5,-76.5 150.5,-76.5"/>
<text text-anchor="middle" x="198" y="-83.5" font-family="Helvetica,sans-Serif" font-size="10.00">NoSuchMuseum</text>
</a>
</g>
</g>
<!-- Node3&#45;&gt;Node21 -->
<g id="edge18" class="edge">
<title>Node3&#45;&gt;Node21</title>
<path fill="none" stroke="midnightblue" d="M41.93,-351.03C41.68,-301.66 48.23,-172.92 119,-105 127.45,-96.89 138.75,-92.06 150.12,-89.23"/>
<polygon fill="midnightblue" stroke="midnightblue" points="38.44,-351.36 42.1,-361.31 45.44,-351.25 38.44,-351.36"/>
</g>
<!-- Node22 -->
<g id="node20" class="node">
<title>Node22</title>
<g id="a_node20"><a xlink:href="classTooEarlyToRenewCard.html" target="_top" xlink:title=" ">
<polygon fill="none" stroke="black" points="136,-38.5 136,-57.5 260,-57.5 260,-38.5 136,-38.5"/>
<text text-anchor="middle" x="198" y="-45.5" font-family="Helvetica,sans-Serif" font-size="10.00">TooEarlyToRenewCard</text>
</a>
</g>
</g>
<!-- Node3&#45;&gt;Node22 -->
<g id="edge19" class="edge">
<title>Node3&#45;&gt;Node22</title>
<path fill="none" stroke="midnightblue" d="M44.84,-351.02C52.39,-289.99 77.99,-107.7 119,-67 123.85,-62.19 129.7,-58.52 135.99,-55.74"/>
<polygon fill="midnightblue" stroke="midnightblue" points="41.33,-350.89 43.61,-361.24 48.28,-351.73 41.33,-350.89"/>
</g>
<!-- Node23 -->
<g id="node21" class="node">
<title>Node23</title>
<g id="a_node21"><a xlink:href="classUserInputReadingFailure.html" target="_top" xlink:title=" ">
<polygon fill="none" stroke="black" points="130,-0.5 130,-19.5 266,-19.5 266,-0.5 130,-0.5"/>
<text text-anchor="middle" x="198" y="-7.5" font-family="Helvetica,sans-Serif" font-size="10.00">UserInputReadingFailure</text>
</a>
</g>
</g>
<!-- Node3&#45;&gt;Node23 -->
<g id="edge20" class="edge">
<title>Node3&#45;&gt;Node23</title>
<path fill="none" stroke="midnightblue" d="M44.23,-351.16C50.35,-285.35 73.17,-75.7 119,-29 122.71,-25.22 127.04,-22.14 131.72,-19.64"/>
<polygon fill="midnightblue" stroke="midnightblue" points="40.72,-351.12 43.3,-361.4 47.69,-351.75 40.72,-351.12"/>
</g>
</g>
</svg>
