<?xml version="1.0" encoding="UTF-8" standalone="no"?>
<!DOCTYPE svg PUBLIC "-//W3C//DTD SVG 1.1//EN"
 "http://www.w3.org/Graphics/SVG/1.1/DTD/svg11.dtd">
<!-- Generated by graphviz version 2.43.20190912.0211 (20190912.0211)
 -->
<!-- Title: Graphical Class Hierarchy Pages: 1 -->
<svg width="285pt" height="674pt"
 viewBox="0.00 0.00 285.00 674.00" xmlns="http://www.w3.org/2000/svg" xmlns:xlink="http://www.w3.org/1999/xlink">
<g id="graph0" class="graph" transform="scale(1 1) rotate(0) translate(4 670)">
<title>Graphical Class Hierarchy</title>
<!-- Node3 -->
<g id="node1" class="node">
<title>Node3</title>
<g id="a_node1"><a xlink:title=" ">
<polygon fill="none" stroke="#bfbfbf" points="0,-323.5 0,-342.5 83,-342.5 83,-323.5 0,-323.5"/>
<text text-anchor="middle" x="41.5" y="-330.5" font-family="Helvetica,sans-Serif" font-size="10.00">runtime_error</text>
</a>
</g>
</g>
<!-- Node0 -->
<g id="node2" class="node">
<title>Node0</title>
<g id="a_node2"><a xlink:href="classCardAlreadyExists.html" target="_top" xlink:title=" ">
<polygon fill="none" stroke="black" points="145,-646.5 145,-665.5 251,-665.5 251,-646.5 145,-646.5"/>
<text text-anchor="middle" x="198" y="-653.5" font-family="Helvetica,sans-Serif" font-size="10.00">CardAlreadyExists</text>
</a>
</g>
</g>
<!-- Node3&#45;&gt;Node0 -->
<g id="edge1" class="edge">
<title>Node3&#45;&gt;Node0</title>
<path fill="none" stroke="midnightblue" d="M44.84,-352.98C52.39,-414.01 77.99,-596.3 119,-637 126.02,-643.97 135.15,-648.54 144.68,-651.49"/>
<polygon fill="midnightblue" stroke="midnightblue" points="48.28,-352.27 43.61,-342.76 41.33,-353.11 48.28,-352.27"/>
</g>
<!-- Node5 -->
<g id="node3" class="node">
<title>Node5</title>
<g id="a_node3"><a xlink:href="classCardExpired.html" target="_top" xlink:title=" ">
<polygon fill="none" stroke="black" points="160,-608.5 160,-627.5 236,-627.5 236,-608.5 160,-608.5"/>
<text text-anchor="middle" x="198" y="-615.5" font-family="Helvetica,sans-Serif" font-size="10.00">CardExpired</text>
</a>
</g>
</g>
<!-- Node3&#45;&gt;Node5 -->
<g id="edge2" class="edge">
<title>Node3&#45;&gt;Node5</title>
<path fill="none" stroke="midnightblue" d="M41.93,-352.97C41.68,-402.34 48.23,-531.08 119,-599 129.86,-609.42 145.44,-614.43 159.82,-616.74"/>
<polygon fill="midnightblue" stroke="midnightblue" points="45.44,-352.75 42.1,-342.69 38.44,-352.64 45.44,-352.75"/>
</g>
<!-- Node6 -->
<g id="node4" class="node">
<title>Node6</title>
<g id="a_node4"><a xlink:href="classEnterpriseAlreadyExists.html" target="_top" xlink:title=" ">
<polygon fill="none" stroke="black" points="131.5,-570.5 131.5,-589.5 264.5,-589.5 264.5,-570.5 131.5,-570.5"/>
<text text-anchor="middle" x="198" y="-577.5" font-family="Helvetica,sans-Serif" font-size="10.00">EnterpriseAlreadyExists</text>
</a>
</g>
</g>
<!-- Node3&#45;&gt;Node6 -->
<g id="edge3" class="edge">
<title>Node3&#45;&gt;Node6</title>
<path fill="none" stroke="midnightblue" d="M43.05,-352.77C45.39,-397 57.47,-504.48 119,-561 123.21,-564.87 128.07,-567.98 133.27,-570.49"/>
<polygon fill="midnightblue" stroke="midnightblue" points="46.53,-352.36 42.63,-342.51 39.54,-352.65 46.53,-352.36"/>
</g>
<!-- Node7 -->
<g id="node5" class="node">
<title>Node7</title>
<g id="a_node5"><a xlink:href="classEventAlreadyBought.html" target="_top" xlink:title=" ">
<polygon fill="none" stroke="black" points="140,-532.5 140,-551.5 256,-551.5 256,-532.5 140,-532.5"/>
<text text-anchor="middle" x="198" y="-539.5" font-family="Helvetica,sans-Serif" font-size="10.00">EventAlreadyBought</text>
</a>
</g>
</g>
<!-- Node3&#45;&gt;Node7 -->
<g id="edge4" class="edge">
<title>Node3&#45;&gt;Node7</title>
<path fill="none" stroke="midnightblue" d="M44.55,-352.63C49.67,-391.33 66.63,-477.67 119,-523 125.01,-528.2 132.21,-532.03 139.77,-534.83"/>
<polygon fill="midnightblue" stroke="midnightblue" points="48.02,-352.16 43.36,-342.64 41.07,-352.99 48.02,-352.16"/>
</g>
<!-- Node8 -->
<g id="node6" class="node">
<title>Node8</title>
<g id="a_node6"><a xlink:href="classEventAlreadyExists.html" target="_top" xlink:title=" ">
<polygon fill="none" stroke="black" points="142.5,-494.5 142.5,-513.5 253.5,-513.5 253.5,-494.5 142.5,-494.5"/>
<text text-anchor="middle" x="198" y="-501.5" font-family="Helvetica,sans-Serif" font-size="10.00">EventAlreadyExists</text>
</a>
</g>
</g>
<!-- Node3&#45;&gt;Node8 -->
<g id="edge5" class="edge">
<title>Node3&#45;&gt;Node8</title>
<path fill="none" stroke="midnightblue" d="M46.76,-352.7C54.88,-385.39 75.77,-450.63 119,-485 125.76,-490.38 133.83,-494.27 142.16,-497.07"/>
<polygon fill="midnightblue" stroke="midnightblue" points="50.08,-351.55 44.4,-342.6 43.27,-353.14 50.08,-351.55"/>
</g>
<!-- Node9 -->
<g id="node7" class="node">
<title>Node9</title>
<g id="a_node7"><a xlink:href="classEventFull.html" target="_top" xlink:title=" ">
<polygon fill="none" stroke="black" points="167,-456.5 167,-475.5 229,-475.5 229,-456.5 167,-456.5"/>
<text text-anchor="middle" x="198" y="-463.5" font-family="Helvetica,sans-Serif" font-size="10.00">EventFull</text>
</a>
</g>
</g>
<!-- Node3&#45;&gt;Node9 -->
<g id="edge6" class="edge">
<title>Node3&#45;&gt;Node9</title>
<path fill="none" stroke="midnightblue" d="M50.04,-352.12C61.17,-377.77 84.47,-422.9 119,-447 132.94,-456.73 151.31,-461.5 166.72,-463.83"/>
<polygon fill="midnightblue" stroke="midnightblue" points="53.21,-350.62 46.14,-342.73 46.74,-353.31 53.21,-350.62"/>
</g>
<!-- Node10 -->
<g id="node8" class="node">
<title>Node10</title>
<g id="a_node8"><a xlink:href="classEventInvalid.html" target="_top" xlink:title=" ">
<polygon fill="none" stroke="black" points="159.5,-418.5 159.5,-437.5 236.5,-437.5 236.5,-418.5 159.5,-418.5"/>
<text text-anchor="middle" x="198" y="-425.5" font-family="Helvetica,sans-Serif" font-size="10.00">EventInvalid</text>
</a>
</g>
</g>
<!-- Node3&#45;&gt;Node10 -->
<g id="edge7" class="edge">
<title>Node3&#45;&gt;Node10</title>
<path fill="none" stroke="midnightblue" d="M55.66,-350.84C69.49,-368.3 92.85,-394.35 119,-409 131.28,-415.88 146.01,-420.29 159.35,-423.1"/>
<polygon fill="midnightblue" stroke="midnightblue" points="58.19,-348.4 49.33,-342.6 52.64,-352.66 58.19,-348.4"/>
</g>
<!-- Node11 -->
<g id="node9" class="node">
<title>Node11</title>
<g id="a_node9"><a xlink:href="classEventNotFound.html" target="_top" xlink:title=" ">
<polygon fill="none" stroke="black" points="152.5,-380.5 152.5,-399.5 243.5,-399.5 243.5,-380.5 152.5,-380.5"/>
<text text-anchor="middle" x="198" y="-387.5" font-family="Helvetica,sans-Serif" font-size="10.00">EventNotFound</text>
</a>
</g>
</g>
<!-- Node3&#45;&gt;Node11 -->
<g id="edge8" class="edge">
<title>Node3&#45;&gt;Node11</title>
<path fill="none" stroke="midnightblue" d="M67.95,-347.43C82.54,-355.24 101.4,-364.58 119,-371 129.61,-374.87 141.31,-378.19 152.35,-380.93"/>
<polygon fill="midnightblue" stroke="midnightblue" points="69.49,-344.28 59.04,-342.56 66.14,-350.42 69.49,-344.28"/>
</g>
<!-- Node12 -->
<g id="node10" class="node">
<title>Node12</title>
<g id="a_node10"><a xlink:href="classFileNotFound.html" target="_top" xlink:title=" ">
<polygon fill="none" stroke="black" points="158,-342.5 158,-361.5 238,-361.5 238,-342.5 158,-342.5"/>
<text text-anchor="middle" x="198" y="-349.5" font-family="Helvetica,sans-Serif" font-size="10.00">FileNotFound</text>
</a>
</g>
</g>
<!-- Node3&#45;&gt;Node12 -->
<g id="edge9" class="edge">
<title>Node3&#45;&gt;Node12</title>
<path fill="none" stroke="midnightblue" d="M93.13,-339.23C114.13,-341.81 138.12,-344.76 157.74,-347.17"/>
<polygon fill="midnightblue" stroke="midnightblue" points="93.45,-335.74 83.09,-337.99 92.59,-342.69 93.45,-335.74"/>
</g>
<!-- Node13 -->
<g id="node11" class="node">
<title>Node13</title>
<g id="a_node11"><a xlink:href="classFileReadingFailed.html" target="_top" xlink:title=" ">
<polygon fill="none" stroke="black" points="147,-304.5 147,-323.5 249,-323.5 249,-304.5 147,-304.5"/>
<text text-anchor="middle" x="198" y="-311.5" font-family="Helvetica,sans-Serif" font-size="10.00">FileReadingFailed</text>
</a>
</g>
</g>
<!-- Node3&#45;&gt;Node13 -->
<g id="edge10" class="edge">
<title>Node3&#45;&gt;Node13</title>
<path fill="none" stroke="midnightblue" d="M93.47,-326.73C110.59,-324.63 129.67,-322.28 146.74,-320.18"/>
<polygon fill="midnightblue" stroke="midnightblue" points="92.59,-323.31 83.09,-328.01 93.45,-330.26 92.59,-323.31"/>
</g>
<!-- Node14 -->
<g id="node12" class="node">
<title>Node14</title>
<g id="a_node12"><a xlink:href="classInvalidAddress.html" target="_top" xlink:title=" ">
<polygon fill="none" stroke="black" points="153.5,-266.5 153.5,-285.5 242.5,-285.5 242.5,-266.5 153.5,-266.5"/>
<text text-anchor="middle" x="198" y="-273.5" font-family="Helvetica,sans-Serif" font-size="10.00">InvalidAddress</text>
</a>
</g>
</g>
<!-- Node3&#45;&gt;Node14 -->
<g id="edge11" class="edge">
<title>Node3&#45;&gt;Node14</title>
<path fill="none" stroke="midnightblue" d="M67.95,-318.57C82.54,-310.76 101.4,-301.42 119,-295 129.87,-291.03 141.89,-287.64 153.17,-284.87"/>
<polygon fill="midnightblue" stroke="midnightblue" points="66.14,-315.58 59.04,-323.44 69.49,-321.72 66.14,-315.58"/>
</g>
<!-- Node15 -->
<g id="node13" class="node">
<title>Node15</title>
<g id="a_node13"><a xlink:href="classInvalidTime.html" target="_top" xlink:title=" ">
<polygon fill="none" stroke="black" points="161,-228.5 161,-247.5 235,-247.5 235,-228.5 161,-228.5"/>
<text text-anchor="middle" x="198" y="-235.5" font-family="Helvetica,sans-Serif" font-size="10.00">InvalidTime</text>
</a>
</g>
</g>
<!-- Node3&#45;&gt;Node15 -->
<g id="edge12" class="edge">
<title>Node3&#45;&gt;Node15</title>
<path fill="none" stroke="midnightblue" d="M55.66,-315.16C69.49,-297.7 92.85,-271.65 119,-257 131.77,-249.85 147.18,-245.37 160.93,-242.57"/>
<polygon fill="midnightblue" stroke="midnightblue" points="52.64,-313.34 49.33,-323.4 58.19,-317.6 52.64,-313.34"/>
</g>
<!-- Node16 -->
<g id="node14" class="node">
<title>Node16</title>
<g id="a_node14"><a xlink:href="classMenuExitWithNoFunctionCall.html" target="_top" xlink:title=" ">
<polygon fill="none" stroke="black" points="119,-190.5 119,-209.5 277,-209.5 277,-190.5 119,-190.5"/>
<text text-anchor="middle" x="198" y="-197.5" font-family="Helvetica,sans-Serif" font-size="10.00">MenuExitWithNoFunctionCall</text>
</a>
</g>
</g>
<!-- Node3&#45;&gt;Node16 -->
<g id="edge13" class="edge">
<title>Node3&#45;&gt;Node16</title>
<path fill="none" stroke="midnightblue" d="M50.04,-313.88C61.17,-288.23 84.47,-243.1 119,-219 124.6,-215.09 130.91,-211.98 137.46,-209.51"/>
<polygon fill="midnightblue" stroke="midnightblue" points="46.74,-312.69 46.14,-323.27 53.21,-315.38 46.74,-312.69"/>
</g>
<!-- Node17 -->
<g id="node15" class="node">
<title>Node17</title>
<g id="a_node15"><a xlink:href="classMenuForceExit.html" target="_top" xlink:title=" ">
<polygon fill="none" stroke="black" points="153.5,-152.5 153.5,-171.5 242.5,-171.5 242.5,-152.5 153.5,-152.5"/>
<text text-anchor="middle" x="198" y="-159.5" font-family="Helvetica,sans-Serif" font-size="10.00">MenuForceExit</text>
</a>
</g>
</g>
<!-- Node3&#45;&gt;Node17 -->
<g id="edge14" class="edge">
<title>Node3&#45;&gt;Node17</title>
<path fill="none" stroke="midnightblue" d="M46.76,-313.3C54.88,-280.61 75.77,-215.37 119,-181 128.71,-173.28 141.1,-168.63 153.12,-165.85"/>
<polygon fill="midnightblue" stroke="midnightblue" points="43.27,-312.86 44.4,-323.4 50.08,-314.45 43.27,-312.86"/>
</g>
<!-- Node18 -->
<g id="node16" class="node">
<title>Node18</title>
<g id="a_node16"><a xlink:href="classMuseumAlreadyExists.html" target="_top" xlink:title=" ">
<polygon fill="none" stroke="black" points="135.5,-114.5 135.5,-133.5 260.5,-133.5 260.5,-114.5 135.5,-114.5"/>
<text text-anchor="middle" x="198" y="-121.5" font-family="Helvetica,sans-Serif" font-size="10.00">MuseumAlreadyExists</text>
</a>
</g>
</g>
<!-- Node3&#45;&gt;Node18 -->
<g id="edge15" class="edge">
<title>Node3&#45;&gt;Node18</title>
<path fill="none" stroke="midnightblue" d="M44.55,-313.37C49.67,-274.67 66.63,-188.33 119,-143 123.85,-138.8 129.47,-135.5 135.44,-132.91"/>
<polygon fill="midnightblue" stroke="midnightblue" points="41.07,-313.01 43.36,-323.36 48.02,-313.84 41.07,-313.01"/>
</g>
<!-- Node19 -->
<g id="node17" class="node">
<title>Node19</title>
<g id="a_node17"><a xlink:href="classNoSuchObject.html" target="_top" xlink:title=" ">
<polygon fill="none" stroke="black" points="155.5,-76.5 155.5,-95.5 240.5,-95.5 240.5,-76.5 155.5,-76.5"/>
<text text-anchor="middle" x="198" y="-83.5" font-family="Helvetica,sans-Serif" font-size="10.00">NoSuchObject</text>
</a>
</g>
</g>
<!-- Node3&#45;&gt;Node19 -->
<g id="edge16" class="edge">
<title>Node3&#45;&gt;Node19</title>
<path fill="none" stroke="midnightblue" d="M43.05,-313.23C45.39,-269 57.47,-161.52 119,-105 128.85,-95.95 142.29,-91.01 155.23,-88.38"/>
<polygon fill="midnightblue" stroke="midnightblue" points="39.54,-313.35 42.63,-323.49 46.53,-313.64 39.54,-313.35"/>
</g>
<!-- Node20 -->
<g id="node18" class="node">
<title>Node20</title>
<g id="a_node18"><a xlink:href="classTooEarlyToRenewCard.html" target="_top" xlink:title=" ">
<polygon fill="none" stroke="black" points="136,-38.5 136,-57.5 260,-57.5 260,-38.5 136,-38.5"/>
<text text-anchor="middle" x="198" y="-45.5" font-family="Helvetica,sans-Serif" font-size="10.00">TooEarlyToRenewCard</text>
</a>
</g>
</g>
<!-- Node3&#45;&gt;Node20 -->
<g id="edge17" class="edge">
<title>Node3&#45;&gt;Node20</title>
<path fill="none" stroke="midnightblue" d="M41.93,-313.03C41.68,-263.66 48.23,-134.92 119,-67 123.83,-62.37 129.59,-58.8 135.76,-56.07"/>
<polygon fill="midnightblue" stroke="midnightblue" points="38.44,-313.36 42.1,-323.31 45.44,-313.25 38.44,-313.36"/>
</g>
<!-- Node21 -->
<g id="node19" class="node">
<title>Node21</title>
<g id="a_node19"><a xlink:href="classUserInputReadingFailure.html" target="_top" xlink:title=" ">
<polygon fill="none" stroke="black" points="130,-0.5 130,-19.5 266,-19.5 266,-0.5 130,-0.5"/>
<text text-anchor="middle" x="198" y="-7.5" font-family="Helvetica,sans-Serif" font-size="10.00">UserInputReadingFailure</text>
</a>
</g>
</g>
<!-- Node3&#45;&gt;Node21 -->
<g id="edge18" class="edge">
<title>Node3&#45;&gt;Node21</title>
<path fill="none" stroke="midnightblue" d="M44.84,-313.02C52.39,-251.99 77.99,-69.7 119,-29 122.86,-25.17 127.35,-22.07 132.2,-19.56"/>
<polygon fill="midnightblue" stroke="midnightblue" points="41.33,-312.89 43.61,-323.24 48.28,-313.73 41.33,-312.89"/>
</g>
</g>
</svg>
