<?xml version="1.0" encoding="UTF-8" standalone="no"?>
<!DOCTYPE svg PUBLIC "-//W3C//DTD SVG 1.1//EN"
 "http://www.w3.org/Graphics/SVG/1.1/DTD/svg11.dtd">
<!-- Generated by graphviz version 2.43.20190912.0211 (20190912.0211)
 -->
<!-- Title: /home/joao/Documents/UniStuff/2_1things/AEDA/FEUP&#45;AEDA&#45;Proj1/include/interfaces.h Pages: 1 -->
<svg width="1317pt" height="397pt"
 viewBox="0.00 0.00 1317.00 397.00" xmlns="http://www.w3.org/2000/svg" xmlns:xlink="http://www.w3.org/1999/xlink">
<g id="graph0" class="graph" transform="scale(1 1) rotate(0) translate(4 393)">
<title>/home/joao/Documents/UniStuff/2_1things/AEDA/FEUP&#45;AEDA&#45;Proj1/include/interfaces.h</title>
<!-- Node1 -->
<g id="node1" class="node">
<title>Node1</title>
<g id="a_node1"><a xlink:title=" ">
<polygon fill="#bfbfbf" stroke="black" points="565.5,-336.5 565.5,-388.5 708.5,-388.5 708.5,-336.5 565.5,-336.5"/>
<text text-anchor="start" x="573.5" y="-376.5" font-family="Helvetica,sans-Serif" font-size="10.00">/home/joao/Documents</text>
<text text-anchor="start" x="573.5" y="-365.5" font-family="Helvetica,sans-Serif" font-size="10.00">/UniStuff/2_1things/AEDA</text>
<text text-anchor="start" x="573.5" y="-354.5" font-family="Helvetica,sans-Serif" font-size="10.00">/FEUP&#45;AEDA&#45;Proj1/include</text>
<text text-anchor="middle" x="637" y="-343.5" font-family="Helvetica,sans-Serif" font-size="10.00">/interfaces.h</text>
</a>
</g>
</g>
<!-- Node2 -->
<g id="node2" class="node">
<title>Node2</title>
<g id="a_node2"><a xlink:title=" ">
<polygon fill="none" stroke="#bfbfbf" points="452,-168.5 452,-187.5 516,-187.5 516,-168.5 452,-168.5"/>
<text text-anchor="middle" x="484" y="-175.5" font-family="Helvetica,sans-Serif" font-size="10.00">algorithm</text>
</a>
</g>
</g>
<!-- Node1&#45;&gt;Node2 -->
<g id="edge1" class="edge">
<title>Node1&#45;&gt;Node2</title>
<path fill="none" stroke="midnightblue" d="M615.73,-336.12C583.9,-298.17 524.78,-227.64 497.92,-195.61"/>
<polygon fill="midnightblue" stroke="midnightblue" points="500.36,-193.06 491.25,-187.65 494.99,-197.56 500.36,-193.06"/>
</g>
<!-- Node3 -->
<g id="node3" class="node">
<title>Node3</title>
<g id="a_node3"><a xlink:title=" ">
<polygon fill="none" stroke="#bfbfbf" points="346,-0.5 346,-19.5 406,-19.5 406,-0.5 346,-0.5"/>
<text text-anchor="middle" x="376" y="-7.5" font-family="Helvetica,sans-Serif" font-size="10.00">iostream</text>
</a>
</g>
</g>
<!-- Node1&#45;&gt;Node3 -->
<g id="edge2" class="edge">
<title>Node1&#45;&gt;Node3</title>
<path fill="none" stroke="midnightblue" d="M565.47,-362.19C399.07,-361.88 0,-349.23 0,-235 0,-235 0,-235 0,-121 0,-51.6 238.91,-22.95 335.85,-14.18"/>
<polygon fill="midnightblue" stroke="midnightblue" points="336.21,-17.66 345.87,-13.3 335.6,-10.69 336.21,-17.66"/>
</g>
<!-- Node4 -->
<g id="node4" class="node">
<title>Node4</title>
<g id="a_node4"><a xlink:title=" ">
<polygon fill="none" stroke="#bfbfbf" points="803,-56.5 803,-75.5 847,-75.5 847,-56.5 803,-56.5"/>
<text text-anchor="middle" x="825" y="-63.5" font-family="Helvetica,sans-Serif" font-size="10.00">string</text>
</a>
</g>
</g>
<!-- Node1&#45;&gt;Node4 -->
<g id="edge3" class="edge">
<title>Node1&#45;&gt;Node4</title>
<path fill="none" stroke="midnightblue" d="M708.85,-350.46C795.34,-332.89 936.92,-289.53 1001,-188 1015.31,-165.32 989.48,-121.5 979,-112 937.91,-74.75 911.12,-91.2 856.79,-77.2"/>
<polygon fill="midnightblue" stroke="midnightblue" points="857.65,-73.81 847.08,-74.45 855.74,-80.54 857.65,-73.81"/>
</g>
<!-- Node5 -->
<g id="node5" class="node">
<title>Node5</title>
<g id="a_node5"><a xlink:title=" ">
<polygon fill="none" stroke="#bfbfbf" points="572.5,-168.5 572.5,-187.5 619.5,-187.5 619.5,-168.5 572.5,-168.5"/>
<text text-anchor="middle" x="596" y="-175.5" font-family="Helvetica,sans-Serif" font-size="10.00">vector</text>
</a>
</g>
</g>
<!-- Node1&#45;&gt;Node5 -->
<g id="edge4" class="edge">
<title>Node1&#45;&gt;Node5</title>
<path fill="none" stroke="midnightblue" d="M626.81,-336.4C622.66,-325.38 618.11,-312.2 615,-300 605.93,-264.41 600.45,-221.76 597.84,-197.78"/>
<polygon fill="midnightblue" stroke="midnightblue" points="601.3,-197.21 596.79,-187.62 594.34,-197.93 601.3,-197.21"/>
</g>
<!-- Node6 -->
<g id="node6" class="node">
<title>Node6</title>
<g id="a_node6"><a xlink:href="cards_8h.html" target="_top" xlink:title=" ">
<polygon fill="none" stroke="black" points="699,-224.5 699,-243.5 751,-243.5 751,-224.5 699,-224.5"/>
<text text-anchor="middle" x="725" y="-231.5" font-family="Helvetica,sans-Serif" font-size="10.00">cards.h</text>
</a>
</g>
</g>
<!-- Node1&#45;&gt;Node6 -->
<g id="edge5" class="edge">
<title>Node1&#45;&gt;Node6</title>
<path fill="none" stroke="midnightblue" d="M706.88,-336.37C722.43,-327.37 736.96,-315.48 746,-300 754.75,-285.02 746.65,-265.94 738.09,-252.34"/>
<polygon fill="midnightblue" stroke="midnightblue" points="740.85,-250.17 732.3,-243.91 735.08,-254.13 740.85,-250.17"/>
</g>
<!-- Node16 -->
<g id="node16" class="node">
<title>Node16</title>
<g id="a_node16"><a xlink:href="filter_8h.html" target="_top" xlink:title=" ">
<polygon fill="none" stroke="black" points="348.5,-280.5 348.5,-299.5 395.5,-299.5 395.5,-280.5 348.5,-280.5"/>
<text text-anchor="middle" x="372" y="-287.5" font-family="Helvetica,sans-Serif" font-size="10.00">filter.h</text>
</a>
</g>
</g>
<!-- Node1&#45;&gt;Node16 -->
<g id="edge27" class="edge">
<title>Node1&#45;&gt;Node16</title>
<path fill="none" stroke="midnightblue" d="M565.29,-342.42C513.26,-328.58 445.26,-310.49 405.33,-299.87"/>
<polygon fill="midnightblue" stroke="midnightblue" points="406.14,-296.46 395.57,-297.27 404.34,-303.23 406.14,-296.46"/>
</g>
<!-- Node22 -->
<g id="node22" class="node">
<title>Node22</title>
<g id="a_node22"><a xlink:href="menu_8h.html" target="_top" xlink:title=" ">
<polygon fill="none" stroke="black" points="1048.5,-224.5 1048.5,-243.5 1101.5,-243.5 1101.5,-224.5 1048.5,-224.5"/>
<text text-anchor="middle" x="1075" y="-231.5" font-family="Helvetica,sans-Serif" font-size="10.00">menu.h</text>
</a>
</g>
</g>
<!-- Node1&#45;&gt;Node22 -->
<g id="edge52" class="edge">
<title>Node1&#45;&gt;Node22</title>
<path fill="none" stroke="midnightblue" d="M708.56,-357.48C808.03,-350.72 981.74,-334.3 1034,-300 1050.86,-288.94 1062.1,-268.28 1068.48,-253.22"/>
<polygon fill="midnightblue" stroke="midnightblue" points="1071.76,-254.46 1072.13,-243.87 1065.24,-251.91 1071.76,-254.46"/>
</g>
<!-- Node24 -->
<g id="node24" class="node">
<title>Node24</title>
<g id="a_node24"><a xlink:href="museum__network_8h.html" target="_top" xlink:title=" ">
<polygon fill="none" stroke="black" points="623.5,-280.5 623.5,-299.5 736.5,-299.5 736.5,-280.5 623.5,-280.5"/>
<text text-anchor="middle" x="680" y="-287.5" font-family="Helvetica,sans-Serif" font-size="10.00">museum_network.h</text>
</a>
</g>
</g>
<!-- Node1&#45;&gt;Node24 -->
<g id="edge60" class="edge">
<title>Node1&#45;&gt;Node24</title>
<path fill="none" stroke="midnightblue" d="M652.28,-336.45C657.96,-327.13 664.28,-316.77 669.45,-308.3"/>
<polygon fill="midnightblue" stroke="midnightblue" points="672.48,-310.06 674.7,-299.7 666.5,-306.41 672.48,-310.06"/>
</g>
<!-- Node6&#45;&gt;Node3 -->
<g id="edge7" class="edge">
<title>Node6&#45;&gt;Node3</title>
<path fill="none" stroke="midnightblue" d="M721.12,-224.44C714.99,-211.44 702.19,-186.31 687,-168 638.53,-109.56 625.39,-90.97 558,-56 512.71,-32.5 454.64,-20.9 416.43,-15.45"/>
<polygon fill="midnightblue" stroke="midnightblue" points="416.58,-11.94 406.2,-14.07 415.64,-18.87 416.58,-11.94"/>
</g>
<!-- Node6&#45;&gt;Node4 -->
<g id="edge8" class="edge">
<title>Node6&#45;&gt;Node4</title>
<path fill="none" stroke="midnightblue" d="M737.83,-224.33C749.17,-216.11 765.49,-202.84 776,-188 799.06,-155.44 813.58,-110.44 820.39,-85.51"/>
<polygon fill="midnightblue" stroke="midnightblue" points="823.85,-86.14 822.99,-75.58 817.07,-84.37 823.85,-86.14"/>
</g>
<!-- Node6&#45;&gt;Node5 -->
<g id="edge9" class="edge">
<title>Node6&#45;&gt;Node5</title>
<path fill="none" stroke="midnightblue" d="M704.56,-224.44C683.33,-215.56 649.9,-201.56 625.75,-191.45"/>
<polygon fill="midnightblue" stroke="midnightblue" points="626.92,-188.15 616.34,-187.52 624.22,-194.61 626.92,-188.15"/>
</g>
<!-- Node7 -->
<g id="node7" class="node">
<title>Node7</title>
<g id="a_node7"><a xlink:title=" ">
<polygon fill="none" stroke="#bfbfbf" points="715.5,-0.5 715.5,-19.5 770.5,-19.5 770.5,-0.5 715.5,-0.5"/>
<text text-anchor="middle" x="743" y="-7.5" font-family="Helvetica,sans-Serif" font-size="10.00">fstream</text>
</a>
</g>
</g>
<!-- Node6&#45;&gt;Node7 -->
<g id="edge6" class="edge">
<title>Node6&#45;&gt;Node7</title>
<path fill="none" stroke="midnightblue" d="M728.27,-224.19C731.42,-215.22 735.99,-200.86 738,-188 746.9,-130.92 745.43,-62.26 744.02,-29.78"/>
<polygon fill="midnightblue" stroke="midnightblue" points="747.5,-29.36 743.52,-19.54 740.51,-29.7 747.5,-29.36"/>
</g>
<!-- Node8 -->
<g id="node8" class="node">
<title>Node8</title>
<g id="a_node8"><a xlink:href="address_8h.html" target="_top" xlink:title=" ">
<polygon fill="none" stroke="black" points="344,-112.5 344,-131.5 408,-131.5 408,-112.5 344,-112.5"/>
<text text-anchor="middle" x="376" y="-119.5" font-family="Helvetica,sans-Serif" font-size="10.00">address.h</text>
</a>
</g>
</g>
<!-- Node6&#45;&gt;Node8 -->
<g id="edge10" class="edge">
<title>Node6&#45;&gt;Node8</title>
<path fill="none" stroke="midnightblue" d="M715.44,-224.46C699.02,-210.31 663.87,-182.16 629,-168 558.62,-139.43 469.94,-128.96 418.44,-125.15"/>
<polygon fill="midnightblue" stroke="midnightblue" points="418.56,-121.65 408.34,-124.45 418.07,-128.63 418.56,-121.65"/>
</g>
<!-- Node9 -->
<g id="node9" class="node">
<title>Node9</title>
<g id="a_node9"><a xlink:href="date_8h.html" target="_top" xlink:title=" ">
<polygon fill="none" stroke="black" points="190.5,-56.5 190.5,-75.5 237.5,-75.5 237.5,-56.5 190.5,-56.5"/>
<text text-anchor="middle" x="214" y="-63.5" font-family="Helvetica,sans-Serif" font-size="10.00">date.h</text>
</a>
</g>
</g>
<!-- Node6&#45;&gt;Node9 -->
<g id="edge14" class="edge">
<title>Node6&#45;&gt;Node9</title>
<path fill="none" stroke="midnightblue" d="M719.03,-224.3C708.85,-210.17 686.72,-182.36 661,-168 521.69,-90.19 326.29,-72.31 248.2,-68.21"/>
<polygon fill="midnightblue" stroke="midnightblue" points="248.14,-64.7 237.98,-67.72 247.8,-71.7 248.14,-64.7"/>
</g>
<!-- Node11 -->
<g id="node11" class="node">
<title>Node11</title>
<g id="a_node11"><a xlink:href="exceptions_8h.html" target="_top" xlink:title=" ">
<polygon fill="none" stroke="black" points="866,-168.5 866,-187.5 992,-187.5 992,-168.5 866,-168.5"/>
<text text-anchor="middle" x="929" y="-175.5" font-family="Helvetica,sans-Serif" font-size="10.00">../include/exceptions.h</text>
</a>
</g>
</g>
<!-- Node6&#45;&gt;Node11 -->
<g id="edge18" class="edge">
<title>Node6&#45;&gt;Node11</title>
<path fill="none" stroke="midnightblue" d="M751.25,-226.05C785.58,-216.97 846.12,-200.94 886.89,-190.15"/>
<polygon fill="midnightblue" stroke="midnightblue" points="888.03,-193.46 896.8,-187.52 886.24,-186.7 888.03,-193.46"/>
</g>
<!-- Node13 -->
<g id="node13" class="node">
<title>Node13</title>
<g id="a_node13"><a xlink:href="utilities_8h.html" target="_top" xlink:title=" ">
<polygon fill="none" stroke="black" points="1064,-112.5 1064,-131.5 1174,-131.5 1174,-112.5 1064,-112.5"/>
<text text-anchor="middle" x="1119" y="-119.5" font-family="Helvetica,sans-Serif" font-size="10.00">../include/utilities.h</text>
</a>
</g>
</g>
<!-- Node6&#45;&gt;Node13 -->
<g id="edge21" class="edge">
<title>Node6&#45;&gt;Node13</title>
<path fill="none" stroke="midnightblue" d="M751.21,-231.7C801.12,-228.58 912.66,-218.51 1001,-188 1037.33,-175.45 1075.65,-152.22 1098.43,-137.2"/>
<polygon fill="midnightblue" stroke="midnightblue" points="1100.56,-139.99 1106.91,-131.51 1096.66,-134.17 1100.56,-139.99"/>
</g>
<!-- Node8&#45;&gt;Node3 -->
<g id="edge12" class="edge">
<title>Node8&#45;&gt;Node3</title>
<path fill="none" stroke="midnightblue" d="M376,-112.37C376,-94.62 376,-53.67 376,-29.6"/>
<polygon fill="midnightblue" stroke="midnightblue" points="379.5,-29.59 376,-19.59 372.5,-29.59 379.5,-29.59"/>
</g>
<!-- Node8&#45;&gt;Node4 -->
<g id="edge13" class="edge">
<title>Node8&#45;&gt;Node4</title>
<path fill="none" stroke="midnightblue" d="M408.11,-114.37C412.76,-113.51 417.5,-112.69 422,-112 458.36,-106.42 703.97,-79.96 792.92,-70.43"/>
<polygon fill="midnightblue" stroke="midnightblue" points="793.39,-73.9 802.96,-69.35 792.65,-66.94 793.39,-73.9"/>
</g>
<!-- Node8&#45;&gt;Node7 -->
<g id="edge11" class="edge">
<title>Node8&#45;&gt;Node7</title>
<path fill="none" stroke="midnightblue" d="M408.15,-114.62C412.8,-113.72 417.52,-112.83 422,-112 513.83,-95.03 541.13,-107.6 629,-76 663.89,-63.45 700.49,-40.59 722.53,-25.6"/>
<polygon fill="midnightblue" stroke="midnightblue" points="724.81,-28.28 731.04,-19.71 720.82,-22.52 724.81,-28.28"/>
</g>
<!-- Node9&#45;&gt;Node3 -->
<g id="edge17" class="edge">
<title>Node9&#45;&gt;Node3</title>
<path fill="none" stroke="midnightblue" d="M237.56,-57.15C264.64,-48.12 309.37,-33.21 340.63,-22.79"/>
<polygon fill="midnightblue" stroke="midnightblue" points="341.89,-26.06 350.27,-19.58 339.68,-19.42 341.89,-26.06"/>
</g>
<!-- Node9&#45;&gt;Node7 -->
<g id="edge16" class="edge">
<title>Node9&#45;&gt;Node7</title>
<path fill="none" stroke="midnightblue" d="M237.76,-62.57C321.35,-54.04 602.37,-25.36 705.04,-14.88"/>
<polygon fill="midnightblue" stroke="midnightblue" points="705.66,-18.33 715.25,-13.83 704.95,-11.37 705.66,-18.33"/>
</g>
<!-- Node10 -->
<g id="node10" class="node">
<title>Node10</title>
<g id="a_node10"><a xlink:title=" ">
<polygon fill="none" stroke="#bfbfbf" points="192,-0.5 192,-19.5 236,-19.5 236,-0.5 192,-0.5"/>
<text text-anchor="middle" x="214" y="-7.5" font-family="Helvetica,sans-Serif" font-size="10.00">ctime</text>
</a>
</g>
</g>
<!-- Node9&#45;&gt;Node10 -->
<g id="edge15" class="edge">
<title>Node9&#45;&gt;Node10</title>
<path fill="none" stroke="midnightblue" d="M214,-56.08C214,-49.01 214,-38.86 214,-29.99"/>
<polygon fill="midnightblue" stroke="midnightblue" points="217.5,-29.75 214,-19.75 210.5,-29.75 217.5,-29.75"/>
</g>
<!-- Node11&#45;&gt;Node4 -->
<g id="edge20" class="edge">
<title>Node11&#45;&gt;Node4</title>
<path fill="none" stroke="midnightblue" d="M920.84,-168.37C903.45,-149.97 862.51,-106.67 840.18,-83.05"/>
<polygon fill="midnightblue" stroke="midnightblue" points="842.54,-80.45 833.12,-75.59 837.45,-85.26 842.54,-80.45"/>
</g>
<!-- Node12 -->
<g id="node12" class="node">
<title>Node12</title>
<g id="a_node12"><a xlink:title=" ">
<polygon fill="none" stroke="#bfbfbf" points="904.5,-112.5 904.5,-131.5 969.5,-131.5 969.5,-112.5 904.5,-112.5"/>
<text text-anchor="middle" x="937" y="-119.5" font-family="Helvetica,sans-Serif" font-size="10.00">stdexcept</text>
</a>
</g>
</g>
<!-- Node11&#45;&gt;Node12 -->
<g id="edge19" class="edge">
<title>Node11&#45;&gt;Node12</title>
<path fill="none" stroke="midnightblue" d="M930.32,-168.08C931.38,-160.93 932.91,-150.64 934.23,-141.69"/>
<polygon fill="midnightblue" stroke="midnightblue" points="937.7,-142.16 935.7,-131.75 930.78,-141.13 937.7,-142.16"/>
</g>
<!-- Node13&#45;&gt;Node3 -->
<g id="edge23" class="edge">
<title>Node13&#45;&gt;Node3</title>
<path fill="none" stroke="midnightblue" d="M1090.5,-112.47C1042.54,-98.46 942.48,-70.66 856,-56 694.36,-28.61 499.07,-16.79 416.25,-12.75"/>
<polygon fill="midnightblue" stroke="midnightblue" points="416.41,-9.25 406.25,-12.27 416.07,-16.24 416.41,-9.25"/>
</g>
<!-- Node13&#45;&gt;Node4 -->
<g id="edge22" class="edge">
<title>Node13&#45;&gt;Node4</title>
<path fill="none" stroke="midnightblue" d="M1072.41,-112.44C1012.28,-101.4 909.19,-82.46 857.12,-72.9"/>
<polygon fill="midnightblue" stroke="midnightblue" points="857.58,-69.43 847.11,-71.06 856.31,-76.31 857.58,-69.43"/>
</g>
<!-- Node13&#45;&gt;Node7 -->
<g id="edge24" class="edge">
<title>Node13&#45;&gt;Node7</title>
<path fill="none" stroke="midnightblue" d="M1134.88,-112.36C1156.21,-99.7 1189.54,-75.48 1172,-56 1146.04,-27.17 881.07,-15.53 780.99,-12.14"/>
<polygon fill="midnightblue" stroke="midnightblue" points="780.84,-8.63 770.73,-11.8 780.61,-15.63 780.84,-8.63"/>
</g>
<!-- Node14 -->
<g id="node14" class="node">
<title>Node14</title>
<g id="a_node14"><a xlink:title=" ">
<polygon fill="none" stroke="#bfbfbf" points="1027,-56.5 1027,-75.5 1081,-75.5 1081,-56.5 1027,-56.5"/>
<text text-anchor="middle" x="1054" y="-63.5" font-family="Helvetica,sans-Serif" font-size="10.00">istream</text>
</a>
</g>
</g>
<!-- Node13&#45;&gt;Node14 -->
<g id="edge25" class="edge">
<title>Node13&#45;&gt;Node14</title>
<path fill="none" stroke="midnightblue" d="M1108.56,-112.32C1098.85,-104.26 1084.18,-92.08 1072.5,-82.37"/>
<polygon fill="midnightblue" stroke="midnightblue" points="1074.56,-79.53 1064.63,-75.83 1070.09,-84.92 1074.56,-79.53"/>
</g>
<!-- Node15 -->
<g id="node15" class="node">
<title>Node15</title>
<g id="a_node15"><a xlink:title=" ">
<polygon fill="none" stroke="#bfbfbf" points="1099,-56.5 1099,-75.5 1163,-75.5 1163,-56.5 1099,-56.5"/>
<text text-anchor="middle" x="1131" y="-63.5" font-family="Helvetica,sans-Serif" font-size="10.00">sys/stat.h</text>
</a>
</g>
</g>
<!-- Node13&#45;&gt;Node15 -->
<g id="edge26" class="edge">
<title>Node13&#45;&gt;Node15</title>
<path fill="none" stroke="midnightblue" d="M1120.98,-112.08C1122.57,-104.93 1124.86,-94.64 1126.85,-85.69"/>
<polygon fill="midnightblue" stroke="midnightblue" points="1130.3,-86.27 1129.06,-75.75 1123.47,-84.75 1130.3,-86.27"/>
</g>
<!-- Node16&#45;&gt;Node2 -->
<g id="edge28" class="edge">
<title>Node16&#45;&gt;Node2</title>
<path fill="none" stroke="midnightblue" d="M381.07,-280.43C390.57,-271.42 405.92,-256.8 419,-244 435.81,-227.55 454.82,-208.49 467.91,-195.28"/>
<polygon fill="midnightblue" stroke="midnightblue" points="470.68,-197.46 475.23,-187.89 465.71,-192.54 470.68,-197.46"/>
</g>
<!-- Node16&#45;&gt;Node4 -->
<g id="edge30" class="edge">
<title>Node16&#45;&gt;Node4</title>
<path fill="none" stroke="midnightblue" d="M374.49,-280.43C381.42,-258.2 403.04,-198.34 443,-168 551.62,-85.54 721.9,-70.24 792.57,-67.52"/>
<polygon fill="midnightblue" stroke="midnightblue" points="792.77,-71.02 802.65,-67.2 792.54,-64.02 792.77,-71.02"/>
</g>
<!-- Node16&#45;&gt;Node5 -->
<g id="edge29" class="edge">
<title>Node16&#45;&gt;Node5</title>
<path fill="none" stroke="midnightblue" d="M389.58,-280.37C428.67,-261.17 523.01,-214.84 569.38,-192.07"/>
<polygon fill="midnightblue" stroke="midnightblue" points="571.07,-195.14 578.5,-187.59 567.99,-188.86 571.07,-195.14"/>
</g>
<!-- Node16&#45;&gt;Node6 -->
<g id="edge48" class="edge">
<title>Node16&#45;&gt;Node6</title>
<path fill="none" stroke="midnightblue" d="M395.71,-285.37C456.12,-276.13 616.14,-251.65 688.52,-240.58"/>
<polygon fill="midnightblue" stroke="midnightblue" points="689.19,-244.02 698.55,-239.05 688.13,-237.1 689.19,-244.02"/>
</g>
<!-- Node16&#45;&gt;Node8 -->
<g id="edge31" class="edge">
<title>Node16&#45;&gt;Node8</title>
<path fill="none" stroke="midnightblue" d="M348.35,-286.11C306.76,-280.48 223.28,-266.59 206,-244 165.45,-190.99 271.32,-151.61 333.86,-133.7"/>
<polygon fill="midnightblue" stroke="midnightblue" points="335.18,-136.96 343.87,-130.91 333.3,-130.22 335.18,-136.96"/>
</g>
<!-- Node16&#45;&gt;Node9 -->
<g id="edge47" class="edge">
<title>Node16&#45;&gt;Node9</title>
<path fill="none" stroke="midnightblue" d="M348.28,-287.63C307.4,-284.51 221.85,-274.57 157,-244 120.96,-227.01 104.26,-223.91 87,-188 63.22,-138.52 135.91,-98.72 180.99,-79.51"/>
<polygon fill="midnightblue" stroke="midnightblue" points="182.51,-82.67 190.42,-75.62 179.84,-76.2 182.51,-82.67"/>
</g>
<!-- Node17 -->
<g id="node17" class="node">
<title>Node17</title>
<g id="a_node17"><a xlink:href="enterprise_8h.html" target="_top" xlink:title=" ">
<polygon fill="none" stroke="black" points="301.5,-224.5 301.5,-243.5 376.5,-243.5 376.5,-224.5 301.5,-224.5"/>
<text text-anchor="middle" x="339" y="-231.5" font-family="Helvetica,sans-Serif" font-size="10.00">enterprise.h</text>
</a>
</g>
</g>
<!-- Node16&#45;&gt;Node17 -->
<g id="edge32" class="edge">
<title>Node16&#45;&gt;Node17</title>
<path fill="none" stroke="midnightblue" d="M366.55,-280.08C361.99,-272.61 355.33,-261.72 349.71,-252.52"/>
<polygon fill="midnightblue" stroke="midnightblue" points="352.55,-250.46 344.35,-243.75 346.58,-254.11 352.55,-250.46"/>
</g>
<!-- Node18 -->
<g id="node18" class="node">
<title>Node18</title>
<g id="a_node18"><a xlink:href="event_8h.html" target="_top" xlink:title=" ">
<polygon fill="none" stroke="black" points="104.5,-168.5 104.5,-187.5 205.5,-187.5 205.5,-168.5 104.5,-168.5"/>
<text text-anchor="middle" x="155" y="-175.5" font-family="Helvetica,sans-Serif" font-size="10.00">../include/event.h</text>
</a>
</g>
</g>
<!-- Node16&#45;&gt;Node18 -->
<g id="edge46" class="edge">
<title>Node16&#45;&gt;Node18</title>
<path fill="none" stroke="midnightblue" d="M348.47,-286.69C301.43,-281.61 198.12,-267.95 173,-244 160.56,-232.14 156.47,-212.52 155.24,-197.93"/>
<polygon fill="midnightblue" stroke="midnightblue" points="158.72,-197.38 154.77,-187.55 151.73,-197.7 158.72,-197.38"/>
</g>
<!-- Node21 -->
<g id="node21" class="node">
<title>Node21</title>
<g id="a_node21"><a xlink:href="museum_8h.html" target="_top" xlink:title=" ">
<polygon fill="none" stroke="black" points="215,-224.5 215,-243.5 283,-243.5 283,-224.5 215,-224.5"/>
<text text-anchor="middle" x="249" y="-231.5" font-family="Helvetica,sans-Serif" font-size="10.00">museum.h</text>
</a>
</g>
</g>
<!-- Node16&#45;&gt;Node21 -->
<g id="edge49" class="edge">
<title>Node16&#45;&gt;Node21</title>
<path fill="none" stroke="midnightblue" d="M352.51,-280.44C332.36,-271.6 300.68,-257.69 277.67,-247.59"/>
<polygon fill="midnightblue" stroke="midnightblue" points="278.96,-244.33 268.4,-243.52 276.15,-250.74 278.96,-244.33"/>
</g>
<!-- Node17&#45;&gt;Node4 -->
<g id="edge45" class="edge">
<title>Node17&#45;&gt;Node4</title>
<path fill="none" stroke="midnightblue" d="M350.22,-224.39C368.64,-210.63 406.85,-183.65 443,-168 566.69,-114.45 725.55,-83.6 792.72,-72.16"/>
<polygon fill="midnightblue" stroke="midnightblue" points="793.41,-75.59 802.69,-70.48 792.25,-68.69 793.41,-75.59"/>
</g>
<!-- Node17&#45;&gt;Node8 -->
<g id="edge33" class="edge">
<title>Node17&#45;&gt;Node8</title>
<path fill="none" stroke="midnightblue" d="M341.9,-224.37C347.9,-206.54 361.77,-165.3 369.85,-141.27"/>
<polygon fill="midnightblue" stroke="midnightblue" points="373.24,-142.19 373.11,-131.59 366.6,-139.95 373.24,-142.19"/>
</g>
<!-- Node17&#45;&gt;Node18 -->
<g id="edge34" class="edge">
<title>Node17&#45;&gt;Node18</title>
<path fill="none" stroke="midnightblue" d="M309.84,-224.44C278.49,-215.24 228.47,-200.56 193.8,-190.39"/>
<polygon fill="midnightblue" stroke="midnightblue" points="194.6,-186.97 184.02,-187.52 192.63,-193.69 194.6,-186.97"/>
</g>
<!-- Node20 -->
<g id="node20" class="node">
<title>Node20</title>
<g id="a_node20"><a xlink:title=" ">
<polygon fill="none" stroke="#bfbfbf" points="294,-112.5 294,-131.5 326,-131.5 326,-112.5 294,-112.5"/>
<text text-anchor="middle" x="310" y="-119.5" font-family="Helvetica,sans-Serif" font-size="10.00">set</text>
</a>
</g>
</g>
<!-- Node17&#45;&gt;Node20 -->
<g id="edge44" class="edge">
<title>Node17&#45;&gt;Node20</title>
<path fill="none" stroke="midnightblue" d="M336.72,-224.37C332.02,-206.54 321.15,-165.3 314.82,-141.27"/>
<polygon fill="midnightblue" stroke="midnightblue" points="318.2,-140.37 312.27,-131.59 311.43,-142.15 318.2,-140.37"/>
</g>
<!-- Node18&#45;&gt;Node3 -->
<g id="edge43" class="edge">
<title>Node18&#45;&gt;Node3</title>
<path fill="none" stroke="midnightblue" d="M146.25,-168.24C134.95,-155.83 117.67,-132.36 126,-112 139.2,-79.71 150.56,-73.05 181,-56 229.8,-28.67 294.34,-17.91 335.52,-13.7"/>
<polygon fill="midnightblue" stroke="midnightblue" points="336.09,-17.16 345.72,-12.74 335.44,-10.19 336.09,-17.16"/>
</g>
<!-- Node18&#45;&gt;Node4 -->
<g id="edge41" class="edge">
<title>Node18&#45;&gt;Node4</title>
<path fill="none" stroke="midnightblue" d="M172.48,-168.45C190.83,-159.45 220.5,-144.84 246,-132 263.4,-123.24 266.27,-117.36 285,-112 381.32,-84.46 691.16,-71.6 792.55,-68.05"/>
<polygon fill="midnightblue" stroke="midnightblue" points="792.91,-71.54 802.78,-67.7 792.67,-64.55 792.91,-71.54"/>
</g>
<!-- Node18&#45;&gt;Node8 -->
<g id="edge40" class="edge">
<title>Node18&#45;&gt;Node8</title>
<path fill="none" stroke="midnightblue" d="M190.02,-168.44C229.03,-158.91 292.1,-143.5 333.81,-133.31"/>
<polygon fill="midnightblue" stroke="midnightblue" points="334.78,-136.68 343.66,-130.9 333.12,-129.88 334.78,-136.68"/>
</g>
<!-- Node18&#45;&gt;Node9 -->
<g id="edge39" class="edge">
<title>Node18&#45;&gt;Node9</title>
<path fill="none" stroke="midnightblue" d="M147.46,-168.1C137.42,-155.11 122.12,-130.48 133,-112 143.23,-94.61 162.87,-83.46 180.25,-76.61"/>
<polygon fill="midnightblue" stroke="midnightblue" points="181.91,-79.74 190.13,-73.06 179.54,-73.15 181.91,-79.74"/>
</g>
<!-- Node19 -->
<g id="node19" class="node">
<title>Node19</title>
<g id="a_node19"><a xlink:href="time_8h.html" target="_top" xlink:title=" ">
<polygon fill="none" stroke="black" points="142.5,-112.5 142.5,-131.5 237.5,-131.5 237.5,-112.5 142.5,-112.5"/>
<text text-anchor="middle" x="190" y="-119.5" font-family="Helvetica,sans-Serif" font-size="10.00">../include/time.h</text>
</a>
</g>
</g>
<!-- Node18&#45;&gt;Node19 -->
<g id="edge35" class="edge">
<title>Node18&#45;&gt;Node19</title>
<path fill="none" stroke="midnightblue" d="M160.78,-168.08C165.67,-160.53 172.83,-149.49 178.83,-140.23"/>
<polygon fill="midnightblue" stroke="midnightblue" points="181.83,-142.05 184.33,-131.75 175.95,-138.24 181.83,-142.05"/>
</g>
<!-- Node18&#45;&gt;Node20 -->
<g id="edge42" class="edge">
<title>Node18&#45;&gt;Node20</title>
<path fill="none" stroke="midnightblue" d="M179.56,-168.44C208.12,-158.49 255.05,-142.14 284.15,-132.01"/>
<polygon fill="midnightblue" stroke="midnightblue" points="285.35,-135.3 293.64,-128.7 283.04,-128.69 285.35,-135.3"/>
</g>
<!-- Node19&#45;&gt;Node3 -->
<g id="edge37" class="edge">
<title>Node19&#45;&gt;Node3</title>
<path fill="none" stroke="midnightblue" d="M204.6,-112.37C236.65,-93.41 313.44,-48 352.42,-24.94"/>
<polygon fill="midnightblue" stroke="midnightblue" points="354.65,-27.69 361.47,-19.59 351.08,-21.67 354.65,-27.69"/>
</g>
<!-- Node19&#45;&gt;Node7 -->
<g id="edge36" class="edge">
<title>Node19&#45;&gt;Node7</title>
<path fill="none" stroke="midnightblue" d="M232.93,-112.46C337.96,-91.57 606.46,-38.16 705.53,-18.45"/>
<polygon fill="midnightblue" stroke="midnightblue" points="706.28,-21.87 715.4,-16.49 704.91,-15.01 706.28,-21.87"/>
</g>
<!-- Node19&#45;&gt;Node9 -->
<g id="edge38" class="edge">
<title>Node19&#45;&gt;Node9</title>
<path fill="none" stroke="midnightblue" d="M193.96,-112.08C197.21,-104.77 201.92,-94.18 205.95,-85.1"/>
<polygon fill="midnightblue" stroke="midnightblue" points="209.25,-86.31 210.11,-75.75 202.85,-83.47 209.25,-86.31"/>
</g>
<!-- Node21&#45;&gt;Node8 -->
<g id="edge50" class="edge">
<title>Node21&#45;&gt;Node8</title>
<path fill="none" stroke="midnightblue" d="M258.97,-224.37C280.39,-205.81 331.07,-161.91 358.18,-138.44"/>
<polygon fill="midnightblue" stroke="midnightblue" points="360.81,-140.78 366.08,-131.59 356.23,-135.49 360.81,-140.78"/>
</g>
<!-- Node21&#45;&gt;Node19 -->
<g id="edge51" class="edge">
<title>Node21&#45;&gt;Node19</title>
<path fill="none" stroke="midnightblue" d="M214.78,-227.84C173.95,-220.89 109.37,-207.17 95,-188 76.84,-163.77 113.47,-145.45 146.38,-134.53"/>
<polygon fill="midnightblue" stroke="midnightblue" points="147.48,-137.86 155.97,-131.52 145.38,-131.18 147.48,-137.86"/>
</g>
<!-- Node22&#45;&gt;Node2 -->
<g id="edge53" class="edge">
<title>Node22&#45;&gt;Node2</title>
<path fill="none" stroke="midnightblue" d="M1048.38,-230.88C972.6,-224.81 749.2,-206.57 564,-188 551.85,-186.78 538.67,-185.35 526.58,-183.98"/>
<polygon fill="midnightblue" stroke="midnightblue" points="526.62,-180.47 516.29,-182.81 525.83,-187.42 526.62,-180.47"/>
</g>
<!-- Node22&#45;&gt;Node3 -->
<g id="edge54" class="edge">
<title>Node22&#45;&gt;Node3</title>
<path fill="none" stroke="midnightblue" d="M1090.67,-224.35C1115.89,-209.4 1164.53,-176.03 1183,-132 1191.54,-111.63 1179.99,-62.96 1172,-56 1143.27,-30.98 575.08,-15.71 416.68,-11.93"/>
<polygon fill="midnightblue" stroke="midnightblue" points="416.5,-8.42 406.42,-11.68 416.34,-15.42 416.5,-8.42"/>
</g>
<!-- Node22&#45;&gt;Node4 -->
<g id="edge55" class="edge">
<title>Node22&#45;&gt;Node4</title>
<path fill="none" stroke="midnightblue" d="M1073.15,-224.36C1067.9,-201.98 1050.66,-141.76 1012,-112 956.84,-69.54 925.15,-93.18 856.92,-77.09"/>
<polygon fill="midnightblue" stroke="midnightblue" points="857.6,-73.66 847.05,-74.55 855.86,-80.43 857.6,-73.66"/>
</g>
<!-- Node22&#45;&gt;Node5 -->
<g id="edge56" class="edge">
<title>Node22&#45;&gt;Node5</title>
<path fill="none" stroke="midnightblue" d="M1048.22,-229.98C966.44,-220.76 720.06,-192.99 629.7,-182.8"/>
<polygon fill="midnightblue" stroke="midnightblue" points="630.05,-179.32 619.72,-181.67 629.26,-186.27 630.05,-179.32"/>
</g>
<!-- Node22&#45;&gt;Node11 -->
<g id="edge58" class="edge">
<title>Node22&#45;&gt;Node11</title>
<path fill="none" stroke="midnightblue" d="M1051.87,-224.44C1027.52,-215.44 988.99,-201.19 961.58,-191.05"/>
<polygon fill="midnightblue" stroke="midnightblue" points="962.62,-187.7 952.03,-187.52 960.19,-194.27 962.62,-187.7"/>
</g>
<!-- Node22&#45;&gt;Node13 -->
<g id="edge59" class="edge">
<title>Node22&#45;&gt;Node13</title>
<path fill="none" stroke="midnightblue" d="M1084.1,-224.28C1092.31,-215.82 1104,-202.23 1110,-188 1116.17,-173.39 1118.29,-155.44 1118.94,-142.12"/>
<polygon fill="midnightblue" stroke="midnightblue" points="1122.45,-141.87 1119.2,-131.79 1115.45,-141.7 1122.45,-141.87"/>
</g>
<!-- Node23 -->
<g id="node23" class="node">
<title>Node23</title>
<g id="a_node23"><a xlink:title=" ">
<polygon fill="none" stroke="#bfbfbf" points="1215.5,-168.5 1215.5,-187.5 1280.5,-187.5 1280.5,-168.5 1215.5,-168.5"/>
<text text-anchor="middle" x="1248" y="-175.5" font-family="Helvetica,sans-Serif" font-size="10.00">functional</text>
</a>
</g>
</g>
<!-- Node22&#45;&gt;Node23 -->
<g id="edge57" class="edge">
<title>Node22&#45;&gt;Node23</title>
<path fill="none" stroke="midnightblue" d="M1101.65,-224.68C1130.94,-215.54 1178.19,-200.79 1211.05,-190.53"/>
<polygon fill="midnightblue" stroke="midnightblue" points="1212.24,-193.83 1220.75,-187.51 1210.16,-187.15 1212.24,-193.83"/>
</g>
<!-- Node24&#45;&gt;Node2 -->
<g id="edge61" class="edge">
<title>Node24&#45;&gt;Node2</title>
<path fill="none" stroke="midnightblue" d="M664.62,-280.37C630.63,-261.29 548.9,-215.42 508.06,-192.51"/>
<polygon fill="midnightblue" stroke="midnightblue" points="509.74,-189.43 499.31,-187.59 506.32,-195.54 509.74,-189.43"/>
</g>
<!-- Node24&#45;&gt;Node3 -->
<g id="edge62" class="edge">
<title>Node24&#45;&gt;Node3</title>
<path fill="none" stroke="midnightblue" d="M669.95,-280.48C649.7,-263.26 602.6,-222.95 564,-188 499.36,-129.47 424.41,-57.7 392.14,-26.6"/>
<polygon fill="midnightblue" stroke="midnightblue" points="394.51,-24.02 384.89,-19.6 389.65,-29.06 394.51,-24.02"/>
</g>
<!-- Node24&#45;&gt;Node4 -->
<g id="edge65" class="edge">
<title>Node24&#45;&gt;Node4</title>
<path fill="none" stroke="midnightblue" d="M701.54,-280.37C718.78,-272.69 742.84,-260.18 760,-244 801.4,-204.97 808.45,-187.26 822,-132 825.74,-116.73 826.3,-98.84 826.03,-85.7"/>
<polygon fill="midnightblue" stroke="midnightblue" points="829.53,-85.42 825.64,-75.56 822.53,-85.69 829.53,-85.42"/>
</g>
<!-- Node24&#45;&gt;Node5 -->
<g id="edge64" class="edge">
<title>Node24&#45;&gt;Node5</title>
<path fill="none" stroke="midnightblue" d="M676.86,-280.41C671.83,-267.38 661.1,-242.21 647,-224 638.19,-212.62 626.21,-201.88 616.07,-193.74"/>
<polygon fill="midnightblue" stroke="midnightblue" points="618.15,-190.93 608.1,-187.57 613.87,-196.46 618.15,-190.93"/>
</g>
<!-- Node24&#45;&gt;Node6 -->
<g id="edge66" class="edge">
<title>Node24&#45;&gt;Node6</title>
<path fill="none" stroke="midnightblue" d="M687.43,-280.08C693.85,-272.38 703.31,-261.03 711.12,-251.65"/>
<polygon fill="midnightblue" stroke="midnightblue" points="713.99,-253.67 717.71,-243.75 708.62,-249.19 713.99,-253.67"/>
</g>
<!-- Node24&#45;&gt;Node7 -->
<g id="edge63" class="edge">
<title>Node24&#45;&gt;Node7</title>
<path fill="none" stroke="midnightblue" d="M736.65,-285.03C891.26,-273.45 1309,-236.82 1309,-179 1309,-179 1309,-179 1309,-121 1309,-13.05 907.23,-8.92 780.69,-10.29"/>
<polygon fill="midnightblue" stroke="midnightblue" points="780.64,-6.79 770.68,-10.42 780.73,-13.79 780.64,-6.79"/>
</g>
<!-- Node24&#45;&gt;Node11 -->
<g id="edge68" class="edge">
<title>Node24&#45;&gt;Node11</title>
<path fill="none" stroke="midnightblue" d="M736.51,-280.76C771.23,-274.14 815.83,-262.76 852,-244 876.37,-231.36 899.8,-209.79 914.28,-194.99"/>
<polygon fill="midnightblue" stroke="midnightblue" points="916.99,-197.22 921.36,-187.56 911.92,-192.39 916.99,-197.22"/>
</g>
<!-- Node24&#45;&gt;Node17 -->
<g id="edge67" class="edge">
<title>Node24&#45;&gt;Node17</title>
<path fill="none" stroke="midnightblue" d="M625.97,-280.44C560.15,-270.02 449.97,-252.57 387,-242.6"/>
<polygon fill="midnightblue" stroke="midnightblue" points="387.37,-239.12 376.94,-241.01 386.27,-246.03 387.37,-239.12"/>
</g>
<!-- Node24&#45;&gt;Node21 -->
<g id="edge69" class="edge">
<title>Node24&#45;&gt;Node21</title>
<path fill="none" stroke="midnightblue" d="M623.23,-284.05C549.44,-277.24 416.39,-263.75 293.2,-244.07"/>
<polygon fill="midnightblue" stroke="midnightblue" points="293.65,-240.59 283.22,-242.45 292.53,-247.5 293.65,-240.59"/>
</g>
</g>
</svg>
