<?xml version="1.0" encoding="UTF-8" standalone="no"?>
<!DOCTYPE svg PUBLIC "-//W3C//DTD SVG 1.1//EN"
 "http://www.w3.org/Graphics/SVG/1.1/DTD/svg11.dtd">
<!-- Generated by graphviz version 2.43.20190912.0211 (20190912.0211)
 -->
<!-- Title: /home/joao/Documents/UniStuff/2_1things/AEDA/FEUP&#45;AEDA&#45;Proj1/include/menu.h Pages: 1 -->
<svg width="494pt" height="162pt"
 viewBox="0.00 0.00 494.00 162.00" xmlns="http://www.w3.org/2000/svg" xmlns:xlink="http://www.w3.org/1999/xlink">
<g id="graph0" class="graph" transform="scale(1 1) rotate(0) translate(4 158)">
<title>/home/joao/Documents/UniStuff/2_1things/AEDA/FEUP&#45;AEDA&#45;Proj1/include/menu.h</title>
<!-- Node1 -->
<g id="node1" class="node">
<title>Node1</title>
<g id="a_node1"><a xlink:title=" ">
<polygon fill="#bfbfbf" stroke="black" points="137,-112.5 137,-153.5 319,-153.5 319,-112.5 137,-112.5"/>
<text text-anchor="start" x="145" y="-141.5" font-family="Helvetica,sans-Serif" font-size="10.00">/home/joao/Documents</text>
<text text-anchor="start" x="145" y="-130.5" font-family="Helvetica,sans-Serif" font-size="10.00">/UniStuff/2_1things/AEDA</text>
<text text-anchor="middle" x="228" y="-119.5" font-family="Helvetica,sans-Serif" font-size="10.00">/FEUP&#45;AEDA&#45;Proj1/include/menu.h</text>
</a>
</g>
</g>
<!-- Node2 -->
<g id="node2" class="node">
<title>Node2</title>
<g id="a_node2"><a xlink:title=" ">
<polygon fill="none" stroke="#bfbfbf" points="0,-56.5 0,-75.5 64,-75.5 64,-56.5 0,-56.5"/>
<text text-anchor="middle" x="32" y="-63.5" font-family="Helvetica,sans-Serif" font-size="10.00">algorithm</text>
</a>
</g>
</g>
<!-- Node1&#45;&gt;Node2 -->
<g id="edge1" class="edge">
<title>Node1&#45;&gt;Node2</title>
<path fill="none" stroke="midnightblue" d="M169.19,-112.5C136.15,-101.54 96,-88.22 67.69,-78.84"/>
<polygon fill="midnightblue" stroke="midnightblue" points="68.43,-75.39 57.83,-75.57 66.22,-82.04 68.43,-75.39"/>
</g>
<!-- Node3 -->
<g id="node3" class="node">
<title>Node3</title>
<g id="a_node3"><a xlink:title=" ">
<polygon fill="none" stroke="#bfbfbf" points="198,-0.5 198,-19.5 258,-19.5 258,-0.5 198,-0.5"/>
<text text-anchor="middle" x="228" y="-7.5" font-family="Helvetica,sans-Serif" font-size="10.00">iostream</text>
</a>
</g>
</g>
<!-- Node1&#45;&gt;Node3 -->
<g id="edge2" class="edge">
<title>Node1&#45;&gt;Node3</title>
<path fill="none" stroke="midnightblue" d="M228,-112.29C228,-89.48 228,-52.19 228,-29.78"/>
<polygon fill="midnightblue" stroke="midnightblue" points="231.5,-29.57 228,-19.57 224.5,-29.57 231.5,-29.57"/>
</g>
<!-- Node4 -->
<g id="node4" class="node">
<title>Node4</title>
<g id="a_node4"><a xlink:title=" ">
<polygon fill="none" stroke="#bfbfbf" points="136,-0.5 136,-19.5 180,-19.5 180,-0.5 136,-0.5"/>
<text text-anchor="middle" x="158" y="-7.5" font-family="Helvetica,sans-Serif" font-size="10.00">string</text>
</a>
</g>
</g>
<!-- Node1&#45;&gt;Node4 -->
<g id="edge3" class="edge">
<title>Node1&#45;&gt;Node4</title>
<path fill="none" stroke="midnightblue" d="M216.6,-112.29C203.1,-88.96 180.83,-50.47 167.99,-28.26"/>
<polygon fill="midnightblue" stroke="midnightblue" points="171,-26.48 162.96,-19.57 164.94,-29.98 171,-26.48"/>
</g>
<!-- Node5 -->
<g id="node5" class="node">
<title>Node5</title>
<g id="a_node5"><a xlink:title=" ">
<polygon fill="none" stroke="#bfbfbf" points="336.5,-56.5 336.5,-75.5 383.5,-75.5 383.5,-56.5 336.5,-56.5"/>
<text text-anchor="middle" x="360" y="-63.5" font-family="Helvetica,sans-Serif" font-size="10.00">vector</text>
</a>
</g>
</g>
<!-- Node1&#45;&gt;Node5 -->
<g id="edge4" class="edge">
<title>Node1&#45;&gt;Node5</title>
<path fill="none" stroke="midnightblue" d="M267.6,-112.5C288.82,-102.05 314.38,-89.46 333.24,-80.18"/>
<polygon fill="midnightblue" stroke="midnightblue" points="335,-83.21 342.43,-75.65 331.91,-76.93 335,-83.21"/>
</g>
<!-- Node6 -->
<g id="node6" class="node">
<title>Node6</title>
<g id="a_node6"><a xlink:title=" ">
<polygon fill="none" stroke="#bfbfbf" points="401.5,-56.5 401.5,-75.5 466.5,-75.5 466.5,-56.5 401.5,-56.5"/>
<text text-anchor="middle" x="434" y="-63.5" font-family="Helvetica,sans-Serif" font-size="10.00">functional</text>
</a>
</g>
</g>
<!-- Node1&#45;&gt;Node6 -->
<g id="edge5" class="edge">
<title>Node1&#45;&gt;Node6</title>
<path fill="none" stroke="midnightblue" d="M289.81,-112.5C324.84,-101.44 367.48,-87.99 397.27,-78.59"/>
<polygon fill="midnightblue" stroke="midnightblue" points="398.37,-81.91 406.85,-75.57 396.26,-75.24 398.37,-81.91"/>
</g>
<!-- Node7 -->
<g id="node7" class="node">
<title>Node7</title>
<g id="a_node7"><a xlink:href="exceptions_8h.html" target="_top" xlink:title=" ">
<polygon fill="none" stroke="black" points="82.5,-56.5 82.5,-75.5 161.5,-75.5 161.5,-56.5 82.5,-56.5"/>
<text text-anchor="middle" x="122" y="-63.5" font-family="Helvetica,sans-Serif" font-size="10.00">exceptions.h</text>
</a>
</g>
</g>
<!-- Node1&#45;&gt;Node7 -->
<g id="edge6" class="edge">
<title>Node1&#45;&gt;Node7</title>
<path fill="none" stroke="midnightblue" d="M196.2,-112.5C179.63,-102.34 159.76,-90.16 144.75,-80.95"/>
<polygon fill="midnightblue" stroke="midnightblue" points="146.46,-77.9 136.11,-75.65 142.81,-83.86 146.46,-77.9"/>
</g>
<!-- Node9 -->
<g id="node9" class="node">
<title>Node9</title>
<g id="a_node9"><a xlink:href="utilities_8h.html" target="_top" xlink:title=" ">
<polygon fill="none" stroke="black" points="256,-56.5 256,-75.5 318,-75.5 318,-56.5 256,-56.5"/>
<text text-anchor="middle" x="287" y="-63.5" font-family="Helvetica,sans-Serif" font-size="10.00">utilities.h</text>
</a>
</g>
</g>
<!-- Node1&#45;&gt;Node9 -->
<g id="edge9" class="edge">
<title>Node1&#45;&gt;Node9</title>
<path fill="none" stroke="midnightblue" d="M245.7,-112.5C254.23,-103.11 264.32,-91.98 272.4,-83.08"/>
<polygon fill="midnightblue" stroke="midnightblue" points="275.02,-85.41 279.15,-75.65 269.83,-80.7 275.02,-85.41"/>
</g>
<!-- Node7&#45;&gt;Node4 -->
<g id="edge8" class="edge">
<title>Node7&#45;&gt;Node4</title>
<path fill="none" stroke="midnightblue" d="M127.94,-56.08C132.98,-48.53 140.34,-37.49 146.51,-28.23"/>
<polygon fill="midnightblue" stroke="midnightblue" points="149.53,-30.01 152.17,-19.75 143.71,-26.13 149.53,-30.01"/>
</g>
<!-- Node8 -->
<g id="node8" class="node">
<title>Node8</title>
<g id="a_node8"><a xlink:title=" ">
<polygon fill="none" stroke="#bfbfbf" points="52.5,-0.5 52.5,-19.5 117.5,-19.5 117.5,-0.5 52.5,-0.5"/>
<text text-anchor="middle" x="85" y="-7.5" font-family="Helvetica,sans-Serif" font-size="10.00">stdexcept</text>
</a>
</g>
</g>
<!-- Node7&#45;&gt;Node8 -->
<g id="edge7" class="edge">
<title>Node7&#45;&gt;Node8</title>
<path fill="none" stroke="midnightblue" d="M115.89,-56.08C110.72,-48.53 103.15,-37.49 96.81,-28.23"/>
<polygon fill="midnightblue" stroke="midnightblue" points="99.54,-26.02 91,-19.75 93.76,-29.98 99.54,-26.02"/>
</g>
<!-- Node9&#45;&gt;Node3 -->
<g id="edge11" class="edge">
<title>Node9&#45;&gt;Node3</title>
<path fill="none" stroke="midnightblue" d="M277.52,-56.32C268.8,-48.34 255.66,-36.31 245.1,-26.65"/>
<polygon fill="midnightblue" stroke="midnightblue" points="247.39,-24 237.65,-19.83 242.67,-29.17 247.39,-24"/>
</g>
<!-- Node9&#45;&gt;Node4 -->
<g id="edge10" class="edge">
<title>Node9&#45;&gt;Node4</title>
<path fill="none" stroke="midnightblue" d="M266.56,-56.44C245.33,-47.56 211.9,-33.56 187.75,-23.45"/>
<polygon fill="midnightblue" stroke="midnightblue" points="188.92,-20.15 178.34,-19.52 186.22,-26.61 188.92,-20.15"/>
</g>
<!-- Node10 -->
<g id="node10" class="node">
<title>Node10</title>
<g id="a_node10"><a xlink:title=" ">
<polygon fill="none" stroke="#bfbfbf" points="276.5,-0.5 276.5,-19.5 331.5,-19.5 331.5,-0.5 276.5,-0.5"/>
<text text-anchor="middle" x="304" y="-7.5" font-family="Helvetica,sans-Serif" font-size="10.00">fstream</text>
</a>
</g>
</g>
<!-- Node9&#45;&gt;Node10 -->
<g id="edge12" class="edge">
<title>Node9&#45;&gt;Node10</title>
<path fill="none" stroke="midnightblue" d="M289.81,-56.08C292.08,-48.85 295.37,-38.41 298.21,-29.4"/>
<polygon fill="midnightblue" stroke="midnightblue" points="301.58,-30.34 301.25,-19.75 294.9,-28.24 301.58,-30.34"/>
</g>
<!-- Node11 -->
<g id="node11" class="node">
<title>Node11</title>
<g id="a_node11"><a xlink:title=" ">
<polygon fill="none" stroke="#bfbfbf" points="350,-0.5 350,-19.5 404,-19.5 404,-0.5 350,-0.5"/>
<text text-anchor="middle" x="377" y="-7.5" font-family="Helvetica,sans-Serif" font-size="10.00">istream</text>
</a>
</g>
</g>
<!-- Node9&#45;&gt;Node11 -->
<g id="edge13" class="edge">
<title>Node9&#45;&gt;Node11</title>
<path fill="none" stroke="midnightblue" d="M301.46,-56.32C315.5,-47.9 337.05,-34.97 353.54,-25.07"/>
<polygon fill="midnightblue" stroke="midnightblue" points="355.8,-27.8 362.58,-19.65 352.2,-21.8 355.8,-27.8"/>
</g>
<!-- Node12 -->
<g id="node12" class="node">
<title>Node12</title>
<g id="a_node12"><a xlink:title=" ">
<polygon fill="none" stroke="#bfbfbf" points="422,-0.5 422,-19.5 486,-19.5 486,-0.5 422,-0.5"/>
<text text-anchor="middle" x="454" y="-7.5" font-family="Helvetica,sans-Serif" font-size="10.00">sys/stat.h</text>
</a>
</g>
</g>
<!-- Node9&#45;&gt;Node12 -->
<g id="edge14" class="edge">
<title>Node9&#45;&gt;Node12</title>
<path fill="none" stroke="midnightblue" d="M313.46,-56.44C341.68,-47.32 386.54,-32.81 417.97,-22.65"/>
<polygon fill="midnightblue" stroke="midnightblue" points="419.22,-25.92 427.66,-19.52 417.07,-19.26 419.22,-25.92"/>
</g>
</g>
</svg>
