<?xml version="1.0" encoding="UTF-8" standalone="no"?>
<!DOCTYPE svg PUBLIC "-//W3C//DTD SVG 1.1//EN"
 "http://www.w3.org/Graphics/SVG/1.1/DTD/svg11.dtd">
<!-- Generated by graphviz version 2.43.20190912.0211 (20190912.0211)
 -->
<!-- Title: /home/joao/Documents/UniStuff/2_1things/AEDA/FEUP&#45;AEDA&#45;Proj1/include/museum_network.h Pages: 1 -->
<svg width="1064pt" height="341pt"
 viewBox="0.00 0.00 1064.00 341.00" xmlns="http://www.w3.org/2000/svg" xmlns:xlink="http://www.w3.org/1999/xlink">
<g id="graph0" class="graph" transform="scale(1 1) rotate(0) translate(4 337)">
<title>/home/joao/Documents/UniStuff/2_1things/AEDA/FEUP&#45;AEDA&#45;Proj1/include/museum_network.h</title>
<!-- Node1 -->
<g id="node1" class="node">
<title>Node1</title>
<g id="a_node1"><a xlink:title=" ">
<polygon fill="#bfbfbf" stroke="black" points="385.5,-280.5 385.5,-332.5 528.5,-332.5 528.5,-280.5 385.5,-280.5"/>
<text text-anchor="start" x="393.5" y="-320.5" font-family="Helvetica,sans-Serif" font-size="10.00">/home/joao/Documents</text>
<text text-anchor="start" x="393.5" y="-309.5" font-family="Helvetica,sans-Serif" font-size="10.00">/UniStuff/2_1things/AEDA</text>
<text text-anchor="start" x="393.5" y="-298.5" font-family="Helvetica,sans-Serif" font-size="10.00">/FEUP&#45;AEDA&#45;Proj1/include</text>
<text text-anchor="middle" x="457" y="-287.5" font-family="Helvetica,sans-Serif" font-size="10.00">/museum_network.h</text>
</a>
</g>
</g>
<!-- Node2 -->
<g id="node2" class="node">
<title>Node2</title>
<g id="a_node2"><a xlink:title=" ">
<polygon fill="none" stroke="#bfbfbf" points="0,-224.5 0,-243.5 64,-243.5 64,-224.5 0,-224.5"/>
<text text-anchor="middle" x="32" y="-231.5" font-family="Helvetica,sans-Serif" font-size="10.00">algorithm</text>
</a>
</g>
</g>
<!-- Node1&#45;&gt;Node2 -->
<g id="edge1" class="edge">
<title>Node1&#45;&gt;Node2</title>
<path fill="none" stroke="midnightblue" d="M385.28,-294.57C308.98,-282.78 184.79,-263.11 78,-244 76.74,-243.77 75.46,-243.54 74.17,-243.31"/>
<polygon fill="midnightblue" stroke="midnightblue" points="74.62,-239.83 64.15,-241.43 73.33,-246.71 74.62,-239.83"/>
</g>
<!-- Node3 -->
<g id="node3" class="node">
<title>Node3</title>
<g id="a_node3"><a xlink:title=" ">
<polygon fill="none" stroke="#bfbfbf" points="814,-0.5 814,-19.5 874,-19.5 874,-0.5 814,-0.5"/>
<text text-anchor="middle" x="844" y="-7.5" font-family="Helvetica,sans-Serif" font-size="10.00">iostream</text>
</a>
</g>
</g>
<!-- Node1&#45;&gt;Node3 -->
<g id="edge2" class="edge">
<title>Node1&#45;&gt;Node3</title>
<path fill="none" stroke="midnightblue" d="M528.66,-305.27C687.65,-302.84 1056,-285.69 1056,-179 1056,-179 1056,-179 1056,-121 1056,-44.56 946.08,-21.17 884.54,-14.06"/>
<polygon fill="midnightblue" stroke="midnightblue" points="884.69,-10.56 874.37,-12.99 883.95,-17.52 884.69,-10.56"/>
</g>
<!-- Node4 -->
<g id="node4" class="node">
<title>Node4</title>
<g id="a_node4"><a xlink:title=" ">
<polygon fill="none" stroke="#bfbfbf" points="500.5,-0.5 500.5,-19.5 555.5,-19.5 555.5,-0.5 500.5,-0.5"/>
<text text-anchor="middle" x="528" y="-7.5" font-family="Helvetica,sans-Serif" font-size="10.00">fstream</text>
</a>
</g>
</g>
<!-- Node1&#45;&gt;Node4 -->
<g id="edge3" class="edge">
<title>Node1&#45;&gt;Node4</title>
<path fill="none" stroke="midnightblue" d="M385.32,-295.55C279.03,-278.74 92,-240.45 92,-179 92,-179 92,-179 92,-121 92,-39.2 384.14,-17.61 490.15,-12.47"/>
<polygon fill="midnightblue" stroke="midnightblue" points="490.57,-15.96 500.4,-12 490.24,-8.96 490.57,-15.96"/>
</g>
<!-- Node5 -->
<g id="node5" class="node">
<title>Node5</title>
<g id="a_node5"><a xlink:title=" ">
<polygon fill="none" stroke="#bfbfbf" points="120.5,-112.5 120.5,-131.5 167.5,-131.5 167.5,-112.5 120.5,-112.5"/>
<text text-anchor="middle" x="144" y="-119.5" font-family="Helvetica,sans-Serif" font-size="10.00">vector</text>
</a>
</g>
</g>
<!-- Node1&#45;&gt;Node5 -->
<g id="edge4" class="edge">
<title>Node1&#45;&gt;Node5</title>
<path fill="none" stroke="midnightblue" d="M413.81,-280.32C346.87,-241.29 220.32,-167.5 167.79,-136.87"/>
<polygon fill="midnightblue" stroke="midnightblue" points="169.27,-133.68 158.87,-131.67 165.75,-139.73 169.27,-133.68"/>
</g>
<!-- Node6 -->
<g id="node6" class="node">
<title>Node6</title>
<g id="a_node6"><a xlink:title=" ">
<polygon fill="none" stroke="#bfbfbf" points="583,-56.5 583,-75.5 627,-75.5 627,-56.5 583,-56.5"/>
<text text-anchor="middle" x="605" y="-63.5" font-family="Helvetica,sans-Serif" font-size="10.00">string</text>
</a>
</g>
</g>
<!-- Node1&#45;&gt;Node6 -->
<g id="edge5" class="edge">
<title>Node1&#45;&gt;Node6</title>
<path fill="none" stroke="midnightblue" d="M472.56,-280.43C502.72,-231.83 568.43,-125.94 594.26,-84.31"/>
<polygon fill="midnightblue" stroke="midnightblue" points="597.24,-86.15 599.54,-75.8 591.29,-82.45 597.24,-86.15"/>
</g>
<!-- Node7 -->
<g id="node7" class="node">
<title>Node7</title>
<g id="a_node7"><a xlink:href="cards_8h.html" target="_top" xlink:title=" ">
<polygon fill="none" stroke="black" points="431,-168.5 431,-187.5 483,-187.5 483,-168.5 431,-168.5"/>
<text text-anchor="middle" x="457" y="-175.5" font-family="Helvetica,sans-Serif" font-size="10.00">cards.h</text>
</a>
</g>
</g>
<!-- Node1&#45;&gt;Node7 -->
<g id="edge6" class="edge">
<title>Node1&#45;&gt;Node7</title>
<path fill="none" stroke="midnightblue" d="M457,-280.2C457,-255.88 457,-219.67 457,-197.8"/>
<polygon fill="midnightblue" stroke="midnightblue" points="460.5,-197.55 457,-187.55 453.5,-197.55 460.5,-197.55"/>
</g>
<!-- Node11 -->
<g id="node11" class="node">
<title>Node11</title>
<g id="a_node11"><a xlink:href="exceptions_8h.html" target="_top" xlink:title=" ">
<polygon fill="none" stroke="black" points="186,-112.5 186,-131.5 312,-131.5 312,-112.5 186,-112.5"/>
<text text-anchor="middle" x="249" y="-119.5" font-family="Helvetica,sans-Serif" font-size="10.00">../include/exceptions.h</text>
</a>
</g>
</g>
<!-- Node1&#45;&gt;Node11 -->
<g id="edge42" class="edge">
<title>Node1&#45;&gt;Node11</title>
<path fill="none" stroke="midnightblue" d="M428.08,-280.12C384.26,-241.68 302.37,-169.83 266.54,-138.39"/>
<polygon fill="midnightblue" stroke="midnightblue" points="268.68,-135.61 258.86,-131.65 264.07,-140.88 268.68,-135.61"/>
</g>
<!-- Node16 -->
<g id="node16" class="node">
<title>Node16</title>
<g id="a_node16"><a xlink:href="enterprise_8h.html" target="_top" xlink:title=" ">
<polygon fill="none" stroke="black" points="722.5,-224.5 722.5,-243.5 797.5,-243.5 797.5,-224.5 722.5,-224.5"/>
<text text-anchor="middle" x="760" y="-231.5" font-family="Helvetica,sans-Serif" font-size="10.00">enterprise.h</text>
</a>
</g>
</g>
<!-- Node1&#45;&gt;Node16 -->
<g id="edge28" class="edge">
<title>Node1&#45;&gt;Node16</title>
<path fill="none" stroke="midnightblue" d="M528.81,-288.79C585.95,-275.5 664.23,-257.28 713.45,-245.83"/>
<polygon fill="midnightblue" stroke="midnightblue" points="714.25,-249.24 723.19,-243.56 712.66,-242.42 714.25,-249.24"/>
</g>
<!-- Node20 -->
<g id="node20" class="node">
<title>Node20</title>
<g id="a_node20"><a xlink:href="museum_8h.html" target="_top" xlink:title=" ">
<polygon fill="none" stroke="black" points="664,-168.5 664,-187.5 732,-187.5 732,-168.5 664,-168.5"/>
<text text-anchor="middle" x="698" y="-175.5" font-family="Helvetica,sans-Serif" font-size="10.00">museum.h</text>
</a>
</g>
</g>
<!-- Node1&#45;&gt;Node20 -->
<g id="edge43" class="edge">
<title>Node1&#45;&gt;Node20</title>
<path fill="none" stroke="midnightblue" d="M504.9,-280.36C555.27,-253.92 632.61,-213.32 672.4,-192.44"/>
<polygon fill="midnightblue" stroke="midnightblue" points="674.44,-195.32 681.67,-187.57 671.19,-189.12 674.44,-195.32"/>
</g>
<!-- Node7&#45;&gt;Node3 -->
<g id="edge8" class="edge">
<title>Node7&#45;&gt;Node3</title>
<path fill="none" stroke="midnightblue" d="M474.86,-168.29C501.19,-155.54 552.06,-131.21 596,-112 673.15,-78.28 765.27,-41.72 812.56,-23.21"/>
<polygon fill="midnightblue" stroke="midnightblue" points="813.91,-26.44 821.95,-19.55 811.36,-19.92 813.91,-26.44"/>
</g>
<!-- Node7&#45;&gt;Node4 -->
<g id="edge7" class="edge">
<title>Node7&#45;&gt;Node4</title>
<path fill="none" stroke="midnightblue" d="M430.59,-172.92C407.29,-167.77 374.66,-156.43 359,-132 347.08,-113.42 359.43,-70.09 373,-56 403.48,-24.36 454.76,-14.59 489.93,-11.78"/>
<polygon fill="midnightblue" stroke="midnightblue" points="490.54,-15.25 500.29,-11.11 490.09,-8.26 490.54,-15.25"/>
</g>
<!-- Node7&#45;&gt;Node5 -->
<g id="edge10" class="edge">
<title>Node7&#45;&gt;Node5</title>
<path fill="none" stroke="midnightblue" d="M430.96,-173.76C382.88,-167.58 276.77,-153 177.6,-131.92"/>
<polygon fill="midnightblue" stroke="midnightblue" points="178.23,-128.48 167.72,-129.79 176.76,-135.32 178.23,-128.48"/>
</g>
<!-- Node7&#45;&gt;Node6 -->
<g id="edge9" class="edge">
<title>Node7&#45;&gt;Node6</title>
<path fill="none" stroke="midnightblue" d="M465.54,-168.43C478.72,-155.43 505.12,-130.29 530,-112 545.76,-100.42 564.64,-89.1 579.52,-80.71"/>
<polygon fill="midnightblue" stroke="midnightblue" points="581.6,-83.56 588.64,-75.65 578.2,-77.44 581.6,-83.56"/>
</g>
<!-- Node8 -->
<g id="node8" class="node">
<title>Node8</title>
<g id="a_node8"><a xlink:href="address_8h.html" target="_top" xlink:title=" ">
<polygon fill="none" stroke="black" points="686,-112.5 686,-131.5 750,-131.5 750,-112.5 686,-112.5"/>
<text text-anchor="middle" x="718" y="-119.5" font-family="Helvetica,sans-Serif" font-size="10.00">address.h</text>
</a>
</g>
</g>
<!-- Node7&#45;&gt;Node8 -->
<g id="edge11" class="edge">
<title>Node7&#45;&gt;Node8</title>
<path fill="none" stroke="midnightblue" d="M483.46,-171.53C528.75,-162.15 621.49,-142.97 675.8,-131.73"/>
<polygon fill="midnightblue" stroke="midnightblue" points="676.71,-135.12 685.8,-129.66 675.29,-128.26 676.71,-135.12"/>
</g>
<!-- Node9 -->
<g id="node9" class="node">
<title>Node9</title>
<g id="a_node9"><a xlink:href="date_8h.html" target="_top" xlink:title=" ">
<polygon fill="none" stroke="black" points="759.5,-56.5 759.5,-75.5 806.5,-75.5 806.5,-56.5 759.5,-56.5"/>
<text text-anchor="middle" x="783" y="-63.5" font-family="Helvetica,sans-Serif" font-size="10.00">date.h</text>
</a>
</g>
</g>
<!-- Node7&#45;&gt;Node9 -->
<g id="edge15" class="edge">
<title>Node7&#45;&gt;Node9</title>
<path fill="none" stroke="midnightblue" d="M483.19,-168.71C511.17,-159.8 556.8,-145.16 596,-132 649.91,-113.91 712.24,-92.05 749.59,-78.85"/>
<polygon fill="midnightblue" stroke="midnightblue" points="751.18,-82.01 759.44,-75.37 748.84,-75.41 751.18,-82.01"/>
</g>
<!-- Node7&#45;&gt;Node11 -->
<g id="edge19" class="edge">
<title>Node7&#45;&gt;Node11</title>
<path fill="none" stroke="midnightblue" d="M430.66,-170.16C395.71,-161.09 333.6,-144.96 291.86,-134.13"/>
<polygon fill="midnightblue" stroke="midnightblue" points="292.53,-130.69 281.98,-131.56 290.78,-137.46 292.53,-130.69"/>
</g>
<!-- Node13 -->
<g id="node13" class="node">
<title>Node13</title>
<g id="a_node13"><a xlink:href="utilities_8h.html" target="_top" xlink:title=" ">
<polygon fill="none" stroke="black" points="368,-112.5 368,-131.5 478,-131.5 478,-112.5 368,-112.5"/>
<text text-anchor="middle" x="423" y="-119.5" font-family="Helvetica,sans-Serif" font-size="10.00">../include/utilities.h</text>
</a>
</g>
</g>
<!-- Node7&#45;&gt;Node13 -->
<g id="edge22" class="edge">
<title>Node7&#45;&gt;Node13</title>
<path fill="none" stroke="midnightblue" d="M451.39,-168.08C446.63,-160.53 439.68,-149.49 433.85,-140.23"/>
<polygon fill="midnightblue" stroke="midnightblue" points="436.8,-138.35 428.51,-131.75 430.88,-142.08 436.8,-138.35"/>
</g>
<!-- Node8&#45;&gt;Node3 -->
<g id="edge13" class="edge">
<title>Node8&#45;&gt;Node3</title>
<path fill="none" stroke="midnightblue" d="M750.22,-112.76C771.27,-105.95 798.08,-94.35 816,-76 828.59,-63.11 835.94,-43.66 839.93,-29.4"/>
<polygon fill="midnightblue" stroke="midnightblue" points="843.32,-30.24 842.35,-19.69 836.53,-28.55 843.32,-30.24"/>
</g>
<!-- Node8&#45;&gt;Node4 -->
<g id="edge12" class="edge">
<title>Node8&#45;&gt;Node4</title>
<path fill="none" stroke="midnightblue" d="M709.02,-112.49C694.56,-99.13 664.8,-72.97 636,-56 613.08,-42.5 585.36,-31.03 563.73,-23.06"/>
<polygon fill="midnightblue" stroke="midnightblue" points="564.86,-19.74 554.27,-19.64 562.49,-26.33 564.86,-19.74"/>
</g>
<!-- Node8&#45;&gt;Node6 -->
<g id="edge14" class="edge">
<title>Node8&#45;&gt;Node6</title>
<path fill="none" stroke="midnightblue" d="M700.09,-112.44C681.75,-103.68 652.99,-89.94 631.91,-79.86"/>
<polygon fill="midnightblue" stroke="midnightblue" points="633.35,-76.67 622.82,-75.52 630.33,-82.99 633.35,-76.67"/>
</g>
<!-- Node9&#45;&gt;Node3 -->
<g id="edge18" class="edge">
<title>Node9&#45;&gt;Node3</title>
<path fill="none" stroke="midnightblue" d="M792.8,-56.32C801.82,-48.34 815.41,-36.31 826.32,-26.65"/>
<polygon fill="midnightblue" stroke="midnightblue" points="828.85,-29.08 834.02,-19.83 824.21,-23.84 828.85,-29.08"/>
</g>
<!-- Node9&#45;&gt;Node4 -->
<g id="edge17" class="edge">
<title>Node9&#45;&gt;Node4</title>
<path fill="none" stroke="midnightblue" d="M759.31,-59.28C754.57,-58.17 749.63,-57.03 745,-56 682.24,-42.06 608.95,-27.15 565.62,-18.47"/>
<polygon fill="midnightblue" stroke="midnightblue" points="566.29,-15.03 555.8,-16.51 564.92,-21.9 566.29,-15.03"/>
</g>
<!-- Node10 -->
<g id="node10" class="node">
<title>Node10</title>
<g id="a_node10"><a xlink:title=" ">
<polygon fill="none" stroke="#bfbfbf" points="752,-0.5 752,-19.5 796,-19.5 796,-0.5 752,-0.5"/>
<text text-anchor="middle" x="774" y="-7.5" font-family="Helvetica,sans-Serif" font-size="10.00">ctime</text>
</a>
</g>
</g>
<!-- Node9&#45;&gt;Node10 -->
<g id="edge16" class="edge">
<title>Node9&#45;&gt;Node10</title>
<path fill="none" stroke="midnightblue" d="M781.51,-56.08C780.32,-48.93 778.61,-38.64 777.12,-29.69"/>
<polygon fill="midnightblue" stroke="midnightblue" points="780.55,-29.04 775.46,-19.75 773.65,-30.19 780.55,-29.04"/>
</g>
<!-- Node11&#45;&gt;Node6 -->
<g id="edge21" class="edge">
<title>Node11&#45;&gt;Node6</title>
<path fill="none" stroke="midnightblue" d="M305.41,-112.44C380.87,-101 512.18,-81.08 572.73,-71.9"/>
<polygon fill="midnightblue" stroke="midnightblue" points="573.48,-75.32 582.84,-70.36 572.43,-68.4 573.48,-75.32"/>
</g>
<!-- Node12 -->
<g id="node12" class="node">
<title>Node12</title>
<g id="a_node12"><a xlink:title=" ">
<polygon fill="none" stroke="#bfbfbf" points="216.5,-56.5 216.5,-75.5 281.5,-75.5 281.5,-56.5 216.5,-56.5"/>
<text text-anchor="middle" x="249" y="-63.5" font-family="Helvetica,sans-Serif" font-size="10.00">stdexcept</text>
</a>
</g>
</g>
<!-- Node11&#45;&gt;Node12 -->
<g id="edge20" class="edge">
<title>Node11&#45;&gt;Node12</title>
<path fill="none" stroke="midnightblue" d="M249,-112.08C249,-105.01 249,-94.86 249,-85.99"/>
<polygon fill="midnightblue" stroke="midnightblue" points="252.5,-85.75 249,-75.75 245.5,-85.75 252.5,-85.75"/>
</g>
<!-- Node13&#45;&gt;Node3 -->
<g id="edge24" class="edge">
<title>Node13&#45;&gt;Node3</title>
<path fill="none" stroke="midnightblue" d="M446.68,-112.4C469.76,-103.83 505.7,-89.96 536,-76 553.33,-68.01 555.88,-62 574,-56 669.66,-24.35 701.08,-38.75 803.96,-20.04"/>
<polygon fill="midnightblue" stroke="midnightblue" points="804.63,-23.48 813.81,-18.19 803.34,-16.6 804.63,-23.48"/>
</g>
<!-- Node13&#45;&gt;Node4 -->
<g id="edge25" class="edge">
<title>Node13&#45;&gt;Node4</title>
<path fill="none" stroke="midnightblue" d="M410.53,-112.32C393.8,-99.61 367.74,-75.32 382,-56 406.63,-22.64 455.62,-13.24 490.04,-10.98"/>
<polygon fill="midnightblue" stroke="midnightblue" points="490.39,-14.47 500.21,-10.49 490.05,-7.48 490.39,-14.47"/>
</g>
<!-- Node13&#45;&gt;Node6 -->
<g id="edge23" class="edge">
<title>Node13&#45;&gt;Node6</title>
<path fill="none" stroke="midnightblue" d="M451.84,-112.44C484.81,-102.66 538.64,-86.69 572.92,-76.52"/>
<polygon fill="midnightblue" stroke="midnightblue" points="574.29,-79.76 582.88,-73.56 572.3,-73.05 574.29,-79.76"/>
</g>
<!-- Node14 -->
<g id="node14" class="node">
<title>Node14</title>
<g id="a_node14"><a xlink:title=" ">
<polygon fill="none" stroke="#bfbfbf" points="473,-56.5 473,-75.5 527,-75.5 527,-56.5 473,-56.5"/>
<text text-anchor="middle" x="500" y="-63.5" font-family="Helvetica,sans-Serif" font-size="10.00">istream</text>
</a>
</g>
</g>
<!-- Node13&#45;&gt;Node14 -->
<g id="edge26" class="edge">
<title>Node13&#45;&gt;Node14</title>
<path fill="none" stroke="midnightblue" d="M435.37,-112.32C447.16,-104.06 465.13,-91.45 479.14,-81.63"/>
<polygon fill="midnightblue" stroke="midnightblue" points="481.48,-84.26 487.66,-75.65 477.46,-78.53 481.48,-84.26"/>
</g>
<!-- Node15 -->
<g id="node15" class="node">
<title>Node15</title>
<g id="a_node15"><a xlink:title=" ">
<polygon fill="none" stroke="#bfbfbf" points="391,-56.5 391,-75.5 455,-75.5 455,-56.5 391,-56.5"/>
<text text-anchor="middle" x="423" y="-63.5" font-family="Helvetica,sans-Serif" font-size="10.00">sys/stat.h</text>
</a>
</g>
</g>
<!-- Node13&#45;&gt;Node15 -->
<g id="edge27" class="edge">
<title>Node13&#45;&gt;Node15</title>
<path fill="none" stroke="midnightblue" d="M423,-112.08C423,-105.01 423,-94.86 423,-85.99"/>
<polygon fill="midnightblue" stroke="midnightblue" points="426.5,-85.75 423,-75.75 419.5,-85.75 426.5,-85.75"/>
</g>
<!-- Node16&#45;&gt;Node6 -->
<g id="edge41" class="edge">
<title>Node16&#45;&gt;Node6</title>
<path fill="none" stroke="midnightblue" d="M722.4,-224.52C700.32,-217.84 673.25,-206.49 655,-188 626.49,-159.11 613.42,-111.65 608.13,-85.58"/>
<polygon fill="midnightblue" stroke="midnightblue" points="611.53,-84.74 606.27,-75.54 604.65,-86.02 611.53,-84.74"/>
</g>
<!-- Node16&#45;&gt;Node8 -->
<g id="edge29" class="edge">
<title>Node16&#45;&gt;Node8</title>
<path fill="none" stroke="midnightblue" d="M758.04,-224.41C755.04,-211.81 748.82,-187.67 741,-168 737.31,-158.73 732.36,-148.81 728,-140.65"/>
<polygon fill="midnightblue" stroke="midnightblue" points="730.98,-138.81 723.09,-131.74 724.84,-142.18 730.98,-138.81"/>
</g>
<!-- Node17 -->
<g id="node17" class="node">
<title>Node17</title>
<g id="a_node17"><a xlink:href="event_8h.html" target="_top" xlink:title=" ">
<polygon fill="none" stroke="black" points="803.5,-168.5 803.5,-187.5 904.5,-187.5 904.5,-168.5 803.5,-168.5"/>
<text text-anchor="middle" x="854" y="-175.5" font-family="Helvetica,sans-Serif" font-size="10.00">../include/event.h</text>
</a>
</g>
</g>
<!-- Node16&#45;&gt;Node17 -->
<g id="edge30" class="edge">
<title>Node16&#45;&gt;Node17</title>
<path fill="none" stroke="midnightblue" d="M775.1,-224.32C789.9,-215.82 812.69,-202.73 829.98,-192.8"/>
<polygon fill="midnightblue" stroke="midnightblue" points="832.01,-195.67 838.93,-187.65 828.52,-189.6 832.01,-195.67"/>
</g>
<!-- Node19 -->
<g id="node19" class="node">
<title>Node19</title>
<g id="a_node19"><a xlink:title=" ">
<polygon fill="none" stroke="#bfbfbf" points="996,-112.5 996,-131.5 1028,-131.5 1028,-112.5 996,-112.5"/>
<text text-anchor="middle" x="1012" y="-119.5" font-family="Helvetica,sans-Serif" font-size="10.00">set</text>
</a>
</g>
</g>
<!-- Node16&#45;&gt;Node19 -->
<g id="edge40" class="edge">
<title>Node16&#45;&gt;Node19</title>
<path fill="none" stroke="midnightblue" d="M797.54,-225.37C829.44,-218.11 875.98,-205.66 914,-188 943.57,-174.26 974.39,-152.37 993.39,-137.84"/>
<polygon fill="midnightblue" stroke="midnightblue" points="995.72,-140.45 1001.47,-131.55 991.43,-134.93 995.72,-140.45"/>
</g>
<!-- Node17&#45;&gt;Node3 -->
<g id="edge39" class="edge">
<title>Node17&#45;&gt;Node3</title>
<path fill="none" stroke="midnightblue" d="M879.5,-168.47C895.99,-161.48 916.14,-149.79 926,-132 930.31,-124.23 928.97,-120.38 926,-112 913.39,-76.45 882.34,-44.31 862.27,-26.25"/>
<polygon fill="midnightblue" stroke="midnightblue" points="864.51,-23.56 854.68,-19.61 859.91,-28.83 864.51,-23.56"/>
</g>
<!-- Node17&#45;&gt;Node6 -->
<g id="edge37" class="edge">
<title>Node17&#45;&gt;Node6</title>
<path fill="none" stroke="midnightblue" d="M843.84,-168.42C827.15,-154.72 792.41,-127.82 759,-112 718.97,-93.05 669.24,-80.28 637.32,-73.32"/>
<polygon fill="midnightblue" stroke="midnightblue" points="637.72,-69.83 627.21,-71.18 636.27,-76.68 637.72,-69.83"/>
</g>
<!-- Node17&#45;&gt;Node8 -->
<g id="edge36" class="edge">
<title>Node17&#45;&gt;Node8</title>
<path fill="none" stroke="midnightblue" d="M832.45,-168.44C809.97,-159.52 774.51,-145.44 749.02,-135.32"/>
<polygon fill="midnightblue" stroke="midnightblue" points="750.03,-131.95 739.45,-131.52 747.45,-138.46 750.03,-131.95"/>
</g>
<!-- Node17&#45;&gt;Node9 -->
<g id="edge35" class="edge">
<title>Node17&#45;&gt;Node9</title>
<path fill="none" stroke="midnightblue" d="M871.32,-168.44C893.23,-156.45 926.36,-133.68 911,-112 889.81,-82.08 847.07,-71.91 816.82,-68.53"/>
<polygon fill="midnightblue" stroke="midnightblue" points="816.97,-65.03 806.69,-67.6 816.33,-72 816.97,-65.03"/>
</g>
<!-- Node18 -->
<g id="node18" class="node">
<title>Node18</title>
<g id="a_node18"><a xlink:href="time_8h.html" target="_top" xlink:title=" ">
<polygon fill="none" stroke="black" points="806.5,-112.5 806.5,-131.5 901.5,-131.5 901.5,-112.5 806.5,-112.5"/>
<text text-anchor="middle" x="854" y="-119.5" font-family="Helvetica,sans-Serif" font-size="10.00">../include/time.h</text>
</a>
</g>
</g>
<!-- Node17&#45;&gt;Node18 -->
<g id="edge31" class="edge">
<title>Node17&#45;&gt;Node18</title>
<path fill="none" stroke="midnightblue" d="M854,-168.08C854,-161.01 854,-150.86 854,-141.99"/>
<polygon fill="midnightblue" stroke="midnightblue" points="857.5,-141.75 854,-131.75 850.5,-141.75 857.5,-141.75"/>
</g>
<!-- Node17&#45;&gt;Node19 -->
<g id="edge38" class="edge">
<title>Node17&#45;&gt;Node19</title>
<path fill="none" stroke="midnightblue" d="M879.04,-168.44C908.3,-158.44 956.5,-141.97 986.12,-131.84"/>
<polygon fill="midnightblue" stroke="midnightblue" points="987.43,-135.09 995.76,-128.55 985.17,-128.47 987.43,-135.09"/>
</g>
<!-- Node18&#45;&gt;Node3 -->
<g id="edge33" class="edge">
<title>Node18&#45;&gt;Node3</title>
<path fill="none" stroke="midnightblue" d="M853.42,-112.16C852.57,-99.65 850.89,-76.06 849,-56 848.19,-47.38 847.15,-37.85 846.23,-29.79"/>
<polygon fill="midnightblue" stroke="midnightblue" points="849.68,-29.15 845.05,-19.62 842.73,-29.96 849.68,-29.15"/>
</g>
<!-- Node18&#45;&gt;Node4 -->
<g id="edge32" class="edge">
<title>Node18&#45;&gt;Node4</title>
<path fill="none" stroke="midnightblue" d="M829.13,-112.4C792.86,-99.88 723.31,-75.96 664,-56 629.99,-44.56 591.12,-31.72 563.67,-22.69"/>
<polygon fill="midnightblue" stroke="midnightblue" points="564.69,-19.35 554.1,-19.55 562.51,-26 564.69,-19.35"/>
</g>
<!-- Node18&#45;&gt;Node9 -->
<g id="edge34" class="edge">
<title>Node18&#45;&gt;Node9</title>
<path fill="none" stroke="midnightblue" d="M842.59,-112.32C831.89,-104.18 815.66,-91.84 802.84,-82.09"/>
<polygon fill="midnightblue" stroke="midnightblue" points="804.69,-79.1 794.61,-75.83 800.46,-84.67 804.69,-79.1"/>
</g>
<!-- Node20&#45;&gt;Node8 -->
<g id="edge44" class="edge">
<title>Node20&#45;&gt;Node8</title>
<path fill="none" stroke="midnightblue" d="M701.3,-168.08C703.98,-160.85 707.85,-150.41 711.19,-141.4"/>
<polygon fill="midnightblue" stroke="midnightblue" points="714.57,-142.34 714.76,-131.75 708,-139.91 714.57,-142.34"/>
</g>
<!-- Node20&#45;&gt;Node18 -->
<g id="edge45" class="edge">
<title>Node20&#45;&gt;Node18</title>
<path fill="none" stroke="midnightblue" d="M722.72,-168.44C748.85,-159.4 790.26,-145.06 819.58,-134.92"/>
<polygon fill="midnightblue" stroke="midnightblue" points="821.09,-138.1 829.4,-131.52 818.8,-131.48 821.09,-138.1"/>
</g>
</g>
</svg>
