<?xml version="1.0" encoding="UTF-8" standalone="no"?>
<!DOCTYPE svg PUBLIC "-//W3C//DTD SVG 1.1//EN"
 "http://www.w3.org/Graphics/SVG/1.1/DTD/svg11.dtd">
<!-- Generated by graphviz version 2.43.20190912.0211 (20190912.0211)
 -->
<!-- Title: /home/joao/Documents/UniStuff/2_1things/AEDA/FEUP&#45;AEDA&#45;Proj1/include/museum.h Pages: 1 -->
<svg width="296pt" height="229pt"
 viewBox="0.00 0.00 295.50 229.00" xmlns="http://www.w3.org/2000/svg" xmlns:xlink="http://www.w3.org/1999/xlink">
<g id="graph0" class="graph" transform="scale(1 1) rotate(0) translate(4 225)">
<title>/home/joao/Documents/UniStuff/2_1things/AEDA/FEUP&#45;AEDA&#45;Proj1/include/museum.h</title>
<!-- Node1 -->
<g id="node1" class="node">
<title>Node1</title>
<g id="a_node1"><a xlink:title=" ">
<polygon fill="#bfbfbf" stroke="black" points="88.5,-168.5 88.5,-220.5 231.5,-220.5 231.5,-168.5 88.5,-168.5"/>
<text text-anchor="start" x="96.5" y="-208.5" font-family="Helvetica,sans-Serif" font-size="10.00">/home/joao/Documents</text>
<text text-anchor="start" x="96.5" y="-197.5" font-family="Helvetica,sans-Serif" font-size="10.00">/UniStuff/2_1things/AEDA</text>
<text text-anchor="start" x="96.5" y="-186.5" font-family="Helvetica,sans-Serif" font-size="10.00">/FEUP&#45;AEDA&#45;Proj1/include</text>
<text text-anchor="middle" x="160" y="-175.5" font-family="Helvetica,sans-Serif" font-size="10.00">/museum.h</text>
</a>
</g>
</g>
<!-- Node2 -->
<g id="node2" class="node">
<title>Node2</title>
<g id="a_node2"><a xlink:href="address_8h.html" target="_top" xlink:title=" ">
<polygon fill="none" stroke="black" points="176.5,-56.5 176.5,-75.5 287.5,-75.5 287.5,-56.5 176.5,-56.5"/>
<text text-anchor="middle" x="232" y="-63.5" font-family="Helvetica,sans-Serif" font-size="10.00">../include/address.h</text>
</a>
</g>
</g>
<!-- Node1&#45;&gt;Node2 -->
<g id="edge1" class="edge">
<title>Node1&#45;&gt;Node2</title>
<path fill="none" stroke="midnightblue" d="M174.4,-168.2C188.56,-143.32 209.8,-106 222.15,-84.31"/>
<polygon fill="midnightblue" stroke="midnightblue" points="225.23,-85.97 227.13,-75.55 219.15,-82.51 225.23,-85.97"/>
</g>
<!-- Node6 -->
<g id="node6" class="node">
<title>Node6</title>
<g id="a_node6"><a xlink:href="time_8h.html" target="_top" xlink:title=" ">
<polygon fill="none" stroke="black" points="74.5,-112.5 74.5,-131.5 169.5,-131.5 169.5,-112.5 74.5,-112.5"/>
<text text-anchor="middle" x="122" y="-119.5" font-family="Helvetica,sans-Serif" font-size="10.00">../include/time.h</text>
</a>
</g>
</g>
<!-- Node1&#45;&gt;Node6 -->
<g id="edge5" class="edge">
<title>Node1&#45;&gt;Node6</title>
<path fill="none" stroke="midnightblue" d="M146.5,-168.45C141.53,-159.23 136.01,-149 131.47,-140.58"/>
<polygon fill="midnightblue" stroke="midnightblue" points="134.51,-138.84 126.69,-131.7 128.35,-142.16 134.51,-138.84"/>
</g>
<!-- Node3 -->
<g id="node3" class="node">
<title>Node3</title>
<g id="a_node3"><a xlink:title=" ">
<polygon fill="none" stroke="#bfbfbf" points="140.5,-0.5 140.5,-19.5 195.5,-19.5 195.5,-0.5 140.5,-0.5"/>
<text text-anchor="middle" x="168" y="-7.5" font-family="Helvetica,sans-Serif" font-size="10.00">fstream</text>
</a>
</g>
</g>
<!-- Node2&#45;&gt;Node3 -->
<g id="edge2" class="edge">
<title>Node2&#45;&gt;Node3</title>
<path fill="none" stroke="midnightblue" d="M221.72,-56.32C212.16,-48.26 197.72,-36.08 186.22,-26.37"/>
<polygon fill="midnightblue" stroke="midnightblue" points="188.37,-23.61 178.47,-19.83 183.86,-28.96 188.37,-23.61"/>
</g>
<!-- Node4 -->
<g id="node4" class="node">
<title>Node4</title>
<g id="a_node4"><a xlink:title=" ">
<polygon fill="none" stroke="#bfbfbf" points="62,-0.5 62,-19.5 122,-19.5 122,-0.5 62,-0.5"/>
<text text-anchor="middle" x="92" y="-7.5" font-family="Helvetica,sans-Serif" font-size="10.00">iostream</text>
</a>
</g>
</g>
<!-- Node2&#45;&gt;Node4 -->
<g id="edge3" class="edge">
<title>Node2&#45;&gt;Node4</title>
<path fill="none" stroke="midnightblue" d="M209.82,-56.44C186.57,-47.48 149.85,-33.31 123.58,-23.18"/>
<polygon fill="midnightblue" stroke="midnightblue" points="124.67,-19.85 114.08,-19.52 122.15,-26.38 124.67,-19.85"/>
</g>
<!-- Node5 -->
<g id="node5" class="node">
<title>Node5</title>
<g id="a_node5"><a xlink:title=" ">
<polygon fill="none" stroke="#bfbfbf" points="214,-0.5 214,-19.5 258,-19.5 258,-0.5 214,-0.5"/>
<text text-anchor="middle" x="236" y="-7.5" font-family="Helvetica,sans-Serif" font-size="10.00">string</text>
</a>
</g>
</g>
<!-- Node2&#45;&gt;Node5 -->
<g id="edge4" class="edge">
<title>Node2&#45;&gt;Node5</title>
<path fill="none" stroke="midnightblue" d="M232.66,-56.08C233.18,-49.01 233.94,-38.86 234.59,-29.99"/>
<polygon fill="midnightblue" stroke="midnightblue" points="238.1,-29.98 235.35,-19.75 231.12,-29.47 238.1,-29.98"/>
</g>
<!-- Node6&#45;&gt;Node3 -->
<g id="edge6" class="edge">
<title>Node6&#45;&gt;Node3</title>
<path fill="none" stroke="midnightblue" d="M125.61,-112.37C133.1,-94.46 150.47,-52.92 160.49,-28.95"/>
<polygon fill="midnightblue" stroke="midnightblue" points="163.78,-30.17 164.41,-19.59 157.32,-27.47 163.78,-30.17"/>
</g>
<!-- Node6&#45;&gt;Node4 -->
<g id="edge7" class="edge">
<title>Node6&#45;&gt;Node4</title>
<path fill="none" stroke="midnightblue" d="M103.61,-112.47C89.9,-105 72.19,-92.71 64,-76 56.02,-59.71 66.56,-40.58 76.91,-27.32"/>
<polygon fill="midnightblue" stroke="midnightblue" points="79.71,-29.43 83.49,-19.53 74.36,-24.91 79.71,-29.43"/>
</g>
<!-- Node7 -->
<g id="node7" class="node">
<title>Node7</title>
<g id="a_node7"><a xlink:href="date_8h.html" target="_top" xlink:title=" ">
<polygon fill="none" stroke="black" points="72.5,-56.5 72.5,-75.5 119.5,-75.5 119.5,-56.5 72.5,-56.5"/>
<text text-anchor="middle" x="96" y="-63.5" font-family="Helvetica,sans-Serif" font-size="10.00">date.h</text>
</a>
</g>
</g>
<!-- Node6&#45;&gt;Node7 -->
<g id="edge8" class="edge">
<title>Node6&#45;&gt;Node7</title>
<path fill="none" stroke="midnightblue" d="M117.71,-112.08C114.15,-104.69 108.98,-93.95 104.58,-84.81"/>
<polygon fill="midnightblue" stroke="midnightblue" points="107.71,-83.24 100.21,-75.75 101.4,-86.28 107.71,-83.24"/>
</g>
<!-- Node7&#45;&gt;Node3 -->
<g id="edge10" class="edge">
<title>Node7&#45;&gt;Node3</title>
<path fill="none" stroke="midnightblue" d="M107.57,-56.32C118.42,-48.18 134.88,-35.84 147.88,-26.09"/>
<polygon fill="midnightblue" stroke="midnightblue" points="150.32,-28.63 156.22,-19.83 146.12,-23.03 150.32,-28.63"/>
</g>
<!-- Node7&#45;&gt;Node4 -->
<g id="edge11" class="edge">
<title>Node7&#45;&gt;Node4</title>
<path fill="none" stroke="midnightblue" d="M95.34,-56.08C94.82,-49.01 94.06,-38.86 93.41,-29.99"/>
<polygon fill="midnightblue" stroke="midnightblue" points="96.88,-29.47 92.65,-19.75 89.9,-29.98 96.88,-29.47"/>
</g>
<!-- Node8 -->
<g id="node8" class="node">
<title>Node8</title>
<g id="a_node8"><a xlink:title=" ">
<polygon fill="none" stroke="#bfbfbf" points="0,-0.5 0,-19.5 44,-19.5 44,-0.5 0,-0.5"/>
<text text-anchor="middle" x="22" y="-7.5" font-family="Helvetica,sans-Serif" font-size="10.00">ctime</text>
</a>
</g>
</g>
<!-- Node7&#45;&gt;Node8 -->
<g id="edge9" class="edge">
<title>Node7&#45;&gt;Node8</title>
<path fill="none" stroke="midnightblue" d="M84.11,-56.32C72.85,-48.11 55.71,-35.6 42.29,-25.81"/>
<polygon fill="midnightblue" stroke="midnightblue" points="44.25,-22.9 34.11,-19.83 40.12,-28.56 44.25,-22.9"/>
</g>
</g>
</svg>
