<?xml version="1.0" encoding="UTF-8" standalone="no"?>
<!DOCTYPE svg PUBLIC "-//W3C//DTD SVG 1.1//EN"
 "http://www.w3.org/Graphics/SVG/1.1/DTD/svg11.dtd">
<!-- Generated by graphviz version 2.43.20190912.0211 (20190912.0211)
 -->
<!-- Title: /home/joao/Documents/UniStuff/2_1things/AEDA/FEUP&#45;AEDA&#45;Proj1/include/time.h Pages: 1 -->
<svg width="204pt" height="162pt"
 viewBox="0.00 0.00 203.50 162.00" xmlns="http://www.w3.org/2000/svg" xmlns:xlink="http://www.w3.org/1999/xlink">
<g id="graph0" class="graph" transform="scale(1 1) rotate(0) translate(4 158)">
<title>/home/joao/Documents/UniStuff/2_1things/AEDA/FEUP&#45;AEDA&#45;Proj1/include/time.h</title>
<!-- Node1 -->
<g id="node1" class="node">
<title>Node1</title>
<g id="a_node1"><a xlink:title=" ">
<polygon fill="#bfbfbf" stroke="black" points="7,-112.5 7,-153.5 184,-153.5 184,-112.5 7,-112.5"/>
<text text-anchor="start" x="15" y="-141.5" font-family="Helvetica,sans-Serif" font-size="10.00">/home/joao/Documents</text>
<text text-anchor="start" x="15" y="-130.5" font-family="Helvetica,sans-Serif" font-size="10.00">/UniStuff/2_1things/AEDA</text>
<text text-anchor="middle" x="95.5" y="-119.5" font-family="Helvetica,sans-Serif" font-size="10.00">/FEUP&#45;AEDA&#45;Proj1/include/time.h</text>
</a>
</g>
</g>
<!-- Node2 -->
<g id="node2" class="node">
<title>Node2</title>
<g id="a_node2"><a xlink:title=" ">
<polygon fill="none" stroke="#bfbfbf" points="0,-0.5 0,-19.5 55,-19.5 55,-0.5 0,-0.5"/>
<text text-anchor="middle" x="27.5" y="-7.5" font-family="Helvetica,sans-Serif" font-size="10.00">fstream</text>
</a>
</g>
</g>
<!-- Node1&#45;&gt;Node2 -->
<g id="edge1" class="edge">
<title>Node1&#45;&gt;Node2</title>
<path fill="none" stroke="midnightblue" d="M83.71,-112.41C77.33,-101.71 69.37,-88.19 62.5,-76 53.57,-60.16 43.79,-41.92 36.85,-28.8"/>
<polygon fill="midnightblue" stroke="midnightblue" points="39.91,-27.1 32.15,-19.89 33.72,-30.37 39.91,-27.1"/>
</g>
<!-- Node3 -->
<g id="node3" class="node">
<title>Node3</title>
<g id="a_node3"><a xlink:title=" ">
<polygon fill="none" stroke="#bfbfbf" points="135.5,-0.5 135.5,-19.5 195.5,-19.5 195.5,-0.5 135.5,-0.5"/>
<text text-anchor="middle" x="165.5" y="-7.5" font-family="Helvetica,sans-Serif" font-size="10.00">iostream</text>
</a>
</g>
</g>
<!-- Node1&#45;&gt;Node3 -->
<g id="edge2" class="edge">
<title>Node1&#45;&gt;Node3</title>
<path fill="none" stroke="midnightblue" d="M107.18,-112.35C113.52,-101.63 121.49,-88.11 128.5,-76 137.73,-60.06 148.09,-41.83 155.5,-28.74"/>
<polygon fill="midnightblue" stroke="midnightblue" points="158.64,-30.28 160.51,-19.86 152.55,-26.84 158.64,-30.28"/>
</g>
<!-- Node4 -->
<g id="node4" class="node">
<title>Node4</title>
<g id="a_node4"><a xlink:href="date_8h.html" target="_top" xlink:title=" ">
<polygon fill="none" stroke="black" points="72,-56.5 72,-75.5 119,-75.5 119,-56.5 72,-56.5"/>
<text text-anchor="middle" x="95.5" y="-63.5" font-family="Helvetica,sans-Serif" font-size="10.00">date.h</text>
</a>
</g>
</g>
<!-- Node1&#45;&gt;Node4 -->
<g id="edge3" class="edge">
<title>Node1&#45;&gt;Node4</title>
<path fill="none" stroke="midnightblue" d="M95.5,-112.5C95.5,-104.07 95.5,-94.24 95.5,-85.87"/>
<polygon fill="midnightblue" stroke="midnightblue" points="99,-85.65 95.5,-75.65 92,-85.65 99,-85.65"/>
</g>
<!-- Node4&#45;&gt;Node2 -->
<g id="edge5" class="edge">
<title>Node4&#45;&gt;Node2</title>
<path fill="none" stroke="midnightblue" d="M84.57,-56.32C74.33,-48.18 58.78,-35.84 46.5,-26.09"/>
<polygon fill="midnightblue" stroke="midnightblue" points="48.63,-23.31 38.62,-19.83 44.28,-28.79 48.63,-23.31"/>
</g>
<!-- Node4&#45;&gt;Node3 -->
<g id="edge6" class="edge">
<title>Node4&#45;&gt;Node3</title>
<path fill="none" stroke="midnightblue" d="M106.75,-56.32C117.3,-48.18 133.3,-35.84 145.94,-26.09"/>
<polygon fill="midnightblue" stroke="midnightblue" points="148.27,-28.71 154.05,-19.83 143.99,-23.17 148.27,-28.71"/>
</g>
<!-- Node5 -->
<g id="node5" class="node">
<title>Node5</title>
<g id="a_node5"><a xlink:title=" ">
<polygon fill="none" stroke="#bfbfbf" points="73.5,-0.5 73.5,-19.5 117.5,-19.5 117.5,-0.5 73.5,-0.5"/>
<text text-anchor="middle" x="95.5" y="-7.5" font-family="Helvetica,sans-Serif" font-size="10.00">ctime</text>
</a>
</g>
</g>
<!-- Node4&#45;&gt;Node5 -->
<g id="edge4" class="edge">
<title>Node4&#45;&gt;Node5</title>
<path fill="none" stroke="midnightblue" d="M95.5,-56.08C95.5,-49.01 95.5,-38.86 95.5,-29.99"/>
<polygon fill="midnightblue" stroke="midnightblue" points="99,-29.75 95.5,-19.75 92,-29.75 99,-29.75"/>
</g>
</g>
</svg>
