<?xml version="1.0" encoding="UTF-8" standalone="no"?>
<!DOCTYPE svg PUBLIC "-//W3C//DTD SVG 1.1//EN"
 "http://www.w3.org/Graphics/SVG/1.1/DTD/svg11.dtd">
<!-- Generated by graphviz version 2.43.20190912.0211 (20190912.0211)
 -->
<!-- Title: /home/joao/Documents/UniStuff/2_1things/AEDA/FEUP&#45;AEDA&#45;Proj1/include/time.h Pages: 1 -->
<svg width="329pt" height="406pt"
 viewBox="0.00 0.00 329.35 406.00" xmlns="http://www.w3.org/2000/svg" xmlns:xlink="http://www.w3.org/1999/xlink">
<g id="graph0" class="graph" transform="scale(1 1) rotate(0) translate(4 402)">
<title>/home/joao/Documents/UniStuff/2_1things/AEDA/FEUP&#45;AEDA&#45;Proj1/include/time.h</title>
<!-- Node1 -->
<g id="node1" class="node">
<title>Node1</title>
<g id="a_node1"><a xlink:title=" ">
<polygon fill="#bfbfbf" stroke="black" points="50.35,-356.5 50.35,-397.5 227.35,-397.5 227.35,-356.5 50.35,-356.5"/>
<text text-anchor="start" x="58.35" y="-385.5" font-family="Helvetica,sans-Serif" font-size="10.00">/home/joao/Documents</text>
<text text-anchor="start" x="58.35" y="-374.5" font-family="Helvetica,sans-Serif" font-size="10.00">/UniStuff/2_1things/AEDA</text>
<text text-anchor="middle" x="138.85" y="-363.5" font-family="Helvetica,sans-Serif" font-size="10.00">/FEUP&#45;AEDA&#45;Proj1/include/time.h</text>
</a>
</g>
</g>
<!-- Node2 -->
<g id="node2" class="node">
<title>Node2</title>
<g id="a_node2"><a xlink:href="event_8h.html" target="_top" xlink:title=" ">
<polygon fill="none" stroke="black" points="17.35,-267.5 17.35,-319.5 160.35,-319.5 160.35,-267.5 17.35,-267.5"/>
<text text-anchor="start" x="25.35" y="-307.5" font-family="Helvetica,sans-Serif" font-size="10.00">/home/joao/Documents</text>
<text text-anchor="start" x="25.35" y="-296.5" font-family="Helvetica,sans-Serif" font-size="10.00">/UniStuff/2_1things/AEDA</text>
<text text-anchor="start" x="25.35" y="-285.5" font-family="Helvetica,sans-Serif" font-size="10.00">/FEUP&#45;AEDA&#45;Proj1/include</text>
<text text-anchor="middle" x="88.85" y="-274.5" font-family="Helvetica,sans-Serif" font-size="10.00">/event.h</text>
</a>
</g>
</g>
<!-- Node1&#45;&gt;Node2 -->
<g id="edge1" class="edge">
<title>Node1&#45;&gt;Node2</title>
<path fill="none" stroke="midnightblue" d="M121.4,-347.55C115.82,-338.45 109.68,-328.45 104.26,-319.61"/>
<polygon fill="midnightblue" stroke="midnightblue" points="118.54,-349.58 126.75,-356.27 124.5,-345.92 118.54,-349.58"/>
</g>
<!-- Node7 -->
<g id="node7" class="node">
<title>Node7</title>
<g id="a_node7"><a xlink:href="museum_8h.html" target="_top" xlink:title=" ">
<polygon fill="none" stroke="black" points="178.35,-178.5 178.35,-230.5 321.35,-230.5 321.35,-178.5 178.35,-178.5"/>
<text text-anchor="start" x="186.35" y="-218.5" font-family="Helvetica,sans-Serif" font-size="10.00">/home/joao/Documents</text>
<text text-anchor="start" x="186.35" y="-207.5" font-family="Helvetica,sans-Serif" font-size="10.00">/UniStuff/2_1things/AEDA</text>
<text text-anchor="start" x="186.35" y="-196.5" font-family="Helvetica,sans-Serif" font-size="10.00">/FEUP&#45;AEDA&#45;Proj1/include</text>
<text text-anchor="middle" x="249.85" y="-185.5" font-family="Helvetica,sans-Serif" font-size="10.00">/museum.h</text>
</a>
</g>
</g>
<!-- Node1&#45;&gt;Node7 -->
<g id="edge8" class="edge">
<title>Node1&#45;&gt;Node7</title>
<path fill="none" stroke="midnightblue" d="M157.2,-347.82C178.45,-315.18 213.14,-261.89 233.5,-230.61"/>
<polygon fill="midnightblue" stroke="midnightblue" points="154.11,-346.15 151.59,-356.44 159.98,-349.97 154.11,-346.15"/>
</g>
<!-- Node3 -->
<g id="node3" class="node">
<title>Node3</title>
<g id="a_node3"><a xlink:href="enterprise_8h.html" target="_top" xlink:title=" ">
<polygon fill="none" stroke="black" points="17.35,-178.5 17.35,-230.5 160.35,-230.5 160.35,-178.5 17.35,-178.5"/>
<text text-anchor="start" x="25.35" y="-218.5" font-family="Helvetica,sans-Serif" font-size="10.00">/home/joao/Documents</text>
<text text-anchor="start" x="25.35" y="-207.5" font-family="Helvetica,sans-Serif" font-size="10.00">/UniStuff/2_1things/AEDA</text>
<text text-anchor="start" x="25.35" y="-196.5" font-family="Helvetica,sans-Serif" font-size="10.00">/FEUP&#45;AEDA&#45;Proj1/include</text>
<text text-anchor="middle" x="88.85" y="-185.5" font-family="Helvetica,sans-Serif" font-size="10.00">/enterprise.h</text>
</a>
</g>
</g>
<!-- Node2&#45;&gt;Node3 -->
<g id="edge2" class="edge">
<title>Node2&#45;&gt;Node3</title>
<path fill="none" stroke="midnightblue" d="M88.85,-257.19C88.85,-248.28 88.85,-238.9 88.85,-230.61"/>
<polygon fill="midnightblue" stroke="midnightblue" points="85.35,-257.34 88.85,-267.34 92.35,-257.34 85.35,-257.34"/>
</g>
<!-- Node4 -->
<g id="node4" class="node">
<title>Node4</title>
<g id="a_node4"><a xlink:href="filter_8h.html" target="_top" xlink:title=" ">
<polygon fill="none" stroke="black" points="17.35,-89.5 17.35,-141.5 160.35,-141.5 160.35,-89.5 17.35,-89.5"/>
<text text-anchor="start" x="25.35" y="-129.5" font-family="Helvetica,sans-Serif" font-size="10.00">/home/joao/Documents</text>
<text text-anchor="start" x="25.35" y="-118.5" font-family="Helvetica,sans-Serif" font-size="10.00">/UniStuff/2_1things/AEDA</text>
<text text-anchor="start" x="25.35" y="-107.5" font-family="Helvetica,sans-Serif" font-size="10.00">/FEUP&#45;AEDA&#45;Proj1/include</text>
<text text-anchor="middle" x="88.85" y="-96.5" font-family="Helvetica,sans-Serif" font-size="10.00">/filter.h</text>
</a>
</g>
</g>
<!-- Node2&#45;&gt;Node4 -->
<g id="edge7" class="edge">
<title>Node2&#45;&gt;Node4</title>
<path fill="none" stroke="midnightblue" d="M33.1,-261.23C22.91,-252.81 13.67,-242.72 7.85,-231 -2.62,-209.9 -2.62,-199.1 7.85,-178 15.15,-163.29 27.84,-151.15 41.04,-141.66"/>
<polygon fill="midnightblue" stroke="midnightblue" points="30.98,-264.01 41.04,-267.34 35.25,-258.47 30.98,-264.01"/>
</g>
<!-- Node3&#45;&gt;Node4 -->
<g id="edge3" class="edge">
<title>Node3&#45;&gt;Node4</title>
<path fill="none" stroke="midnightblue" d="M88.85,-168.19C88.85,-159.28 88.85,-149.9 88.85,-141.61"/>
<polygon fill="midnightblue" stroke="midnightblue" points="85.35,-168.34 88.85,-178.34 92.35,-168.34 85.35,-168.34"/>
</g>
<!-- Node6 -->
<g id="node6" class="node">
<title>Node6</title>
<g id="a_node6"><a xlink:href="museum__network_8h.html" target="_top" xlink:title=" ">
<polygon fill="none" stroke="black" points="178.35,-89.5 178.35,-141.5 321.35,-141.5 321.35,-89.5 178.35,-89.5"/>
<text text-anchor="start" x="186.35" y="-129.5" font-family="Helvetica,sans-Serif" font-size="10.00">/home/joao/Documents</text>
<text text-anchor="start" x="186.35" y="-118.5" font-family="Helvetica,sans-Serif" font-size="10.00">/UniStuff/2_1things/AEDA</text>
<text text-anchor="start" x="186.35" y="-107.5" font-family="Helvetica,sans-Serif" font-size="10.00">/FEUP&#45;AEDA&#45;Proj1/include</text>
<text text-anchor="middle" x="249.85" y="-96.5" font-family="Helvetica,sans-Serif" font-size="10.00">/museum_network.h</text>
</a>
</g>
</g>
<!-- Node3&#45;&gt;Node6 -->
<g id="edge5" class="edge">
<title>Node3&#45;&gt;Node6</title>
<path fill="none" stroke="midnightblue" d="M144.38,-173.49C163.62,-163.1 184.96,-151.57 203.39,-141.61"/>
<polygon fill="midnightblue" stroke="midnightblue" points="142.56,-170.5 135.42,-178.34 145.88,-176.66 142.56,-170.5"/>
</g>
<!-- Node5 -->
<g id="node5" class="node">
<title>Node5</title>
<g id="a_node5"><a xlink:href="interfaces_8h.html" target="_top" xlink:title=" ">
<polygon fill="none" stroke="black" points="97.35,-0.5 97.35,-52.5 240.35,-52.5 240.35,-0.5 97.35,-0.5"/>
<text text-anchor="start" x="105.35" y="-40.5" font-family="Helvetica,sans-Serif" font-size="10.00">/home/joao/Documents</text>
<text text-anchor="start" x="105.35" y="-29.5" font-family="Helvetica,sans-Serif" font-size="10.00">/UniStuff/2_1things/AEDA</text>
<text text-anchor="start" x="105.35" y="-18.5" font-family="Helvetica,sans-Serif" font-size="10.00">/FEUP&#45;AEDA&#45;Proj1/include</text>
<text text-anchor="middle" x="168.85" y="-7.5" font-family="Helvetica,sans-Serif" font-size="10.00">/interfaces.h</text>
</a>
</g>
</g>
<!-- Node4&#45;&gt;Node5 -->
<g id="edge4" class="edge">
<title>Node4&#45;&gt;Node5</title>
<path fill="none" stroke="midnightblue" d="M118.93,-81.79C127.82,-72.13 137.4,-61.71 145.77,-52.61"/>
<polygon fill="midnightblue" stroke="midnightblue" points="116.19,-79.61 111.99,-89.34 121.34,-84.34 116.19,-79.61"/>
</g>
<!-- Node6&#45;&gt;Node5 -->
<g id="edge6" class="edge">
<title>Node6&#45;&gt;Node5</title>
<path fill="none" stroke="midnightblue" d="M219.4,-81.79C210.41,-72.13 200.7,-61.71 192.23,-52.61"/>
<polygon fill="midnightblue" stroke="midnightblue" points="217.05,-84.4 226.43,-89.34 222.17,-79.63 217.05,-84.4"/>
</g>
<!-- Node7&#45;&gt;Node4 -->
<g id="edge9" class="edge">
<title>Node7&#45;&gt;Node4</title>
<path fill="none" stroke="midnightblue" d="M194.33,-173.49C175.09,-163.1 153.75,-151.57 135.32,-141.61"/>
<polygon fill="midnightblue" stroke="midnightblue" points="192.82,-176.66 203.29,-178.34 196.15,-170.5 192.82,-176.66"/>
</g>
<!-- Node7&#45;&gt;Node6 -->
<g id="edge10" class="edge">
<title>Node7&#45;&gt;Node6</title>
<path fill="none" stroke="midnightblue" d="M249.85,-168.19C249.85,-159.28 249.85,-149.9 249.85,-141.61"/>
<polygon fill="midnightblue" stroke="midnightblue" points="246.35,-168.34 249.85,-178.34 253.35,-168.34 246.35,-168.34"/>
</g>
</g>
</svg>
