<?xml version="1.0" encoding="UTF-8" standalone="no"?>
<!DOCTYPE svg PUBLIC "-//W3C//DTD SVG 1.1//EN"
 "http://www.w3.org/Graphics/SVG/1.1/DTD/svg11.dtd">
<!-- Generated by graphviz version 2.43.20190912.0211 (20190912.0211)
 -->
<!-- Title: /home/joao/Documents/UniStuff/2_1things/AEDA/FEUP&#45;AEDA&#45;Proj1/include/utilities.h Pages: 1 -->
<svg width="358pt" height="117pt"
 viewBox="0.00 0.00 358.00 117.00" xmlns="http://www.w3.org/2000/svg" xmlns:xlink="http://www.w3.org/1999/xlink">
<g id="graph0" class="graph" transform="scale(1 1) rotate(0) translate(4 113)">
<title>/home/joao/Documents/UniStuff/2_1things/AEDA/FEUP&#45;AEDA&#45;Proj1/include/utilities.h</title>
<!-- Node1 -->
<g id="node1" class="node">
<title>Node1</title>
<g id="a_node1"><a xlink:title=" ">
<polygon fill="#bfbfbf" stroke="black" points="96.5,-56.5 96.5,-108.5 239.5,-108.5 239.5,-56.5 96.5,-56.5"/>
<text text-anchor="start" x="104.5" y="-96.5" font-family="Helvetica,sans-Serif" font-size="10.00">/home/joao/Documents</text>
<text text-anchor="start" x="104.5" y="-85.5" font-family="Helvetica,sans-Serif" font-size="10.00">/UniStuff/2_1things/AEDA</text>
<text text-anchor="start" x="104.5" y="-74.5" font-family="Helvetica,sans-Serif" font-size="10.00">/FEUP&#45;AEDA&#45;Proj1/include</text>
<text text-anchor="middle" x="168" y="-63.5" font-family="Helvetica,sans-Serif" font-size="10.00">/utilities.h</text>
</a>
</g>
</g>
<!-- Node2 -->
<g id="node2" class="node">
<title>Node2</title>
<g id="a_node2"><a xlink:title=" ">
<polygon fill="none" stroke="#bfbfbf" points="0,-0.5 0,-19.5 44,-19.5 44,-0.5 0,-0.5"/>
<text text-anchor="middle" x="22" y="-7.5" font-family="Helvetica,sans-Serif" font-size="10.00">string</text>
</a>
</g>
</g>
<!-- Node1&#45;&gt;Node2 -->
<g id="edge1" class="edge">
<title>Node1&#45;&gt;Node2</title>
<path fill="none" stroke="midnightblue" d="M116.11,-56.45C93.36,-45.46 67.61,-33.03 48.81,-23.94"/>
<polygon fill="midnightblue" stroke="midnightblue" points="50.19,-20.72 39.66,-19.53 47.14,-27.03 50.19,-20.72"/>
</g>
<!-- Node3 -->
<g id="node3" class="node">
<title>Node3</title>
<g id="a_node3"><a xlink:title=" ">
<polygon fill="none" stroke="#bfbfbf" points="62,-0.5 62,-19.5 122,-19.5 122,-0.5 62,-0.5"/>
<text text-anchor="middle" x="92" y="-7.5" font-family="Helvetica,sans-Serif" font-size="10.00">iostream</text>
</a>
</g>
</g>
<!-- Node1&#45;&gt;Node3 -->
<g id="edge2" class="edge">
<title>Node1&#45;&gt;Node3</title>
<path fill="none" stroke="midnightblue" d="M140.99,-56.45C130.3,-46.53 118.34,-35.43 108.91,-26.69"/>
<polygon fill="midnightblue" stroke="midnightblue" points="111.09,-23.93 101.37,-19.7 106.32,-29.06 111.09,-23.93"/>
</g>
<!-- Node4 -->
<g id="node4" class="node">
<title>Node4</title>
<g id="a_node4"><a xlink:title=" ">
<polygon fill="none" stroke="#bfbfbf" points="140.5,-0.5 140.5,-19.5 195.5,-19.5 195.5,-0.5 140.5,-0.5"/>
<text text-anchor="middle" x="168" y="-7.5" font-family="Helvetica,sans-Serif" font-size="10.00">fstream</text>
</a>
</g>
</g>
<!-- Node1&#45;&gt;Node4 -->
<g id="edge3" class="edge">
<title>Node1&#45;&gt;Node4</title>
<path fill="none" stroke="midnightblue" d="M168,-56.45C168,-47.73 168,-38.1 168,-29.96"/>
<polygon fill="midnightblue" stroke="midnightblue" points="171.5,-29.7 168,-19.7 164.5,-29.7 171.5,-29.7"/>
</g>
<!-- Node5 -->
<g id="node5" class="node">
<title>Node5</title>
<g id="a_node5"><a xlink:title=" ">
<polygon fill="none" stroke="#bfbfbf" points="214,-0.5 214,-19.5 268,-19.5 268,-0.5 214,-0.5"/>
<text text-anchor="middle" x="241" y="-7.5" font-family="Helvetica,sans-Serif" font-size="10.00">istream</text>
</a>
</g>
</g>
<!-- Node1&#45;&gt;Node5 -->
<g id="edge4" class="edge">
<title>Node1&#45;&gt;Node5</title>
<path fill="none" stroke="midnightblue" d="M193.94,-56.45C204.21,-46.53 215.7,-35.43 224.76,-26.69"/>
<polygon fill="midnightblue" stroke="midnightblue" points="227.23,-29.16 232,-19.7 222.37,-24.12 227.23,-29.16"/>
</g>
<!-- Node6 -->
<g id="node6" class="node">
<title>Node6</title>
<g id="a_node6"><a xlink:title=" ">
<polygon fill="none" stroke="#bfbfbf" points="286,-0.5 286,-19.5 350,-19.5 350,-0.5 286,-0.5"/>
<text text-anchor="middle" x="318" y="-7.5" font-family="Helvetica,sans-Serif" font-size="10.00">sys/stat.h</text>
</a>
</g>
</g>
<!-- Node1&#45;&gt;Node6 -->
<g id="edge5" class="edge">
<title>Node1&#45;&gt;Node6</title>
<path fill="none" stroke="midnightblue" d="M221.31,-56.45C244.79,-45.41 271.38,-32.91 290.72,-23.82"/>
<polygon fill="midnightblue" stroke="midnightblue" points="292.3,-26.95 299.86,-19.53 289.32,-20.61 292.3,-26.95"/>
</g>
</g>
</svg>
