<?xml version="1.0" encoding="UTF-8" standalone="no"?>
<!DOCTYPE svg PUBLIC "-//W3C//DTD SVG 1.1//EN"
 "http://www.w3.org/Graphics/SVG/1.1/DTD/svg11.dtd">
<!-- Generated by graphviz version 2.43.20190912.0211 (20190912.0211)
 -->
<!-- Title: /home/joao/Documents/UniStuff/2_1things/AEDA/FEUP&#45;AEDA&#45;Proj1/include/utilities.h Pages: 1 -->
<svg width="466pt" height="328pt"
 viewBox="0.00 0.00 465.50 328.00" xmlns="http://www.w3.org/2000/svg" xmlns:xlink="http://www.w3.org/1999/xlink">
<g id="graph0" class="graph" transform="scale(1 1) rotate(0) translate(4 324)">
<title>/home/joao/Documents/UniStuff/2_1things/AEDA/FEUP&#45;AEDA&#45;Proj1/include/utilities.h</title>
<!-- Node1 -->
<g id="node1" class="node">
<title>Node1</title>
<g id="a_node1"><a xlink:title=" ">
<polygon fill="#bfbfbf" stroke="black" points="199,-267.5 199,-319.5 342,-319.5 342,-267.5 199,-267.5"/>
<text text-anchor="start" x="207" y="-307.5" font-family="Helvetica,sans-Serif" font-size="10.00">/home/joao/Documents</text>
<text text-anchor="start" x="207" y="-296.5" font-family="Helvetica,sans-Serif" font-size="10.00">/UniStuff/2_1things/AEDA</text>
<text text-anchor="start" x="207" y="-285.5" font-family="Helvetica,sans-Serif" font-size="10.00">/FEUP&#45;AEDA&#45;Proj1/include</text>
<text text-anchor="middle" x="270.5" y="-274.5" font-family="Helvetica,sans-Serif" font-size="10.00">/utilities.h</text>
</a>
</g>
</g>
<!-- Node2 -->
<g id="node2" class="node">
<title>Node2</title>
<g id="a_node2"><a xlink:href="cards_8h.html" target="_top" xlink:title=" ">
<polygon fill="none" stroke="black" points="109,-178.5 109,-230.5 252,-230.5 252,-178.5 109,-178.5"/>
<text text-anchor="start" x="117" y="-218.5" font-family="Helvetica,sans-Serif" font-size="10.00">/home/joao/Documents</text>
<text text-anchor="start" x="117" y="-207.5" font-family="Helvetica,sans-Serif" font-size="10.00">/UniStuff/2_1things/AEDA</text>
<text text-anchor="start" x="117" y="-196.5" font-family="Helvetica,sans-Serif" font-size="10.00">/FEUP&#45;AEDA&#45;Proj1/include</text>
<text text-anchor="middle" x="180.5" y="-185.5" font-family="Helvetica,sans-Serif" font-size="10.00">/cards.h</text>
</a>
</g>
</g>
<!-- Node1&#45;&gt;Node2 -->
<g id="edge1" class="edge">
<title>Node1&#45;&gt;Node2</title>
<path fill="none" stroke="midnightblue" d="M237.25,-260.36C227.1,-250.54 216.08,-239.89 206.47,-230.61"/>
<polygon fill="midnightblue" stroke="midnightblue" points="234.85,-262.9 244.47,-267.34 239.71,-257.87 234.85,-262.9"/>
</g>
<!-- Node6 -->
<g id="node6" class="node">
<title>Node6</title>
<g id="a_node6"><a xlink:href="menu_8h.html" target="_top" xlink:title=" ">
<polygon fill="none" stroke="black" points="275.5,-184 275.5,-225 457.5,-225 457.5,-184 275.5,-184"/>
<text text-anchor="start" x="283.5" y="-213" font-family="Helvetica,sans-Serif" font-size="10.00">/home/joao/Documents</text>
<text text-anchor="start" x="283.5" y="-202" font-family="Helvetica,sans-Serif" font-size="10.00">/UniStuff/2_1things/AEDA</text>
<text text-anchor="middle" x="366.5" y="-191" font-family="Helvetica,sans-Serif" font-size="10.00">/FEUP&#45;AEDA&#45;Proj1/include/menu.h</text>
</a>
</g>
</g>
<!-- Node1&#45;&gt;Node6 -->
<g id="edge7" class="edge">
<title>Node1&#45;&gt;Node6</title>
<path fill="none" stroke="midnightblue" d="M305.79,-260.51C318.9,-248.64 333.37,-235.53 344.89,-225.08"/>
<polygon fill="midnightblue" stroke="midnightblue" points="303.33,-258.03 298.27,-267.34 308.03,-263.21 303.33,-258.03"/>
</g>
<!-- Node3 -->
<g id="node3" class="node">
<title>Node3</title>
<g id="a_node3"><a xlink:href="filter_8h.html" target="_top" xlink:title=" ">
<polygon fill="none" stroke="black" points="0,-89.5 0,-141.5 143,-141.5 143,-89.5 0,-89.5"/>
<text text-anchor="start" x="8" y="-129.5" font-family="Helvetica,sans-Serif" font-size="10.00">/home/joao/Documents</text>
<text text-anchor="start" x="8" y="-118.5" font-family="Helvetica,sans-Serif" font-size="10.00">/UniStuff/2_1things/AEDA</text>
<text text-anchor="start" x="8" y="-107.5" font-family="Helvetica,sans-Serif" font-size="10.00">/FEUP&#45;AEDA&#45;Proj1/include</text>
<text text-anchor="middle" x="71.5" y="-96.5" font-family="Helvetica,sans-Serif" font-size="10.00">/filter.h</text>
</a>
</g>
</g>
<!-- Node2&#45;&gt;Node3 -->
<g id="edge2" class="edge">
<title>Node2&#45;&gt;Node3</title>
<path fill="none" stroke="midnightblue" d="M140.95,-171.93C128.45,-161.96 114.81,-151.07 102.96,-141.61"/>
<polygon fill="midnightblue" stroke="midnightblue" points="138.97,-174.83 148.97,-178.34 143.34,-169.36 138.97,-174.83"/>
</g>
<!-- Node4 -->
<g id="node4" class="node">
<title>Node4</title>
<g id="a_node4"><a xlink:href="interfaces_8h.html" target="_top" xlink:title=" ">
<polygon fill="none" stroke="black" points="150,-0.5 150,-52.5 293,-52.5 293,-0.5 150,-0.5"/>
<text text-anchor="start" x="158" y="-40.5" font-family="Helvetica,sans-Serif" font-size="10.00">/home/joao/Documents</text>
<text text-anchor="start" x="158" y="-29.5" font-family="Helvetica,sans-Serif" font-size="10.00">/UniStuff/2_1things/AEDA</text>
<text text-anchor="start" x="158" y="-18.5" font-family="Helvetica,sans-Serif" font-size="10.00">/FEUP&#45;AEDA&#45;Proj1/include</text>
<text text-anchor="middle" x="221.5" y="-7.5" font-family="Helvetica,sans-Serif" font-size="10.00">/interfaces.h</text>
</a>
</g>
</g>
<!-- Node2&#45;&gt;Node4 -->
<g id="edge4" class="edge">
<title>Node2&#45;&gt;Node4</title>
<path fill="none" stroke="midnightblue" d="M180.65,-168.16C181.54,-145.22 184.2,-114.88 191.5,-89 195.01,-76.54 200.97,-63.54 206.66,-52.72"/>
<polygon fill="midnightblue" stroke="midnightblue" points="177.15,-168.36 180.35,-178.46 184.14,-168.57 177.15,-168.36"/>
</g>
<!-- Node5 -->
<g id="node5" class="node">
<title>Node5</title>
<g id="a_node5"><a xlink:href="museum__network_8h.html" target="_top" xlink:title=" ">
<polygon fill="none" stroke="black" points="200,-89.5 200,-141.5 343,-141.5 343,-89.5 200,-89.5"/>
<text text-anchor="start" x="208" y="-129.5" font-family="Helvetica,sans-Serif" font-size="10.00">/home/joao/Documents</text>
<text text-anchor="start" x="208" y="-118.5" font-family="Helvetica,sans-Serif" font-size="10.00">/UniStuff/2_1things/AEDA</text>
<text text-anchor="start" x="208" y="-107.5" font-family="Helvetica,sans-Serif" font-size="10.00">/FEUP&#45;AEDA&#45;Proj1/include</text>
<text text-anchor="middle" x="271.5" y="-96.5" font-family="Helvetica,sans-Serif" font-size="10.00">/museum_network.h</text>
</a>
</g>
</g>
<!-- Node2&#45;&gt;Node5 -->
<g id="edge5" class="edge">
<title>Node2&#45;&gt;Node5</title>
<path fill="none" stroke="midnightblue" d="M214.11,-171.36C224.39,-161.54 235.53,-150.89 245.24,-141.61"/>
<polygon fill="midnightblue" stroke="midnightblue" points="211.63,-168.9 206.82,-178.34 216.47,-173.96 211.63,-168.9"/>
</g>
<!-- Node3&#45;&gt;Node4 -->
<g id="edge3" class="edge">
<title>Node3&#45;&gt;Node4</title>
<path fill="none" stroke="midnightblue" d="M123.96,-84.07C141.69,-73.79 161.27,-62.43 178.21,-52.61"/>
<polygon fill="midnightblue" stroke="midnightblue" points="121.78,-81.29 114.89,-89.34 125.29,-87.35 121.78,-81.29"/>
</g>
<!-- Node5&#45;&gt;Node4 -->
<g id="edge6" class="edge">
<title>Node5&#45;&gt;Node4</title>
<path fill="none" stroke="midnightblue" d="M252.04,-80.64C246.68,-71.31 240.95,-61.35 235.93,-52.61"/>
<polygon fill="midnightblue" stroke="midnightblue" points="249.02,-82.41 257.04,-89.34 255.09,-78.92 249.02,-82.41"/>
</g>
<!-- Node6&#45;&gt;Node4 -->
<g id="edge8" class="edge">
<title>Node6&#45;&gt;Node4</title>
<path fill="none" stroke="midnightblue" d="M370.33,-173.63C371.91,-148.69 370.18,-113.41 352.5,-89 338.06,-69.06 315.48,-55.37 293.1,-46.07"/>
<polygon fill="midnightblue" stroke="midnightblue" points="366.84,-173.36 369.49,-183.62 373.82,-173.95 366.84,-173.36"/>
</g>
</g>
</svg>
